<?xml version="1.0" encoding="UTF-8" standalone="no"?>
<!-- Created with Inkscape (http://www.inkscape.org/) -->

<svg
   xmlns:dc="http://purl.org/dc/elements/1.1/"
   xmlns:cc="http://creativecommons.org/ns#"
   xmlns:rdf="http://www.w3.org/1999/02/22-rdf-syntax-ns#"
   xmlns:svg="http://www.w3.org/2000/svg"
   xmlns="http://www.w3.org/2000/svg"
   xmlns:sodipodi="http://sodipodi.sourceforge.net/DTD/sodipodi-0.dtd"
   xmlns:inkscape="http://www.inkscape.org/namespaces/inkscape"
   width="602.36218"
   height="372.04724"
   id="svg2"
   version="1.1"
   inkscape:version="0.47 r22583"
   sodipodi:docname="panel-makerbot-rev0.3a.svg"
   style="display:inline">
  <defs
     id="defs4">
    <inkscape:perspective
       sodipodi:type="inkscape:persp3d"
       inkscape:vp_x="0 : 526.18109 : 1"
       inkscape:vp_y="0 : 1000 : 0"
       inkscape:vp_z="744.09448 : 526.18109 : 1"
       inkscape:persp3d-origin="372.04724 : 350.78739 : 1"
       id="perspective10" />
    <inkscape:perspective
       id="perspective4562"
       inkscape:persp3d-origin="0.5 : 0.33333333 : 1"
       inkscape:vp_z="1 : 0.5 : 1"
       inkscape:vp_y="0 : 1000 : 0"
       inkscape:vp_x="0 : 0.5 : 1"
       sodipodi:type="inkscape:persp3d" />
    <inkscape:perspective
       id="perspective12629"
       inkscape:persp3d-origin="526.5 : 248.01001 : 1"
       inkscape:vp_z="1053 : 372.01501 : 1"
       inkscape:vp_y="0 : 1000 : 0"
       inkscape:vp_x="0 : 372.01501 : 1"
       sodipodi:type="inkscape:persp3d" />
    <inkscape:perspective
       id="perspective18646"
       inkscape:persp3d-origin="0.5 : 0.33333333 : 1"
       inkscape:vp_z="1 : 0.5 : 1"
       inkscape:vp_y="0 : 1000 : 0"
       inkscape:vp_x="0 : 0.5 : 1"
       sodipodi:type="inkscape:persp3d" />
  </defs>
  <sodipodi:namedview
     id="base"
     pagecolor="#ffffff"
     bordercolor="#666666"
     borderopacity="1.0"
     inkscape:pageopacity="0.0"
     inkscape:pageshadow="2"
     inkscape:zoom="0.97947196"
     inkscape:cx="260.92305"
     inkscape:cy="192.46499"
     inkscape:document-units="px"
     inkscape:current-layer="g5424"
     showgrid="false"
     inkscape:window-width="1366"
     inkscape:window-height="742"
     inkscape:window-x="0"
     inkscape:window-y="0"
     inkscape:window-maximized="1"
     showguides="true"
     inkscape:guide-bbox="true"
     units="mm" />
  <metadata
     id="metadata7">
    <rdf:RDF>
      <cc:Work
         rdf:about="">
        <dc:format>image/svg+xml</dc:format>
        <dc:type
           rdf:resource="http://purl.org/dc/dcmitype/StillImage" />
        <dc:title></dc:title>
      </cc:Work>
    </rdf:RDF>
  </metadata>
  <g
     inkscape:groupmode="layer"
     id="layer4"
     inkscape:label="all"
     style="display:inline"
     transform="translate(-369.76033,-137.40299)">
    <g
       id="g5424"
       style="stroke:#ff0000;fill:none;stroke-width:0.35433071;stroke-miterlimit:4;stroke-dasharray:none">
      <path
         inkscape:connector-curvature="0"
         style="fill:none;stroke:#ff0000;stroke-width:0.35433075;stroke-miterlimit:4;stroke-dasharray:none;display:inline"
         d="m 406.77503,251.58873 261.73244,0 c 0.01,0 0,0.0256 0,0.0365 l 0,90.50461 c 0,0.01 0.01,0.0365 0,0.0365 l -261.73244,0 c -0.009,0 -0.0329,-0.0255 -0.0329,-0.0365 l 0,-90.50462 c 0,-0.01 0.023,-0.0365 0.0329,-0.0365 z"
         id="path6168" />
      <path
         inkscape:connector-curvature="0"
         id="path6154"
         d="m 403.34375,234.6875 c 2.41476,0 4.375,1.96023 4.375,4.375 0,2.41476 -1.96024,4.375 -4.375,4.375 -2.41476,0 -4.375,-1.96024 -4.375,-4.375 0,-2.41477 1.96024,-4.375 4.375,-4.375 z"
         style="fill:none;stroke:#ff0000;stroke-width:0.35433071;stroke-miterlimit:4;stroke-dasharray:none;display:inline" />
      <path
         inkscape:connector-curvature="0"
         id="path6152"
         d="m 671.46875,234.6875 c 2.41476,0 4.34375,1.96023 4.34375,4.375 0,2.41476 -1.92899,4.375 -4.34375,4.375 -2.41476,0 -4.375,-1.96024 -4.375,-4.375 0,-2.41477 1.96024,-4.375 4.375,-4.375 z"
         style="fill:none;stroke:#ff0000;stroke-width:0.35433071;stroke-miterlimit:4;stroke-dasharray:none;display:inline" />
      <path
         inkscape:connector-curvature="0"
         id="path6148"
         d="m 403.34375,344.53125 c 2.41476,0 4.375,1.96023 4.375,4.375 0,2.41476 -1.96024,4.375 -4.375,4.375 -2.41476,0 -4.375,-1.96024 -4.375,-4.375 0,-2.41477 1.96024,-4.375 4.375,-4.375 z"
         style="fill:none;stroke:#ff0000;stroke-width:0.35433071;stroke-miterlimit:4;stroke-dasharray:none;display:inline" />
      <path
         inkscape:connector-curvature="0"
         id="path6146"
         d="m 671.46875,344.53125 c 2.41476,0 4.34375,1.96023 4.34375,4.375 0,2.41476 -1.92899,4.375 -4.34375,4.375 -2.41476,0 -4.375,-1.96024 -4.375,-4.375 0,-2.41477 1.96024,-4.375 4.375,-4.375 z"
         style="fill:none;stroke:#ff0000;stroke-width:0.35433071;stroke-miterlimit:4;stroke-dasharray:none;display:inline" />
      <path
         inkscape:connector-curvature="0"
         id="path6144"
         d="m 537.375,369.78125 c 0.0199,-0.0199 0.0426,-0.0199 0.0625,0 l 48.625,48.625 c 0.0199,0.0199 0.0199,0.0426 0,0.0625 l -48.625,48.625 c -0.0199,0.0199 -0.0426,0.0199 -0.0625,0 l -48.625,-48.625 c -0.0199,-0.0199 -0.0199,-0.0426 0,-0.0625 l 48.625,-48.625 z"
         style="fill:none;stroke:#ff0000;stroke-width:0.35433071;stroke-miterlimit:4;stroke-dasharray:none;display:inline" />
      <path
         inkscape:connector-curvature="0"
         id="path6134"
         d="m 403.34375,466.3125 c 2.41476,0 4.375,1.96023 4.375,4.375 0,2.41476 -1.96024,4.34375 -4.375,4.34375 -2.41476,0 -4.375,-1.92899 -4.375,-4.34375 0,-2.41477 1.96024,-4.375 4.375,-4.375 z"
         style="fill:none;stroke:#ff0000;stroke-width:0.35433071;stroke-miterlimit:4;stroke-dasharray:none;display:inline" />
      <path
         inkscape:connector-curvature="0"
         id="path27319"
         d="m 671.46875,466.3125 c 2.41476,0 4.34375,1.96023 4.34375,4.375 0,2.41476 -1.92899,4.34375 -4.34375,4.34375 -2.41476,0 -4.375,-1.92899 -4.375,-4.34375 0,-2.41477 1.96024,-4.375 4.375,-4.375 z"
         style="fill:none;stroke:#ff0000;stroke-width:0.35433071;stroke-miterlimit:4;stroke-dasharray:none;display:inline" />
      <path
         transform="matrix(0.69216018,0,0,0.79748855,269.30957,266.45277)"
         d="m 531.80749,159.81857 a 30.113031,26.135838 0 1 1 -60.22606,0 30.113031,26.135838 0 1 1 60.22606,0 z"
         sodipodi:ry="26.135838"
         sodipodi:rx="30.113031"
         sodipodi:cy="159.81857"
         sodipodi:cx="501.69446"
         id="path6160"
         style="fill:none;stroke:#ff0000;stroke-width:0.4769175;stroke-miterlimit:4;stroke-dasharray:none"
         sodipodi:type="arc" />
      <path
         sodipodi:type="arc"
         style="fill:none;stroke:#ff0000;stroke-width:0.4769175;stroke-miterlimit:4;stroke-dasharray:none"
         id="path6162"
         sodipodi:cx="501.69446"
         sodipodi:cy="159.81857"
         sodipodi:rx="30.113031"
         sodipodi:ry="26.135838"
         d="m 531.80749,159.81857 a 30.113031,26.135838 0 1 1 -60.22606,0 30.113031,26.135838 0 1 1 60.22606,0 z"
         transform="matrix(0.69216018,0,0,0.79748855,268.68457,317.57777)" />
      <path
         transform="matrix(0.69216018,0,0,0.79748855,112.90332,266.57777)"
         d="m 531.80749,159.81857 a 30.113031,26.135838 0 1 1 -60.22606,0 30.113031,26.135838 0 1 1 60.22606,0 z"
         sodipodi:ry="26.135838"
         sodipodi:rx="30.113031"
         sodipodi:cy="159.81857"
         sodipodi:cx="501.69446"
         id="path6164"
         style="fill:none;stroke:#ff0000;stroke-width:0.4769175;stroke-miterlimit:4;stroke-dasharray:none"
         sodipodi:type="arc" />
      <path
         sodipodi:type="arc"
         style="fill:none;stroke:#ff0000;stroke-width:0.4769175;stroke-miterlimit:4;stroke-dasharray:none"
         id="path6166"
         sodipodi:cx="501.69446"
         sodipodi:cy="159.81857"
         sodipodi:rx="30.113031"
         sodipodi:ry="26.135838"
         d="m 531.80749,159.81857 a 30.113031,26.135838 0 1 1 -60.22606,0 30.113031,26.135838 0 1 1 60.22606,0 z"
         transform="matrix(0.69216018,0,0,0.79748855,113.18457,315.89027)" />
      <path
         sodipodi:nodetypes="ccccccccccccccccccccccccccccccccccccccccccccccccccccccccc"
         id="path6096"
         d="m 378.375,212.4375 c -0.20732,0 -0.375,0.16768 -0.375,0.375 l 0,8.78125 c 0,-0.17528 0.13722,-0.3125 0.3125,-0.3125 l 9.875,0 c 0.17528,0 0.34375,0.13722 0.34375,0.3125 l 0,52.4375 c 0,0.17528 -0.16847,0.3125 -0.34375,0.3125 l -9.875,0 c -0.17528,0 -0.3125,-0.13722 -0.3125,-0.3125 l 0,53.875 c 0,-0.17527 0.13722,-0.3125 0.3125,-0.3125 l 9.875,0 c 0.17528,0 0.34375,0.13723 0.34375,0.3125 l 0,52.40625 c 0,0.17527 -0.16847,0.3125 -0.34375,0.3125 l -9.875,0 c -0.17528,0 -0.3125,-0.13723 -0.3125,-0.3125 l 0,53.875 c 0,-0.17528 0.13722,-0.3125 0.3125,-0.3125 l 9.875,0 c 0.17528,0 0.34375,0.13722 0.34375,0.3125 l 0,52.4375 c 0,0.17528 -0.16847,0.3125 -0.34375,0.3125 l -9.875,0 c -0.17528,0 -0.3125,-0.13722 -0.3125,-0.3125 l 0,8.78125 c 0,0.20732 0.16768,0.375 0.375,0.375 l 318.03125,0 c 0.20732,0 0.375,-0.16768 0.375,-0.375 l 0,-8.78125 c 0,0.17528 -0.13722,0.3125 -0.3125,0.3125 l -9.875,0 c -0.17528,0 -0.34375,-0.13722 -0.34375,-0.3125 l 0,-52.4375 c 0,-0.17528 0.16847,-0.3125 0.34375,-0.3125 l 9.875,0 c 0.17528,0 0.3125,0.13722 0.3125,0.3125 l 0,-53.875 c 0,0.17527 -0.13722,0.3125 -0.3125,0.3125 l -9.875,0 c -0.17528,0 -0.34375,-0.13723 -0.34375,-0.3125 l 0,-52.40625 c 0,-0.17527 0.16847,-0.3125 0.34375,-0.3125 l 9.875,0 c 0.17528,0 0.3125,0.13723 0.3125,0.3125 l 0,-53.875 c 0,0.17528 -0.13722,0.3125 -0.3125,0.3125 l -9.875,0 c -0.17528,0 -0.34375,-0.13722 -0.34375,-0.3125 l 0,-52.4375 c 0,-0.17528 0.16847,-0.3125 0.34375,-0.3125 l 9.875,0 c 0.17528,0 0.3125,0.13722 0.3125,0.3125 l 0,-8.78125 c 0,-0.20732 -0.16768,-0.375 -0.375,-0.375 l -318.03125,0 z"
         style="fill:none;stroke:#ff0000;stroke-width:0.35433071;stroke-miterlimit:4;stroke-dasharray:none;display:inline" />
      <g
         style="fill:none;stroke:#ff0000;stroke-width:0.35433071;stroke-miterlimit:4;stroke-dasharray:none;display:inline"
         transform="translate(9.56813,13.86379)"
         id="g29289" />
      <g
         style="fill:none;stroke:#ff0000;stroke-width:0.35433071;stroke-miterlimit:4;stroke-dasharray:none;display:inline"
         id="g29302"
         transform="translate(9.56813,286.6887)" />
      <g
         style="fill:none;stroke:#ff0000;stroke-width:0.35433071;stroke-miterlimit:4;stroke-dasharray:none;display:inline"
         transform="matrix(0,1,-1,0,571.09255,-173.71312)"
         id="g29310" />
      <g
         style="fill:none;stroke:#ff0000;stroke-width:0.35433071;stroke-miterlimit:4;stroke-dasharray:none;display:inline"
         id="g29318"
         transform="matrix(0,1,-1,0,879.35497,-173.71312)" />
      <path
         id="path6165"
         d="m 711.59375,212.4375 c -0.11032,0 -0.1875,0.10921 -0.1875,0.25 l 0,8 -7.5625,0 c -0.38932,0 -0.71875,0.13723 -0.71875,0.3125 l 0,53.5625 c 0,0.17527 0.32951,0.34375 0.71875,0.34375 l 7.5625,0 0,52.09375 -7.5625,0 c -0.38932,0 -0.71875,0.13722 -0.71875,0.3125 l 0,53.5625 c 0,0.17528 0.32951,0.3125 0.71875,0.3125 l 7.5625,0 0,52.09375 -7.5625,0 c -0.38932,0 -0.71875,0.13722 -0.71875,0.3125 l 0,53.59375 c 0,0.17527 0.32951,0.3125 0.71875,0.3125 l 7.5625,0 0,8.03125 c 0,0.14079 0.0772,0.25 0.1875,0.25 56.38233,-0.19112 112.77424,0.43418 169.15625,0.34375 l -93.40625,-232.40625 -23.25,9.4375 1.9375,4.78125 -10.8125,4.375 -1.8125,-4.5 -3.59375,1.4375 -4.375,-10.78125 3.59375,-1.4375 -1.8125,-4.5 L 758,258.125 759.96875,263 783.25,253.53125 766.84375,212.6875 c 0,-0.14079 -0.0771,-0.25 -0.1875,-0.25 l -55.0625,0 z"
         style="fill:none;stroke:#ff0000;stroke-width:0.35433071;stroke-miterlimit:4;stroke-dasharray:none;display:inline" />
      <rect
         y="144.68079"
         x="380.51459"
         height="61.189198"
         width="339.17709"
         id="rect6263"
         style="fill:none;stroke:#ff0000;stroke-width:0.35433071;stroke-miterlimit:4;stroke-opacity:1;stroke-dasharray:none;display:inline" />
      <path
         transform="matrix(0.72384244,0,0,0.72384244,285.82657,157.26808)"
         d="m 586.60046,52.121376 a 7.3427038,7.3427038 0 1 1 -14.68541,0 7.3427038,7.3427038 0 1 1 14.68541,0 z"
         sodipodi:ry="7.3427038"
         sodipodi:rx="7.3427038"
         sodipodi:cy="52.121376"
         sodipodi:cx="579.25775"
         id="path6265"
         style="fill:none;stroke:#ff0000;stroke-width:0.48951359;stroke-miterlimit:4;stroke-opacity:1;stroke-dasharray:none;display:inline"
         sodipodi:type="arc" />
      <path
         sodipodi:type="arc"
         style="fill:none;stroke:#ff0000;stroke-width:0.48951359;stroke-miterlimit:4;stroke-opacity:1;stroke-dasharray:none;display:inline"
         id="path6267"
         sodipodi:cx="579.25775"
         sodipodi:cy="52.121376"
         sodipodi:rx="7.3427038"
         sodipodi:ry="7.3427038"
         d="m 586.60046,52.121376 a 7.3427038,7.3427038 0 1 1 -14.68541,0 7.3427038,7.3427038 0 1 1 14.68541,0 z"
         transform="matrix(0.72384244,0,0,0.72384244,-23.38721,157.26808)" />
      <path
         style="fill:none;stroke:#ff0000;stroke-width:0.35433071;stroke-miterlimit:4;stroke-dasharray:none;display:inline"
         d="m 942.2813,496.134 c 0.1103,0 0.1875,-0.10921 0.1875,-0.25 l 0,-8 7.5625,0 c 0.3893,0 0.7187,-0.13723 0.7187,-0.3125 l 0,-53.5625 c 0,-0.17527 -0.3295,-0.34375 -0.7187,-0.34375 l -7.5625,0 0,-52.09375 7.5625,0 c 0.3893,0 0.7187,-0.13722 0.7187,-0.3125 l 0,-53.5625 c 0,-0.17528 -0.3295,-0.3125 -0.7187,-0.3125 l -7.5625,0 0,-52.09375 7.5625,0 c 0.3893,0 0.7187,-0.13722 0.7187,-0.3125 l 0,-53.59375 c 0,-0.17527 -0.3295,-0.3125 -0.7187,-0.3125 l -7.5625,0 0,-8.03125 c 0,-0.14079 -0.077,-0.25 -0.1875,-0.25 -56.3824,0.19112 -112.77429,-0.43418 -169.1563,-0.34375 l 93.40625,232.40625 23.24995,-9.4375 -1.9375,-4.78125 10.8125,-4.375 1.8125,4.5 3.5938,-1.4375 4.375,10.78125 -3.5937,1.4375 1.8125,4.5 -10.7813,4.40625 -1.9688,-4.875 -23.2812,9.46875 16.4062,40.84375 c 0,0.14079 0.077,0.25 0.1875,0.25 l 55.0626,0 z"
         id="path19086" />
    </g>
    <g
       id="g5448"
       style="stroke:none">
      <text
         id="text19158"
         y="156.24071"
         x="792.0108"
         style="font-size:14px;font-style:normal;font-weight:normal;fill:#000000;fill-opacity:1;stroke:none;font-family:Bitstream Vera Sans"
         xml:space="preserve"><tspan
           y="156.24071"
           x="792.0108"
           id="tspan19160"
           sodipodi:role="line">Material:</tspan><tspan
           id="tspan19162"
           y="173.74071"
           x="792.0108"
           sodipodi:role="line">2.7mm plywood</tspan></text>
      <text
         id="text19183"
         y="232.28583"
         x="542.86304"
         style="font-size:12px;font-style:normal;font-weight:normal;fill:#000000;fill-opacity:1;stroke:none;display:inline;font-family:Bitstream Vera Sans"
         xml:space="preserve"><tspan
           y="232.28583"
           x="542.86304"
           id="tspan19185"
           sodipodi:role="line">www.laoslaser.org</tspan></text>
      <text
         id="text6269"
         y="187.58096"
         x="444.00159"
         style="font-size:36px;font-style:normal;font-weight:normal;fill:#000000;fill-opacity:1;stroke:none;display:inline;font-family:Bitstream Vera Sans"
         xml:space="preserve"><tspan
           y="187.58096"
           x="444.00159"
           id="tspan6271"
           sodipodi:role="line">hole spacer</tspan></text>
      <text
         id="text6273"
         y="156.10277"
         x="464.34558"
         style="font-size:11px;font-style:normal;font-weight:normal;fill:#000000;fill-opacity:1;stroke:none;display:inline;font-family:Bitstream Vera Sans"
         xml:space="preserve"><tspan
           y="156.10277"
           x="464.34558"
           id="tspan6275"
           sodipodi:role="line">align this side with top of wood</tspan></text>
    </g>
  </g>
</svg>
