G04 (created by PCBNEW-RS274X (2012-apr-16-27)-stable) date Sun 24 Mar 2013 21:35:17 CET*
G01*
G70*
G90*
%MOIN*%
G04 Gerber Fmt 3.4, Leading zero omitted, Abs format*
%FSLAX34Y34*%
G04 APERTURE LIST*
%ADD10C,0.006000*%
%ADD11C,0.015000*%
%ADD12C,0.012000*%
%ADD13C,0.008000*%
%ADD14C,0.010000*%
%ADD15C,0.007500*%
G04 APERTURE END LIST*
G54D10*
G54D11*
X26700Y-20100D02*
X26900Y-20100D01*
X26300Y-19700D02*
X26700Y-20100D01*
X26300Y-18500D02*
X26300Y-19700D01*
G54D12*
X27086Y-19624D02*
X27429Y-19624D01*
X27258Y-20424D02*
X27258Y-19624D01*
X27857Y-20386D02*
X27800Y-20424D01*
X27686Y-20424D01*
X27629Y-20386D01*
X27600Y-20310D01*
X27600Y-20005D01*
X27629Y-19929D01*
X27686Y-19890D01*
X27800Y-19890D01*
X27857Y-19929D01*
X27886Y-20005D01*
X27886Y-20081D01*
X27600Y-20157D01*
X28114Y-20386D02*
X28171Y-20424D01*
X28286Y-20424D01*
X28343Y-20386D01*
X28371Y-20310D01*
X28371Y-20271D01*
X28343Y-20195D01*
X28286Y-20157D01*
X28200Y-20157D01*
X28143Y-20119D01*
X28114Y-20043D01*
X28114Y-20005D01*
X28143Y-19929D01*
X28200Y-19890D01*
X28286Y-19890D01*
X28343Y-19929D01*
X28543Y-19890D02*
X28772Y-19890D01*
X28629Y-19624D02*
X28629Y-20310D01*
X28657Y-20386D01*
X28715Y-20424D01*
X28772Y-20424D01*
X29429Y-20424D02*
X29429Y-19624D01*
X29629Y-20195D01*
X29829Y-19624D01*
X29829Y-20424D01*
X30201Y-20424D02*
X30143Y-20386D01*
X30115Y-20348D01*
X30086Y-20271D01*
X30086Y-20043D01*
X30115Y-19967D01*
X30143Y-19929D01*
X30201Y-19890D01*
X30286Y-19890D01*
X30343Y-19929D01*
X30372Y-19967D01*
X30401Y-20043D01*
X30401Y-20271D01*
X30372Y-20348D01*
X30343Y-20386D01*
X30286Y-20424D01*
X30201Y-20424D01*
X30915Y-20424D02*
X30915Y-19624D01*
X30915Y-20386D02*
X30858Y-20424D01*
X30744Y-20424D01*
X30686Y-20386D01*
X30658Y-20348D01*
X30629Y-20271D01*
X30629Y-20043D01*
X30658Y-19967D01*
X30686Y-19929D01*
X30744Y-19890D01*
X30858Y-19890D01*
X30915Y-19929D01*
X31429Y-20386D02*
X31372Y-20424D01*
X31258Y-20424D01*
X31201Y-20386D01*
X31172Y-20310D01*
X31172Y-20005D01*
X31201Y-19929D01*
X31258Y-19890D01*
X31372Y-19890D01*
X31429Y-19929D01*
X31458Y-20005D01*
X31458Y-20081D01*
X31172Y-20157D01*
X43215Y-25424D02*
X43215Y-24624D01*
X43472Y-25386D02*
X43558Y-25424D01*
X43701Y-25424D01*
X43758Y-25386D01*
X43787Y-25348D01*
X43815Y-25271D01*
X43815Y-25195D01*
X43787Y-25119D01*
X43758Y-25081D01*
X43701Y-25043D01*
X43587Y-25005D01*
X43529Y-24967D01*
X43501Y-24929D01*
X43472Y-24852D01*
X43472Y-24776D01*
X43501Y-24700D01*
X43529Y-24662D01*
X43587Y-24624D01*
X43729Y-24624D01*
X43815Y-24662D01*
X44072Y-25424D02*
X44072Y-24624D01*
X44300Y-24624D01*
X44358Y-24662D01*
X44386Y-24700D01*
X44415Y-24776D01*
X44415Y-24890D01*
X44386Y-24967D01*
X44358Y-25005D01*
X44300Y-25043D01*
X44072Y-25043D01*
X44572Y-24324D02*
X44229Y-24324D01*
X44401Y-24324D02*
X44401Y-23524D01*
X44344Y-23638D01*
X44286Y-23714D01*
X44229Y-23752D01*
X45072Y-21119D02*
X45529Y-21119D01*
X45072Y-20119D02*
X45529Y-20119D01*
X45300Y-20424D02*
X45300Y-19814D01*
X44143Y-18905D02*
X44229Y-18943D01*
X44257Y-18981D01*
X44286Y-19057D01*
X44286Y-19171D01*
X44257Y-19248D01*
X44229Y-19286D01*
X44171Y-19324D01*
X43943Y-19324D01*
X43943Y-18524D01*
X44143Y-18524D01*
X44200Y-18562D01*
X44229Y-18600D01*
X44257Y-18676D01*
X44257Y-18752D01*
X44229Y-18829D01*
X44200Y-18867D01*
X44143Y-18905D01*
X43943Y-18905D01*
X44800Y-18790D02*
X44800Y-19324D01*
X44543Y-18790D02*
X44543Y-19210D01*
X44571Y-19286D01*
X44629Y-19324D01*
X44714Y-19324D01*
X44771Y-19286D01*
X44800Y-19248D01*
X45029Y-18790D02*
X45343Y-18790D01*
X45029Y-19324D01*
X45343Y-19324D01*
X45515Y-18790D02*
X45829Y-18790D01*
X45515Y-19324D01*
X45829Y-19324D01*
X46286Y-19286D02*
X46229Y-19324D01*
X46115Y-19324D01*
X46058Y-19286D01*
X46029Y-19210D01*
X46029Y-18905D01*
X46058Y-18829D01*
X46115Y-18790D01*
X46229Y-18790D01*
X46286Y-18829D01*
X46315Y-18905D01*
X46315Y-18981D01*
X46029Y-19057D01*
X46572Y-19324D02*
X46572Y-18790D01*
X46572Y-18943D02*
X46600Y-18867D01*
X46629Y-18829D01*
X46686Y-18790D01*
X46743Y-18790D01*
X18143Y-33562D02*
X18086Y-33524D01*
X18000Y-33524D01*
X17915Y-33562D01*
X17857Y-33638D01*
X17829Y-33714D01*
X17800Y-33867D01*
X17800Y-33981D01*
X17829Y-34133D01*
X17857Y-34210D01*
X17915Y-34286D01*
X18000Y-34324D01*
X18057Y-34324D01*
X18143Y-34286D01*
X18172Y-34248D01*
X18172Y-33981D01*
X18057Y-33981D01*
X18429Y-34324D02*
X18429Y-33524D01*
X18772Y-34324D01*
X18772Y-33524D01*
X19058Y-34324D02*
X19058Y-33524D01*
X19201Y-33524D01*
X19286Y-33562D01*
X19344Y-33638D01*
X19372Y-33714D01*
X19401Y-33867D01*
X19401Y-33981D01*
X19372Y-34133D01*
X19344Y-34210D01*
X19286Y-34286D01*
X19201Y-34324D01*
X19058Y-34324D01*
X17829Y-35819D02*
X18286Y-35819D01*
X18057Y-36124D02*
X18057Y-35514D01*
X18858Y-35324D02*
X18572Y-35324D01*
X18543Y-35705D01*
X18572Y-35667D01*
X18629Y-35629D01*
X18772Y-35629D01*
X18829Y-35667D01*
X18858Y-35705D01*
X18886Y-35781D01*
X18886Y-35971D01*
X18858Y-36048D01*
X18829Y-36086D01*
X18772Y-36124D01*
X18629Y-36124D01*
X18572Y-36086D01*
X18543Y-36048D01*
X19057Y-35324D02*
X19257Y-36124D01*
X19457Y-35324D01*
X18272Y-39324D02*
X18072Y-38943D01*
X17929Y-39324D02*
X17929Y-38524D01*
X18157Y-38524D01*
X18215Y-38562D01*
X18243Y-38600D01*
X18272Y-38676D01*
X18272Y-38790D01*
X18243Y-38867D01*
X18215Y-38905D01*
X18157Y-38943D01*
X17929Y-38943D01*
X18443Y-38524D02*
X18786Y-38524D01*
X18615Y-39324D02*
X18615Y-38524D01*
X18957Y-39286D02*
X19043Y-39324D01*
X19186Y-39324D01*
X19243Y-39286D01*
X19272Y-39248D01*
X19300Y-39171D01*
X19300Y-39095D01*
X19272Y-39019D01*
X19243Y-38981D01*
X19186Y-38943D01*
X19072Y-38905D01*
X19014Y-38867D01*
X18986Y-38829D01*
X18957Y-38752D01*
X18957Y-38676D01*
X18986Y-38600D01*
X19014Y-38562D01*
X19072Y-38524D01*
X19214Y-38524D01*
X19300Y-38562D01*
X18257Y-37590D02*
X17800Y-37819D01*
X18257Y-38048D01*
X18543Y-37819D02*
X19000Y-37819D01*
X17800Y-37019D02*
X18257Y-37019D01*
X18543Y-36790D02*
X19000Y-37019D01*
X18543Y-37248D01*
X18229Y-24819D02*
X18686Y-24819D01*
X18457Y-25124D02*
X18457Y-24514D01*
X19258Y-24324D02*
X18972Y-24324D01*
X18943Y-24705D01*
X18972Y-24667D01*
X19029Y-24629D01*
X19172Y-24629D01*
X19229Y-24667D01*
X19258Y-24705D01*
X19286Y-24781D01*
X19286Y-24971D01*
X19258Y-25048D01*
X19229Y-25086D01*
X19172Y-25124D01*
X19029Y-25124D01*
X18972Y-25086D01*
X18943Y-25048D01*
X19457Y-24324D02*
X19657Y-25124D01*
X19857Y-24324D01*
X18286Y-24086D02*
X18372Y-24124D01*
X18515Y-24124D01*
X18572Y-24086D01*
X18601Y-24048D01*
X18629Y-23971D01*
X18629Y-23895D01*
X18601Y-23819D01*
X18572Y-23781D01*
X18515Y-23743D01*
X18401Y-23705D01*
X18343Y-23667D01*
X18315Y-23629D01*
X18286Y-23552D01*
X18286Y-23476D01*
X18315Y-23400D01*
X18343Y-23362D01*
X18401Y-23324D01*
X18543Y-23324D01*
X18629Y-23362D01*
X19229Y-24048D02*
X19200Y-24086D01*
X19114Y-24124D01*
X19057Y-24124D01*
X18972Y-24086D01*
X18914Y-24010D01*
X18886Y-23933D01*
X18857Y-23781D01*
X18857Y-23667D01*
X18886Y-23514D01*
X18914Y-23438D01*
X18972Y-23362D01*
X19057Y-23324D01*
X19114Y-23324D01*
X19200Y-23362D01*
X19229Y-23400D01*
X19772Y-24124D02*
X19486Y-24124D01*
X19486Y-23324D01*
X18272Y-23086D02*
X18358Y-23124D01*
X18501Y-23124D01*
X18558Y-23086D01*
X18587Y-23048D01*
X18615Y-22971D01*
X18615Y-22895D01*
X18587Y-22819D01*
X18558Y-22781D01*
X18501Y-22743D01*
X18387Y-22705D01*
X18329Y-22667D01*
X18301Y-22629D01*
X18272Y-22552D01*
X18272Y-22476D01*
X18301Y-22400D01*
X18329Y-22362D01*
X18387Y-22324D01*
X18529Y-22324D01*
X18615Y-22362D01*
X18872Y-23124D02*
X18872Y-22324D01*
X19015Y-22324D01*
X19100Y-22362D01*
X19158Y-22438D01*
X19186Y-22514D01*
X19215Y-22667D01*
X19215Y-22781D01*
X19186Y-22933D01*
X19158Y-23010D01*
X19100Y-23086D01*
X19015Y-23124D01*
X18872Y-23124D01*
X19443Y-22895D02*
X19729Y-22895D01*
X19386Y-23124D02*
X19586Y-22324D01*
X19786Y-23124D01*
X18543Y-21362D02*
X18486Y-21324D01*
X18400Y-21324D01*
X18315Y-21362D01*
X18257Y-21438D01*
X18229Y-21514D01*
X18200Y-21667D01*
X18200Y-21781D01*
X18229Y-21933D01*
X18257Y-22010D01*
X18315Y-22086D01*
X18400Y-22124D01*
X18457Y-22124D01*
X18543Y-22086D01*
X18572Y-22048D01*
X18572Y-21781D01*
X18457Y-21781D01*
X18829Y-22124D02*
X18829Y-21324D01*
X19172Y-22124D01*
X19172Y-21324D01*
X19458Y-22124D02*
X19458Y-21324D01*
X19601Y-21324D01*
X19686Y-21362D01*
X19744Y-21438D01*
X19772Y-21514D01*
X19801Y-21667D01*
X19801Y-21781D01*
X19772Y-21933D01*
X19744Y-22010D01*
X19686Y-22086D01*
X19601Y-22124D01*
X19458Y-22124D01*
X30929Y-40124D02*
X30643Y-40124D01*
X30643Y-39324D01*
X31100Y-39895D02*
X31386Y-39895D01*
X31043Y-40124D02*
X31243Y-39324D01*
X31443Y-40124D01*
X31757Y-39324D02*
X31871Y-39324D01*
X31929Y-39362D01*
X31986Y-39438D01*
X32014Y-39590D01*
X32014Y-39857D01*
X31986Y-40010D01*
X31929Y-40086D01*
X31871Y-40124D01*
X31757Y-40124D01*
X31700Y-40086D01*
X31643Y-40010D01*
X31614Y-39857D01*
X31614Y-39590D01*
X31643Y-39438D01*
X31700Y-39362D01*
X31757Y-39324D01*
X32243Y-40086D02*
X32329Y-40124D01*
X32472Y-40124D01*
X32529Y-40086D01*
X32558Y-40048D01*
X32586Y-39971D01*
X32586Y-39895D01*
X32558Y-39819D01*
X32529Y-39781D01*
X32472Y-39743D01*
X32358Y-39705D01*
X32300Y-39667D01*
X32272Y-39629D01*
X32243Y-39552D01*
X32243Y-39476D01*
X32272Y-39400D01*
X32300Y-39362D01*
X32358Y-39324D01*
X32500Y-39324D01*
X32586Y-39362D01*
X31015Y-41364D02*
X31015Y-40564D01*
X31272Y-40640D02*
X31301Y-40602D01*
X31358Y-40564D01*
X31501Y-40564D01*
X31558Y-40602D01*
X31587Y-40640D01*
X31615Y-40716D01*
X31615Y-40792D01*
X31587Y-40907D01*
X31244Y-41364D01*
X31615Y-41364D01*
X32215Y-41288D02*
X32186Y-41326D01*
X32100Y-41364D01*
X32043Y-41364D01*
X31958Y-41326D01*
X31900Y-41250D01*
X31872Y-41173D01*
X31843Y-41021D01*
X31843Y-40907D01*
X31872Y-40754D01*
X31900Y-40678D01*
X31958Y-40602D01*
X32043Y-40564D01*
X32100Y-40564D01*
X32186Y-40602D01*
X32215Y-40640D01*
X30130Y-42604D02*
X30130Y-42070D01*
X30130Y-42223D02*
X30158Y-42147D01*
X30187Y-42109D01*
X30244Y-42070D01*
X30301Y-42070D01*
X30729Y-42566D02*
X30672Y-42604D01*
X30558Y-42604D01*
X30501Y-42566D01*
X30472Y-42490D01*
X30472Y-42185D01*
X30501Y-42109D01*
X30558Y-42070D01*
X30672Y-42070D01*
X30729Y-42109D01*
X30758Y-42185D01*
X30758Y-42261D01*
X30472Y-42337D01*
X30958Y-42070D02*
X31101Y-42604D01*
X31243Y-42070D01*
X32043Y-41804D02*
X32100Y-41804D01*
X32157Y-41842D01*
X32186Y-41880D01*
X32215Y-41956D01*
X32243Y-42109D01*
X32243Y-42299D01*
X32215Y-42451D01*
X32186Y-42528D01*
X32157Y-42566D01*
X32100Y-42604D01*
X32043Y-42604D01*
X31986Y-42566D01*
X31957Y-42528D01*
X31929Y-42451D01*
X31900Y-42299D01*
X31900Y-42109D01*
X31929Y-41956D01*
X31957Y-41880D01*
X31986Y-41842D01*
X32043Y-41804D01*
X32500Y-42528D02*
X32528Y-42566D01*
X32500Y-42604D01*
X32471Y-42566D01*
X32500Y-42528D01*
X32500Y-42604D01*
X33043Y-42070D02*
X33043Y-42604D01*
X32900Y-41766D02*
X32757Y-42337D01*
X33129Y-42337D01*
X27871Y-31990D02*
X27985Y-32524D01*
X28099Y-32143D01*
X28214Y-32524D01*
X28328Y-31990D01*
X28500Y-31990D02*
X28614Y-32524D01*
X28728Y-32143D01*
X28843Y-32524D01*
X28957Y-31990D01*
X29129Y-31990D02*
X29243Y-32524D01*
X29357Y-32143D01*
X29472Y-32524D01*
X29586Y-31990D01*
X29815Y-32448D02*
X29843Y-32486D01*
X29815Y-32524D01*
X29786Y-32486D01*
X29815Y-32448D01*
X29815Y-32524D01*
X30187Y-32524D02*
X30129Y-32486D01*
X30101Y-32410D01*
X30101Y-31724D01*
X30672Y-32524D02*
X30672Y-32105D01*
X30643Y-32029D01*
X30586Y-31990D01*
X30472Y-31990D01*
X30415Y-32029D01*
X30672Y-32486D02*
X30615Y-32524D01*
X30472Y-32524D01*
X30415Y-32486D01*
X30386Y-32410D01*
X30386Y-32333D01*
X30415Y-32257D01*
X30472Y-32219D01*
X30615Y-32219D01*
X30672Y-32181D01*
X31044Y-32524D02*
X30986Y-32486D01*
X30958Y-32448D01*
X30929Y-32371D01*
X30929Y-32143D01*
X30958Y-32067D01*
X30986Y-32029D01*
X31044Y-31990D01*
X31129Y-31990D01*
X31186Y-32029D01*
X31215Y-32067D01*
X31244Y-32143D01*
X31244Y-32371D01*
X31215Y-32448D01*
X31186Y-32486D01*
X31129Y-32524D01*
X31044Y-32524D01*
X31472Y-32486D02*
X31529Y-32524D01*
X31644Y-32524D01*
X31701Y-32486D01*
X31729Y-32410D01*
X31729Y-32371D01*
X31701Y-32295D01*
X31644Y-32257D01*
X31558Y-32257D01*
X31501Y-32219D01*
X31472Y-32143D01*
X31472Y-32105D01*
X31501Y-32029D01*
X31558Y-31990D01*
X31644Y-31990D01*
X31701Y-32029D01*
X32073Y-32524D02*
X32015Y-32486D01*
X31987Y-32410D01*
X31987Y-31724D01*
X32558Y-32524D02*
X32558Y-32105D01*
X32529Y-32029D01*
X32472Y-31990D01*
X32358Y-31990D01*
X32301Y-32029D01*
X32558Y-32486D02*
X32501Y-32524D01*
X32358Y-32524D01*
X32301Y-32486D01*
X32272Y-32410D01*
X32272Y-32333D01*
X32301Y-32257D01*
X32358Y-32219D01*
X32501Y-32219D01*
X32558Y-32181D01*
X32815Y-32486D02*
X32872Y-32524D01*
X32987Y-32524D01*
X33044Y-32486D01*
X33072Y-32410D01*
X33072Y-32371D01*
X33044Y-32295D01*
X32987Y-32257D01*
X32901Y-32257D01*
X32844Y-32219D01*
X32815Y-32143D01*
X32815Y-32105D01*
X32844Y-32029D01*
X32901Y-31990D01*
X32987Y-31990D01*
X33044Y-32029D01*
X33558Y-32486D02*
X33501Y-32524D01*
X33387Y-32524D01*
X33330Y-32486D01*
X33301Y-32410D01*
X33301Y-32105D01*
X33330Y-32029D01*
X33387Y-31990D01*
X33501Y-31990D01*
X33558Y-32029D01*
X33587Y-32105D01*
X33587Y-32181D01*
X33301Y-32257D01*
X33844Y-32524D02*
X33844Y-31990D01*
X33844Y-32143D02*
X33872Y-32067D01*
X33901Y-32029D01*
X33958Y-31990D01*
X34015Y-31990D01*
X34215Y-32448D02*
X34243Y-32486D01*
X34215Y-32524D01*
X34186Y-32486D01*
X34215Y-32448D01*
X34215Y-32524D01*
X34587Y-32524D02*
X34529Y-32486D01*
X34501Y-32448D01*
X34472Y-32371D01*
X34472Y-32143D01*
X34501Y-32067D01*
X34529Y-32029D01*
X34587Y-31990D01*
X34672Y-31990D01*
X34729Y-32029D01*
X34758Y-32067D01*
X34787Y-32143D01*
X34787Y-32371D01*
X34758Y-32448D01*
X34729Y-32486D01*
X34672Y-32524D01*
X34587Y-32524D01*
X35044Y-32524D02*
X35044Y-31990D01*
X35044Y-32143D02*
X35072Y-32067D01*
X35101Y-32029D01*
X35158Y-31990D01*
X35215Y-31990D01*
X35672Y-31990D02*
X35672Y-32638D01*
X35643Y-32714D01*
X35615Y-32752D01*
X35558Y-32790D01*
X35472Y-32790D01*
X35415Y-32752D01*
X35672Y-32486D02*
X35615Y-32524D01*
X35501Y-32524D01*
X35443Y-32486D01*
X35415Y-32448D01*
X35386Y-32371D01*
X35386Y-32143D01*
X35415Y-32067D01*
X35443Y-32029D01*
X35501Y-31990D01*
X35615Y-31990D01*
X35672Y-32029D01*
X42646Y-19739D02*
X42646Y-21861D01*
X42646Y-21861D02*
X43000Y-22214D01*
X43000Y-22214D02*
X43707Y-22214D01*
X43707Y-22214D02*
X44414Y-21507D01*
X44414Y-21507D02*
X44414Y-20093D01*
X44414Y-20093D02*
X43707Y-19386D01*
X43707Y-19386D02*
X43000Y-19386D01*
X43000Y-19386D02*
X42646Y-19739D01*
X16450Y-33450D02*
X17450Y-33450D01*
X17450Y-33450D02*
X17450Y-39450D01*
X17450Y-39450D02*
X16450Y-39450D01*
X16450Y-39450D02*
X16450Y-33450D01*
X16450Y-34450D02*
X17450Y-34450D01*
X16500Y-25200D02*
X16500Y-25200D01*
X17500Y-25200D02*
X16500Y-25200D01*
X16500Y-25200D02*
X16500Y-25200D01*
X16500Y-25200D02*
X16500Y-21200D01*
X16500Y-21200D02*
X17500Y-21200D01*
X17500Y-21200D02*
X17500Y-25200D01*
X17500Y-24200D02*
X16500Y-24200D01*
X28600Y-29900D02*
X28600Y-28900D01*
X28600Y-28900D02*
X31600Y-28900D01*
X31600Y-28900D02*
X31600Y-29900D01*
X31600Y-29900D02*
X28600Y-29900D01*
X29600Y-28900D02*
X29600Y-29900D01*
G54D11*
X21100Y-24000D02*
X36100Y-24000D01*
X36100Y-24000D02*
X36100Y-26000D01*
X36100Y-26000D02*
X21100Y-26000D01*
X21100Y-26000D02*
X21100Y-24000D01*
X21100Y-24500D02*
X21600Y-24500D01*
X21600Y-24500D02*
X21600Y-25500D01*
X21600Y-25500D02*
X21100Y-25500D01*
G54D12*
X30500Y-22400D02*
X27700Y-22400D01*
X27700Y-22400D02*
X27700Y-21600D01*
X27700Y-21600D02*
X30500Y-21600D01*
X30500Y-21600D02*
X30500Y-22400D01*
X30500Y-22200D02*
X30300Y-22400D01*
G54D11*
X41969Y-25390D02*
X41931Y-25772D01*
X41820Y-26140D01*
X41640Y-26479D01*
X41397Y-26777D01*
X41101Y-27022D01*
X40763Y-27205D01*
X40395Y-27318D01*
X40013Y-27358D01*
X39632Y-27324D01*
X39263Y-27215D01*
X38922Y-27037D01*
X38623Y-26796D01*
X38376Y-26502D01*
X38191Y-26165D01*
X38075Y-25799D01*
X38032Y-25417D01*
X38064Y-25035D01*
X38170Y-24666D01*
X38345Y-24324D01*
X38584Y-24023D01*
X38877Y-23774D01*
X39212Y-23586D01*
X39578Y-23467D01*
X39959Y-23422D01*
X40341Y-23451D01*
X40712Y-23555D01*
X41055Y-23728D01*
X41357Y-23965D01*
X41608Y-24256D01*
X41798Y-24590D01*
X41920Y-24954D01*
X41968Y-25336D01*
X41969Y-25390D01*
G54D12*
X22400Y-28200D02*
X22400Y-31000D01*
X22400Y-31000D02*
X21600Y-31000D01*
X21600Y-31000D02*
X21600Y-28200D01*
X21600Y-28200D02*
X22400Y-28200D01*
X22200Y-28200D02*
X22400Y-28400D01*
X25300Y-16200D02*
X26300Y-16200D01*
X26300Y-16200D02*
X26300Y-18200D01*
X26300Y-18200D02*
X25300Y-18200D01*
X25300Y-18200D02*
X25300Y-16200D01*
X20600Y-18200D02*
X21000Y-18200D01*
X21000Y-18200D02*
X21000Y-17800D01*
X21000Y-17800D02*
X24200Y-17800D01*
X24200Y-17800D02*
X24200Y-18600D01*
X24200Y-18600D02*
X21000Y-18600D01*
X21000Y-18600D02*
X21000Y-18200D01*
X21000Y-18000D02*
X21200Y-17800D01*
X24600Y-18200D02*
X24200Y-18200D01*
X20400Y-24800D02*
X20400Y-25200D01*
X20400Y-25200D02*
X20800Y-25200D01*
X20800Y-25200D02*
X20800Y-28400D01*
X20800Y-28400D02*
X20000Y-28400D01*
X20000Y-28400D02*
X20000Y-25200D01*
X20000Y-25200D02*
X20400Y-25200D01*
X20600Y-25200D02*
X20800Y-25400D01*
X20400Y-28800D02*
X20400Y-28400D01*
G54D10*
X47953Y-42323D02*
X47923Y-42628D01*
X47834Y-42923D01*
X47689Y-43194D01*
X47495Y-43432D01*
X47258Y-43628D01*
X46988Y-43774D01*
X46694Y-43865D01*
X46388Y-43897D01*
X46083Y-43870D01*
X45788Y-43783D01*
X45516Y-43640D01*
X45277Y-43448D01*
X45079Y-43212D01*
X44931Y-42943D01*
X44838Y-42650D01*
X44804Y-42344D01*
X44829Y-42039D01*
X44914Y-41744D01*
X45055Y-41470D01*
X45246Y-41229D01*
X45480Y-41030D01*
X45748Y-40880D01*
X46040Y-40785D01*
X46346Y-40749D01*
X46651Y-40772D01*
X46947Y-40855D01*
X47221Y-40994D01*
X47464Y-41183D01*
X47665Y-41416D01*
X47816Y-41683D01*
X47913Y-41975D01*
X47952Y-42280D01*
X47953Y-42323D01*
X18307Y-42323D02*
X18277Y-42628D01*
X18188Y-42923D01*
X18043Y-43194D01*
X17849Y-43432D01*
X17612Y-43628D01*
X17342Y-43774D01*
X17048Y-43865D01*
X16742Y-43897D01*
X16437Y-43870D01*
X16142Y-43783D01*
X15870Y-43640D01*
X15631Y-43448D01*
X15433Y-43212D01*
X15285Y-42943D01*
X15192Y-42650D01*
X15158Y-42344D01*
X15183Y-42039D01*
X15268Y-41744D01*
X15409Y-41470D01*
X15600Y-41229D01*
X15834Y-41030D01*
X16102Y-40880D01*
X16394Y-40785D01*
X16700Y-40749D01*
X17005Y-40772D01*
X17301Y-40855D01*
X17575Y-40994D01*
X17818Y-41183D01*
X18019Y-41416D01*
X18170Y-41683D01*
X18267Y-41975D01*
X18306Y-42280D01*
X18307Y-42323D01*
X18307Y-28937D02*
X18277Y-29242D01*
X18188Y-29537D01*
X18043Y-29808D01*
X17849Y-30046D01*
X17612Y-30242D01*
X17342Y-30388D01*
X17048Y-30479D01*
X16742Y-30511D01*
X16437Y-30484D01*
X16142Y-30397D01*
X15870Y-30254D01*
X15631Y-30062D01*
X15433Y-29826D01*
X15285Y-29557D01*
X15192Y-29264D01*
X15158Y-28958D01*
X15183Y-28653D01*
X15268Y-28358D01*
X15409Y-28084D01*
X15600Y-27843D01*
X15834Y-27644D01*
X16102Y-27494D01*
X16394Y-27399D01*
X16700Y-27363D01*
X17005Y-27386D01*
X17301Y-27469D01*
X17575Y-27608D01*
X17818Y-27797D01*
X18019Y-28030D01*
X18170Y-28297D01*
X18267Y-28589D01*
X18306Y-28894D01*
X18307Y-28937D01*
X47953Y-28937D02*
X47923Y-29242D01*
X47834Y-29537D01*
X47689Y-29808D01*
X47495Y-30046D01*
X47258Y-30242D01*
X46988Y-30388D01*
X46694Y-30479D01*
X46388Y-30511D01*
X46083Y-30484D01*
X45788Y-30397D01*
X45516Y-30254D01*
X45277Y-30062D01*
X45079Y-29826D01*
X44931Y-29557D01*
X44838Y-29264D01*
X44804Y-28958D01*
X44829Y-28653D01*
X44914Y-28358D01*
X45055Y-28084D01*
X45246Y-27843D01*
X45480Y-27644D01*
X45748Y-27494D01*
X46040Y-27399D01*
X46346Y-27363D01*
X46651Y-27386D01*
X46947Y-27469D01*
X47221Y-27608D01*
X47464Y-27797D01*
X47665Y-28030D01*
X47816Y-28297D01*
X47913Y-28589D01*
X47952Y-28894D01*
X47953Y-28937D01*
X47953Y-16732D02*
X47923Y-17037D01*
X47834Y-17332D01*
X47689Y-17603D01*
X47495Y-17841D01*
X47258Y-18037D01*
X46988Y-18183D01*
X46694Y-18274D01*
X46388Y-18306D01*
X46083Y-18279D01*
X45788Y-18192D01*
X45516Y-18049D01*
X45277Y-17857D01*
X45079Y-17621D01*
X44931Y-17352D01*
X44838Y-17059D01*
X44804Y-16753D01*
X44829Y-16448D01*
X44914Y-16153D01*
X45055Y-15879D01*
X45246Y-15638D01*
X45480Y-15439D01*
X45748Y-15289D01*
X46040Y-15194D01*
X46346Y-15158D01*
X46651Y-15181D01*
X46947Y-15264D01*
X47221Y-15403D01*
X47464Y-15592D01*
X47665Y-15825D01*
X47816Y-16092D01*
X47913Y-16384D01*
X47952Y-16689D01*
X47953Y-16732D01*
X18307Y-16732D02*
X18277Y-17037D01*
X18188Y-17332D01*
X18043Y-17603D01*
X17849Y-17841D01*
X17612Y-18037D01*
X17342Y-18183D01*
X17048Y-18274D01*
X16742Y-18306D01*
X16437Y-18279D01*
X16142Y-18192D01*
X15870Y-18049D01*
X15631Y-17857D01*
X15433Y-17621D01*
X15285Y-17352D01*
X15192Y-17059D01*
X15158Y-16753D01*
X15183Y-16448D01*
X15268Y-16153D01*
X15409Y-15879D01*
X15600Y-15638D01*
X15834Y-15439D01*
X16102Y-15289D01*
X16394Y-15194D01*
X16700Y-15158D01*
X17005Y-15181D01*
X17301Y-15264D01*
X17575Y-15403D01*
X17818Y-15592D01*
X18019Y-15825D01*
X18170Y-16092D01*
X18267Y-16384D01*
X18306Y-16689D01*
X18307Y-16732D01*
G54D12*
X24600Y-19000D02*
X24200Y-19000D01*
X24200Y-19000D02*
X24200Y-19400D01*
X24200Y-19400D02*
X21000Y-19400D01*
X21000Y-19400D02*
X21000Y-18600D01*
X21000Y-18600D02*
X24200Y-18600D01*
X24200Y-18600D02*
X24200Y-19000D01*
X24200Y-19200D02*
X24000Y-19400D01*
X20600Y-19000D02*
X21000Y-19000D01*
X20600Y-17400D02*
X21000Y-17400D01*
X21000Y-17400D02*
X21000Y-17000D01*
X21000Y-17000D02*
X24200Y-17000D01*
X24200Y-17000D02*
X24200Y-17800D01*
X24200Y-17800D02*
X21000Y-17800D01*
X21000Y-17800D02*
X21000Y-17400D01*
X21000Y-17200D02*
X21200Y-17000D01*
X24600Y-17400D02*
X24200Y-17400D01*
X20600Y-16600D02*
X21000Y-16600D01*
X21000Y-16600D02*
X21000Y-16200D01*
X21000Y-16200D02*
X24200Y-16200D01*
X24200Y-16200D02*
X24200Y-17000D01*
X24200Y-17000D02*
X21000Y-17000D01*
X21000Y-17000D02*
X21000Y-16600D01*
X21000Y-16400D02*
X21200Y-16200D01*
X24600Y-16600D02*
X24200Y-16600D01*
X24961Y-19746D02*
X22839Y-19746D01*
X22839Y-19746D02*
X22486Y-20100D01*
X22486Y-20100D02*
X22486Y-20807D01*
X22486Y-20807D02*
X23193Y-21514D01*
X23193Y-21514D02*
X24607Y-21514D01*
X24607Y-21514D02*
X25314Y-20807D01*
X25314Y-20807D02*
X25314Y-20100D01*
X25314Y-20100D02*
X24961Y-19746D01*
X21961Y-19746D02*
X19839Y-19746D01*
X19839Y-19746D02*
X19486Y-20100D01*
X19486Y-20100D02*
X19486Y-20807D01*
X19486Y-20807D02*
X20193Y-21514D01*
X20193Y-21514D02*
X21607Y-21514D01*
X21607Y-21514D02*
X22314Y-20807D01*
X22314Y-20807D02*
X22314Y-20100D01*
X22314Y-20100D02*
X21961Y-19746D01*
X26846Y-16539D02*
X26846Y-18661D01*
X26846Y-18661D02*
X27200Y-19014D01*
X27200Y-19014D02*
X27907Y-19014D01*
X27907Y-19014D02*
X28614Y-18307D01*
X28614Y-18307D02*
X28614Y-16893D01*
X28614Y-16893D02*
X27907Y-16186D01*
X27907Y-16186D02*
X27200Y-16186D01*
X27200Y-16186D02*
X26846Y-16539D01*
X46800Y-21600D02*
X45800Y-21600D01*
X45800Y-21600D02*
X45800Y-19600D01*
X45800Y-19600D02*
X46800Y-19600D01*
X46800Y-19600D02*
X46800Y-21600D01*
G54D13*
X44800Y-26500D02*
X44800Y-23500D01*
X46800Y-23500D02*
X46800Y-26500D01*
X46800Y-26500D02*
X44800Y-26500D01*
X44800Y-23500D02*
X46800Y-23500D01*
X44661Y-22328D02*
X44609Y-22343D01*
X44537Y-22340D01*
X44432Y-22335D01*
X44380Y-22350D01*
X44346Y-22384D01*
X44455Y-22460D02*
X44403Y-22474D01*
X44332Y-22471D01*
X44241Y-22414D01*
X44112Y-22285D01*
X44055Y-22193D01*
X44052Y-22123D01*
X44067Y-22071D01*
X44134Y-22003D01*
X44186Y-21988D01*
X44257Y-21991D01*
X44348Y-22048D01*
X44477Y-22178D01*
X44535Y-22269D01*
X44537Y-22340D01*
X44523Y-22392D01*
X44455Y-22460D01*
X44944Y-21971D02*
X44742Y-22174D01*
X44843Y-22072D02*
X44454Y-21684D01*
X44475Y-21773D01*
X44479Y-21843D01*
X44464Y-21896D01*
X17223Y-32969D02*
X16673Y-32969D01*
X16673Y-32778D01*
X16699Y-32731D01*
X16725Y-32707D01*
X16777Y-32683D01*
X16856Y-32683D01*
X16908Y-32707D01*
X16935Y-32731D01*
X16961Y-32778D01*
X16961Y-32969D01*
X17223Y-32207D02*
X17223Y-32493D01*
X17223Y-32350D02*
X16673Y-32350D01*
X16751Y-32398D01*
X16804Y-32445D01*
X16830Y-32493D01*
X17273Y-21069D02*
X16723Y-21069D01*
X16723Y-20878D01*
X16749Y-20831D01*
X16775Y-20807D01*
X16827Y-20783D01*
X16906Y-20783D01*
X16958Y-20807D01*
X16985Y-20831D01*
X17011Y-20878D01*
X17011Y-21069D01*
X16775Y-20593D02*
X16749Y-20569D01*
X16723Y-20521D01*
X16723Y-20402D01*
X16749Y-20355D01*
X16775Y-20331D01*
X16827Y-20307D01*
X16880Y-20307D01*
X16958Y-20331D01*
X17273Y-20617D01*
X17273Y-20307D01*
G54D14*
X17243Y-26340D02*
X16643Y-26340D01*
X16700Y-26169D02*
X16671Y-26150D01*
X16643Y-26112D01*
X16643Y-26016D01*
X16671Y-25978D01*
X16700Y-25959D01*
X16757Y-25940D01*
X16814Y-25940D01*
X16900Y-25959D01*
X17243Y-26188D01*
X17243Y-25940D01*
X17186Y-25540D02*
X17214Y-25559D01*
X17243Y-25616D01*
X17243Y-25654D01*
X17214Y-25712D01*
X17157Y-25750D01*
X17100Y-25769D01*
X16986Y-25788D01*
X16900Y-25788D01*
X16786Y-25769D01*
X16729Y-25750D01*
X16671Y-25712D01*
X16643Y-25654D01*
X16643Y-25616D01*
X16671Y-25559D01*
X16700Y-25540D01*
G54D13*
X30034Y-30535D02*
X29867Y-30535D01*
X29867Y-30823D02*
X29867Y-30273D01*
X30105Y-30273D01*
X30558Y-30823D02*
X30272Y-30823D01*
X30415Y-30823D02*
X30415Y-30273D01*
X30367Y-30351D01*
X30320Y-30404D01*
X30272Y-30430D01*
X36312Y-25823D02*
X36312Y-25273D01*
X36836Y-25770D02*
X36812Y-25796D01*
X36741Y-25823D01*
X36693Y-25823D01*
X36621Y-25796D01*
X36574Y-25744D01*
X36550Y-25692D01*
X36526Y-25587D01*
X36526Y-25508D01*
X36550Y-25404D01*
X36574Y-25351D01*
X36621Y-25299D01*
X36693Y-25273D01*
X36741Y-25273D01*
X36812Y-25299D01*
X36836Y-25325D01*
X37312Y-25823D02*
X37026Y-25823D01*
X37169Y-25823D02*
X37169Y-25273D01*
X37121Y-25351D01*
X37074Y-25404D01*
X37026Y-25430D01*
X28819Y-20673D02*
X28819Y-21118D01*
X28843Y-21170D01*
X28867Y-21196D01*
X28914Y-21223D01*
X29010Y-21223D01*
X29057Y-21196D01*
X29081Y-21170D01*
X29105Y-21118D01*
X29105Y-20673D01*
X29605Y-21223D02*
X29319Y-21223D01*
X29462Y-21223D02*
X29462Y-20673D01*
X29414Y-20751D01*
X29367Y-20804D01*
X29319Y-20830D01*
X39619Y-27573D02*
X39619Y-28018D01*
X39643Y-28070D01*
X39667Y-28096D01*
X39714Y-28123D01*
X39810Y-28123D01*
X39857Y-28096D01*
X39881Y-28070D01*
X39905Y-28018D01*
X39905Y-27573D01*
X40119Y-27625D02*
X40143Y-27599D01*
X40191Y-27573D01*
X40310Y-27573D01*
X40357Y-27599D01*
X40381Y-27625D01*
X40405Y-27677D01*
X40405Y-27730D01*
X40381Y-27808D01*
X40095Y-28123D01*
X40405Y-28123D01*
G54D15*
X40007Y-23142D02*
X40007Y-22913D01*
X40121Y-23027D02*
X39893Y-23027D01*
G54D13*
X20673Y-29981D02*
X21118Y-29981D01*
X21170Y-29957D01*
X21196Y-29933D01*
X21223Y-29886D01*
X21223Y-29790D01*
X21196Y-29743D01*
X21170Y-29719D01*
X21118Y-29695D01*
X20673Y-29695D01*
X20856Y-29243D02*
X21223Y-29243D01*
X20646Y-29362D02*
X21039Y-29481D01*
X21039Y-29171D01*
X25823Y-19169D02*
X25273Y-19169D01*
X25273Y-18978D01*
X25299Y-18931D01*
X25325Y-18907D01*
X25377Y-18883D01*
X25456Y-18883D01*
X25508Y-18907D01*
X25535Y-18931D01*
X25561Y-18978D01*
X25561Y-19169D01*
X25273Y-18717D02*
X25273Y-18383D01*
X25823Y-18598D01*
X19417Y-18423D02*
X19250Y-18161D01*
X19131Y-18423D02*
X19131Y-17873D01*
X19322Y-17873D01*
X19369Y-17899D01*
X19393Y-17925D01*
X19417Y-17977D01*
X19417Y-18056D01*
X19393Y-18108D01*
X19369Y-18135D01*
X19322Y-18161D01*
X19131Y-18161D01*
X19893Y-18423D02*
X19607Y-18423D01*
X19750Y-18423D02*
X19750Y-17873D01*
X19702Y-17951D01*
X19655Y-18004D01*
X19607Y-18030D01*
X19823Y-26883D02*
X19561Y-27050D01*
X19823Y-27169D02*
X19273Y-27169D01*
X19273Y-26978D01*
X19299Y-26931D01*
X19325Y-26907D01*
X19377Y-26883D01*
X19456Y-26883D01*
X19508Y-26907D01*
X19535Y-26931D01*
X19561Y-26978D01*
X19561Y-27169D01*
X19325Y-26693D02*
X19299Y-26669D01*
X19273Y-26621D01*
X19273Y-26502D01*
X19299Y-26455D01*
X19325Y-26431D01*
X19377Y-26407D01*
X19430Y-26407D01*
X19508Y-26431D01*
X19823Y-26717D01*
X19823Y-26407D01*
X19417Y-19223D02*
X19250Y-18961D01*
X19131Y-19223D02*
X19131Y-18673D01*
X19322Y-18673D01*
X19369Y-18699D01*
X19393Y-18725D01*
X19417Y-18777D01*
X19417Y-18856D01*
X19393Y-18908D01*
X19369Y-18935D01*
X19322Y-18961D01*
X19131Y-18961D01*
X19583Y-18673D02*
X19893Y-18673D01*
X19726Y-18882D01*
X19798Y-18882D01*
X19845Y-18908D01*
X19869Y-18935D01*
X19893Y-18987D01*
X19893Y-19118D01*
X19869Y-19170D01*
X19845Y-19196D01*
X19798Y-19223D01*
X19655Y-19223D01*
X19607Y-19196D01*
X19583Y-19170D01*
X19417Y-17623D02*
X19250Y-17361D01*
X19131Y-17623D02*
X19131Y-17073D01*
X19322Y-17073D01*
X19369Y-17099D01*
X19393Y-17125D01*
X19417Y-17177D01*
X19417Y-17256D01*
X19393Y-17308D01*
X19369Y-17335D01*
X19322Y-17361D01*
X19131Y-17361D01*
X19845Y-17256D02*
X19845Y-17623D01*
X19726Y-17046D02*
X19607Y-17439D01*
X19917Y-17439D01*
X19417Y-16823D02*
X19250Y-16561D01*
X19131Y-16823D02*
X19131Y-16273D01*
X19322Y-16273D01*
X19369Y-16299D01*
X19393Y-16325D01*
X19417Y-16377D01*
X19417Y-16456D01*
X19393Y-16508D01*
X19369Y-16535D01*
X19322Y-16561D01*
X19131Y-16561D01*
X19869Y-16273D02*
X19631Y-16273D01*
X19607Y-16535D01*
X19631Y-16508D01*
X19679Y-16482D01*
X19798Y-16482D01*
X19845Y-16508D01*
X19869Y-16535D01*
X19893Y-16587D01*
X19893Y-16718D01*
X19869Y-16770D01*
X19845Y-16796D01*
X19798Y-16823D01*
X19679Y-16823D01*
X19631Y-16796D01*
X19607Y-16770D01*
X23772Y-22261D02*
X23757Y-22209D01*
X23760Y-22137D01*
X23765Y-22032D01*
X23750Y-21980D01*
X23716Y-21946D01*
X23640Y-22055D02*
X23626Y-22003D01*
X23629Y-21932D01*
X23686Y-21841D01*
X23815Y-21712D01*
X23907Y-21655D01*
X23977Y-21652D01*
X24029Y-21667D01*
X24097Y-21734D01*
X24112Y-21786D01*
X24109Y-21857D01*
X24052Y-21948D01*
X23922Y-22077D01*
X23831Y-22135D01*
X23760Y-22137D01*
X23708Y-22123D01*
X23640Y-22055D01*
X24279Y-21990D02*
X24314Y-21988D01*
X24366Y-22004D01*
X24450Y-22088D01*
X24465Y-22140D01*
X24464Y-22175D01*
X24444Y-22229D01*
X24407Y-22266D01*
X24334Y-22304D01*
X23909Y-22325D01*
X24129Y-22544D01*
X20672Y-22261D02*
X20657Y-22209D01*
X20660Y-22137D01*
X20665Y-22032D01*
X20650Y-21980D01*
X20616Y-21946D01*
X20540Y-22055D02*
X20526Y-22003D01*
X20529Y-21932D01*
X20586Y-21841D01*
X20715Y-21712D01*
X20807Y-21655D01*
X20877Y-21652D01*
X20929Y-21667D01*
X20997Y-21734D01*
X21012Y-21786D01*
X21009Y-21857D01*
X20952Y-21948D01*
X20822Y-22077D01*
X20731Y-22135D01*
X20660Y-22137D01*
X20608Y-22123D01*
X20540Y-22055D01*
X21198Y-21936D02*
X21418Y-22155D01*
X21152Y-22185D01*
X21203Y-22236D01*
X21217Y-22287D01*
X21215Y-22323D01*
X21196Y-22377D01*
X21103Y-22470D01*
X21049Y-22490D01*
X21014Y-22491D01*
X20962Y-22477D01*
X20860Y-22376D01*
X20846Y-22323D01*
X20847Y-22287D01*
X28861Y-19228D02*
X28809Y-19243D01*
X28737Y-19240D01*
X28632Y-19235D01*
X28580Y-19250D01*
X28546Y-19284D01*
X28655Y-19360D02*
X28603Y-19374D01*
X28532Y-19371D01*
X28441Y-19314D01*
X28312Y-19185D01*
X28255Y-19093D01*
X28252Y-19023D01*
X28267Y-18971D01*
X28334Y-18903D01*
X28386Y-18888D01*
X28457Y-18891D01*
X28548Y-18948D01*
X28677Y-19078D01*
X28735Y-19169D01*
X28737Y-19240D01*
X28723Y-19292D01*
X28655Y-19360D01*
X28851Y-18646D02*
X29110Y-18905D01*
X28618Y-18581D02*
X28812Y-18943D01*
X29031Y-18724D01*
X45931Y-22423D02*
X45931Y-21873D01*
X46122Y-21873D01*
X46169Y-21899D01*
X46193Y-21925D01*
X46217Y-21977D01*
X46217Y-22056D01*
X46193Y-22108D01*
X46169Y-22135D01*
X46122Y-22161D01*
X45931Y-22161D01*
X46383Y-21873D02*
X46693Y-21873D01*
X46526Y-22082D01*
X46598Y-22082D01*
X46645Y-22108D01*
X46669Y-22135D01*
X46693Y-22187D01*
X46693Y-22318D01*
X46669Y-22370D01*
X46645Y-22396D01*
X46598Y-22423D01*
X46455Y-22423D01*
X46407Y-22396D01*
X46383Y-22370D01*
X45931Y-23323D02*
X45931Y-22773D01*
X46122Y-22773D01*
X46169Y-22799D01*
X46193Y-22825D01*
X46217Y-22877D01*
X46217Y-22956D01*
X46193Y-23008D01*
X46169Y-23035D01*
X46122Y-23061D01*
X45931Y-23061D01*
X46645Y-22956D02*
X46645Y-23323D01*
X46526Y-22746D02*
X46407Y-23139D01*
X46717Y-23139D01*
M02*
