M48
;DRILL file {Pcbnew (2012-apr-16-27)-stable} date Thu 14 Mar 2013 22:03:16 CET
;FORMAT={-:-/ absolute / inch / decimal}
FMAT,2
INCH,TZ
T1C0.020
T2C0.025
T3C0.028
T4C0.032
T5C0.035
T6C0.047
T7C0.098
%
G90
G05
M72
T1
X1.591Y-1.626
X1.591Y-1.720
X1.591Y-2.847
X1.591Y-2.941
X1.591Y-4.185
X1.591Y-4.280
X1.673Y-1.579
X1.673Y-1.768
X1.673Y-2.799
X1.673Y-2.988
X1.673Y-4.138
X1.673Y-4.327
X1.756Y-1.626
X1.756Y-1.720
X1.756Y-2.847
X1.756Y-2.941
X1.756Y-4.185
X1.756Y-4.280
X4.543Y-1.673
X4.555Y-2.847
X4.555Y-2.941
X4.555Y-4.185
X4.555Y-4.280
X4.591Y-1.591
X4.591Y-1.756
X4.638Y-2.799
X4.638Y-2.988
X4.638Y-4.138
X4.638Y-4.327
X4.685Y-1.591
X4.685Y-1.756
X4.721Y-2.847
X4.721Y-2.941
X4.721Y-4.185
X4.721Y-4.280
X4.732Y-1.673
T2
X2.120Y-2.200
X2.120Y-2.475
X3.460Y-2.100
X3.915Y-2.040
T3
X2.947Y-3.661
X3.352Y-3.661
T4
X1.695Y-3.395
X1.695Y-3.495
X1.695Y-3.595
X1.695Y-3.695
X1.695Y-3.795
X1.695Y-3.895
X1.700Y-2.175
X1.700Y-2.275
X1.700Y-2.375
X1.700Y-2.475
X1.800Y-2.760
X2.120Y-1.762
X2.120Y-1.900
X2.200Y-2.760
X2.200Y-2.860
X2.200Y-3.060
X2.210Y-2.350
X2.210Y-2.650
X2.310Y-2.350
X2.310Y-2.650
X2.410Y-2.350
X2.410Y-2.650
X2.510Y-1.900
X2.510Y-2.350
X2.510Y-2.650
X2.610Y-1.900
X2.610Y-2.350
X2.610Y-2.650
X2.670Y-1.670
X2.670Y-1.770
X2.710Y-2.350
X2.710Y-2.650
X2.770Y-1.720
X2.810Y-2.200
X2.810Y-2.350
X2.810Y-2.650
X2.910Y-2.350
X2.910Y-2.650
X2.910Y-2.940
X2.915Y-1.673
X2.940Y-1.880
X3.010Y-2.200
X3.010Y-2.350
X3.010Y-2.650
X3.010Y-2.940
X3.015Y-1.673
X3.110Y-2.350
X3.110Y-2.650
X3.110Y-2.940
X3.115Y-1.673
X3.210Y-2.350
X3.210Y-2.650
X3.215Y-1.673
X3.310Y-2.350
X3.310Y-2.650
X3.315Y-1.673
X3.340Y-1.880
X3.410Y-2.350
X3.410Y-2.650
X3.415Y-1.673
X3.510Y-2.350
X3.510Y-2.650
X3.515Y-1.673
X3.615Y-1.673
X3.715Y-1.673
X3.815Y-1.673
X3.915Y-1.673
X4.015Y-1.673
X4.115Y-1.673
X4.215Y-1.673
X4.315Y-1.673
X4.415Y-1.673
T5
X2.947Y-3.533
X2.947Y-3.789
X3.352Y-3.533
X3.352Y-3.789
T6
X2.037Y-3.287
X2.037Y-3.484
X2.037Y-3.839
X2.037Y-4.035
X2.530Y-3.287
X2.530Y-3.484
X2.530Y-3.839
X2.530Y-4.035
X3.770Y-3.287
X3.770Y-3.484
X3.770Y-3.839
X3.770Y-4.035
X4.262Y-3.287
X4.262Y-3.484
X4.262Y-3.839
X4.262Y-4.035
T7
X1.673Y-1.673
X1.673Y-2.894
X1.673Y-4.232
X4.638Y-1.673
X4.638Y-2.894
X4.638Y-4.232
T0
M30
