G04 (created by PCBNEW-RS274X (2012-apr-16-27)-stable) date Thu 14 Mar 2013 22:03:03 CET*
G01*
G70*
G90*
%MOIN*%
G04 Gerber Fmt 3.4, Leading zero omitted, Abs format*
%FSLAX34Y34*%
G04 APERTURE LIST*
%ADD10C,0.006000*%
%ADD11R,0.055000X0.055000*%
%ADD12C,0.055000*%
%ADD13C,0.060000*%
%ADD14O,0.062000X0.090000*%
%ADD15R,0.062000X0.090000*%
%ADD16C,0.078700*%
%ADD17C,0.149600*%
%ADD18C,0.050000*%
%ADD19C,0.068900*%
%ADD20C,0.059100*%
%ADD21C,0.035000*%
%ADD22C,0.019700*%
G04 APERTURE END LIST*
G54D10*
G54D11*
X16950Y-33950D03*
G54D12*
X16950Y-34950D03*
X16950Y-35950D03*
X16950Y-36950D03*
X16950Y-37950D03*
X16950Y-38950D03*
G54D11*
X17000Y-24750D03*
G54D12*
X17000Y-23750D03*
X17000Y-22750D03*
X17000Y-21750D03*
G54D11*
X29100Y-29400D03*
G54D12*
X30100Y-29400D03*
X31100Y-29400D03*
G54D11*
X44150Y-16732D03*
G54D12*
X43150Y-16732D03*
X42150Y-16732D03*
X41150Y-16732D03*
X40150Y-16732D03*
X39150Y-16732D03*
X38150Y-16732D03*
X37150Y-16732D03*
X36150Y-16732D03*
X35150Y-16732D03*
X34150Y-16732D03*
X33150Y-16732D03*
X32150Y-16732D03*
X31150Y-16732D03*
X30150Y-16732D03*
G54D13*
X29150Y-16732D03*
G54D14*
X23100Y-26500D03*
X24100Y-26500D03*
X25100Y-26500D03*
X26100Y-26500D03*
X27100Y-26500D03*
X28100Y-26500D03*
X29100Y-26500D03*
X30100Y-26500D03*
X31100Y-26500D03*
X32100Y-26500D03*
X33100Y-26500D03*
X34100Y-26500D03*
X35100Y-26500D03*
G54D15*
X22100Y-26500D03*
G54D14*
X35100Y-23500D03*
X34100Y-23500D03*
X33100Y-23500D03*
X32100Y-23500D03*
X31100Y-23500D03*
X30100Y-23500D03*
X29100Y-23500D03*
X28100Y-23500D03*
X27100Y-23500D03*
X26100Y-23500D03*
X25100Y-23500D03*
X24100Y-23500D03*
X23100Y-23500D03*
X22100Y-23500D03*
G54D12*
X30100Y-22000D03*
X28100Y-22000D03*
G54D11*
X21200Y-19000D03*
G54D12*
X21200Y-17622D03*
X22000Y-28600D03*
X22000Y-30600D03*
G54D16*
X20374Y-34842D03*
X25296Y-34842D03*
X20374Y-32874D03*
X25296Y-32874D03*
X20374Y-40354D03*
X25296Y-40354D03*
X20374Y-38386D03*
X25296Y-38386D03*
X37696Y-40354D03*
X42618Y-40354D03*
X37696Y-38386D03*
X42618Y-38386D03*
X42618Y-32874D03*
X37696Y-32874D03*
X42618Y-34842D03*
X37696Y-34842D03*
G54D17*
X16732Y-16732D03*
X46378Y-16732D03*
X46378Y-28937D03*
X16732Y-28937D03*
X16732Y-42323D03*
X46378Y-42323D03*
G54D11*
X25100Y-19000D03*
G54D12*
X26100Y-19000D03*
G54D18*
X27700Y-17200D03*
X26700Y-16700D03*
X26700Y-17700D03*
G54D19*
X29468Y-37893D03*
G54D20*
X29468Y-36614D03*
G54D19*
X29468Y-35334D03*
X33524Y-37893D03*
G54D20*
X33524Y-36614D03*
G54D19*
X33524Y-35334D03*
G54D13*
X33400Y-18800D03*
X29400Y-18800D03*
X18000Y-27600D03*
X22000Y-27600D03*
G54D21*
X21200Y-24750D03*
X21200Y-22000D03*
X34600Y-21000D03*
X39150Y-20400D03*
G54D22*
X30100Y-22000D02*
X30100Y-23500D01*
X21200Y-24750D02*
X21200Y-24750D01*
X21200Y-19000D02*
X21200Y-22000D01*
X29100Y-24500D02*
X29000Y-24600D01*
X28850Y-24750D02*
X29000Y-24600D01*
X42050Y-24750D02*
X28850Y-24750D01*
X30100Y-23500D02*
X29100Y-23500D01*
X18000Y-24750D02*
X21200Y-24750D01*
X43150Y-16732D02*
X43150Y-23650D01*
X17000Y-24750D02*
X18000Y-24750D01*
X18000Y-27600D02*
X18000Y-24750D01*
X21200Y-24750D02*
X21200Y-24750D01*
X28100Y-25500D02*
X28100Y-26500D01*
X18000Y-24800D02*
X18000Y-24750D01*
X29100Y-23500D02*
X29100Y-24500D01*
X18000Y-34900D02*
X16950Y-35950D01*
X43150Y-23650D02*
X42050Y-24750D01*
X21200Y-24750D02*
X28850Y-24750D01*
X18000Y-24750D02*
X18000Y-24800D01*
X18000Y-34800D02*
X18000Y-27600D01*
X29000Y-24600D02*
X28100Y-25500D01*
X18000Y-34800D02*
X18000Y-34900D01*
X30200Y-38400D02*
X30200Y-38600D01*
X26800Y-29600D02*
X26100Y-28900D01*
X28414Y-36614D02*
X26800Y-35000D01*
X29614Y-36614D02*
X30200Y-37200D01*
X29468Y-36614D02*
X29614Y-36614D01*
X26800Y-35000D02*
X26800Y-29600D01*
X30200Y-37200D02*
X30200Y-38400D01*
X26100Y-28900D02*
X26100Y-26500D01*
X20374Y-38386D02*
X25296Y-38386D01*
X25710Y-38800D02*
X25296Y-38386D01*
X29468Y-36614D02*
X28414Y-36614D01*
X30200Y-38600D02*
X30000Y-38800D01*
X30000Y-38800D02*
X25710Y-38800D01*
X42618Y-38386D02*
X37696Y-38386D01*
X37696Y-38386D02*
X34017Y-38386D01*
X34017Y-38386D02*
X33524Y-37893D01*
X32100Y-26500D02*
X32100Y-36469D01*
X32100Y-36469D02*
X33524Y-37893D01*
X36786Y-36614D02*
X33524Y-36614D01*
X42618Y-34842D02*
X37696Y-34842D01*
X32600Y-36000D02*
X32600Y-27000D01*
X37696Y-34842D02*
X37696Y-35704D01*
X37696Y-35704D02*
X36786Y-36614D01*
X33524Y-36614D02*
X33214Y-36614D01*
X33214Y-36614D02*
X32600Y-36000D01*
X32600Y-27000D02*
X33100Y-26500D01*
X26200Y-32800D02*
X26200Y-33400D01*
X26200Y-31800D02*
X26200Y-30000D01*
X26200Y-32000D02*
X26200Y-32800D01*
X26200Y-33400D02*
X26200Y-35000D01*
X26200Y-33400D02*
X26200Y-33000D01*
X26200Y-35000D02*
X26200Y-35746D01*
X20374Y-32874D02*
X25296Y-32874D01*
X26074Y-32874D02*
X25296Y-32874D01*
X26200Y-33000D02*
X26074Y-32874D01*
X26200Y-31800D02*
X26200Y-32000D01*
X28347Y-37893D02*
X26200Y-35746D01*
X26200Y-30000D02*
X25100Y-28900D01*
X29468Y-37893D02*
X28347Y-37893D01*
X25100Y-28900D02*
X25100Y-26500D01*
X37696Y-40354D02*
X25296Y-40354D01*
X19200Y-37800D02*
X19200Y-39800D01*
X35100Y-32100D02*
X35100Y-26500D01*
X35874Y-32874D02*
X35100Y-32100D01*
X20374Y-34842D02*
X25296Y-34842D01*
X20374Y-34842D02*
X20374Y-36626D01*
X19200Y-39800D02*
X19754Y-40354D01*
X43600Y-39372D02*
X42618Y-40354D01*
X42618Y-32874D02*
X42874Y-32874D01*
X43600Y-33600D02*
X43600Y-39372D01*
X20374Y-36626D02*
X19200Y-37800D01*
X20374Y-40354D02*
X25296Y-40354D01*
X37696Y-32874D02*
X35874Y-32874D01*
X42874Y-32874D02*
X43600Y-33600D01*
X42618Y-32874D02*
X37696Y-32874D01*
X19754Y-40354D02*
X20374Y-40354D01*
X42618Y-40354D02*
X37696Y-40354D01*
X29402Y-35400D02*
X29468Y-35334D01*
X27400Y-29000D02*
X27100Y-28700D01*
X28200Y-35400D02*
X29402Y-35400D01*
X27400Y-29400D02*
X27400Y-29000D01*
X27400Y-29400D02*
X27400Y-34600D01*
X27100Y-28700D02*
X27100Y-26500D01*
X27400Y-34600D02*
X28200Y-35400D01*
X33524Y-35324D02*
X33200Y-35000D01*
X33200Y-27400D02*
X34100Y-26500D01*
X33200Y-35000D02*
X33200Y-27400D01*
X33524Y-35334D02*
X33524Y-35324D01*
X34100Y-22700D02*
X34400Y-22400D01*
X42150Y-16732D02*
X42150Y-21650D01*
X34400Y-22400D02*
X41400Y-22400D01*
X41400Y-22400D02*
X42150Y-21650D01*
X34100Y-23500D02*
X34100Y-22700D01*
X27100Y-21500D02*
X27100Y-23500D01*
X27600Y-21000D02*
X27100Y-21500D01*
X34400Y-21000D02*
X27600Y-21000D01*
X34600Y-21000D02*
X34400Y-21000D01*
X25800Y-20400D02*
X25100Y-21100D01*
X25100Y-21100D02*
X25100Y-23500D01*
X39150Y-20400D02*
X38800Y-20400D01*
X38800Y-20400D02*
X25800Y-20400D01*
X25000Y-19800D02*
X40800Y-19800D01*
X40800Y-19800D02*
X41150Y-19450D01*
X24100Y-20700D02*
X25000Y-19800D01*
X41150Y-19450D02*
X41150Y-16732D01*
X24100Y-23500D02*
X24100Y-20700D01*
X22100Y-27500D02*
X22100Y-26500D01*
X22000Y-27600D02*
X22100Y-27500D01*
X22000Y-28600D02*
X22000Y-27600D01*
X19400Y-36500D02*
X16950Y-38950D01*
X19400Y-36400D02*
X19400Y-31000D01*
X19400Y-36400D02*
X19400Y-36500D01*
X22000Y-30600D02*
X19800Y-30600D01*
X19400Y-31000D02*
X19800Y-30600D01*
X18600Y-35300D02*
X16950Y-36950D01*
X19200Y-29400D02*
X18600Y-30000D01*
X22600Y-29400D02*
X19200Y-29400D01*
X23100Y-28900D02*
X22600Y-29400D01*
X23100Y-26500D02*
X23100Y-28900D01*
X18600Y-34800D02*
X18600Y-35300D01*
X18600Y-30000D02*
X18600Y-34800D01*
X17000Y-23750D02*
X21850Y-23750D01*
X21850Y-23750D02*
X22100Y-23500D01*
X22350Y-22750D02*
X22750Y-22750D01*
X21200Y-22750D02*
X22350Y-22750D01*
X22750Y-22750D02*
X23100Y-23100D01*
X23100Y-23100D02*
X23100Y-23500D01*
X21200Y-22750D02*
X17000Y-22750D01*
X24100Y-28900D02*
X24100Y-26500D01*
X19000Y-30400D02*
X19600Y-29800D01*
X19000Y-35900D02*
X16950Y-37950D01*
X19000Y-35400D02*
X19000Y-30400D01*
X23200Y-29800D02*
X24100Y-28900D01*
X19000Y-35400D02*
X19000Y-35900D01*
X19600Y-29800D02*
X23200Y-29800D01*
X27700Y-17200D02*
X29300Y-18800D01*
X29300Y-18800D02*
X29400Y-18800D01*
X31100Y-29400D02*
X31100Y-26500D01*
X30100Y-26500D02*
X30100Y-27700D01*
X29100Y-28700D02*
X29100Y-29400D01*
X30100Y-27700D02*
X29100Y-28700D01*
X29150Y-16732D02*
X29118Y-16700D01*
X29118Y-16700D02*
X26700Y-16700D01*
M02*
