G04 (created by PCBNEW-RS274X (2012-apr-16-27)-stable) date Sun 24 Mar 2013 21:35:17 CET*
G01*
G70*
G90*
%MOIN*%
G04 Gerber Fmt 3.4, Leading zero omitted, Abs format*
%FSLAX34Y34*%
G04 APERTURE LIST*
%ADD10C,0.006000*%
%ADD11C,0.055000*%
%ADD12R,0.055000X0.055000*%
%ADD13C,0.060000*%
%ADD14O,0.062000X0.090000*%
%ADD15R,0.062000X0.090000*%
%ADD16C,0.078700*%
%ADD17C,0.246100*%
%ADD18C,0.086600*%
%ADD19R,0.060000X0.060000*%
%ADD20C,0.035000*%
%ADD21C,0.019700*%
%ADD22C,0.010000*%
G04 APERTURE END LIST*
G54D10*
G54D11*
X43000Y-21507D03*
X43707Y-20800D03*
G54D10*
G36*
X43000Y-19704D02*
X43389Y-20093D01*
X43000Y-20482D01*
X42611Y-20093D01*
X43000Y-19704D01*
X43000Y-19704D01*
G37*
G54D12*
X16950Y-33950D03*
G54D11*
X16950Y-34950D03*
X16950Y-35950D03*
X16950Y-36950D03*
X16950Y-37950D03*
X16950Y-38950D03*
G54D12*
X17000Y-24700D03*
G54D11*
X17000Y-23700D03*
X17000Y-22700D03*
X17000Y-21700D03*
G54D12*
X29100Y-29400D03*
G54D11*
X30100Y-29400D03*
X31100Y-29400D03*
G54D12*
X44150Y-16732D03*
G54D11*
X43150Y-16732D03*
X42150Y-16732D03*
X41150Y-16732D03*
X40150Y-16732D03*
X39150Y-16732D03*
X38150Y-16732D03*
X37150Y-16732D03*
X36150Y-16732D03*
X35150Y-16732D03*
X34150Y-16732D03*
X33150Y-16732D03*
X32150Y-16732D03*
X31150Y-16732D03*
X30150Y-16732D03*
G54D13*
X29150Y-16732D03*
G54D14*
X23100Y-26500D03*
X24100Y-26500D03*
X25100Y-26500D03*
X26100Y-26500D03*
X27100Y-26500D03*
X28100Y-26500D03*
X29100Y-26500D03*
X30100Y-26500D03*
X31100Y-26500D03*
X32100Y-26500D03*
X33100Y-26500D03*
X34100Y-26500D03*
X35100Y-26500D03*
G54D15*
X22100Y-26500D03*
G54D14*
X35100Y-23500D03*
X34100Y-23500D03*
X33100Y-23500D03*
X32100Y-23500D03*
X31100Y-23500D03*
X30100Y-23500D03*
X29100Y-23500D03*
X28100Y-23500D03*
X27100Y-23500D03*
X26100Y-23500D03*
X25100Y-23500D03*
X24100Y-23500D03*
X23100Y-23500D03*
X22100Y-23500D03*
G54D11*
X30100Y-22000D03*
X28100Y-22000D03*
G54D12*
X40000Y-24800D03*
G54D11*
X40000Y-26178D03*
X22000Y-28600D03*
X22000Y-30600D03*
G54D16*
X20374Y-34842D03*
X25296Y-34842D03*
X20374Y-32874D03*
X25296Y-32874D03*
X20374Y-40354D03*
X25296Y-40354D03*
X20374Y-38386D03*
X25296Y-38386D03*
X37696Y-40354D03*
X42618Y-40354D03*
X37696Y-38386D03*
X42618Y-38386D03*
X42618Y-32874D03*
X37696Y-32874D03*
X42618Y-34842D03*
X37696Y-34842D03*
G54D12*
X25800Y-16700D03*
G54D11*
X25800Y-17700D03*
G54D13*
X20600Y-18200D03*
X24600Y-18200D03*
X20400Y-24800D03*
X20400Y-28800D03*
G54D17*
X46378Y-42323D03*
X16732Y-42323D03*
X16732Y-28937D03*
X46378Y-28937D03*
X46378Y-16732D03*
X16732Y-16732D03*
G54D18*
X29468Y-37893D03*
G54D16*
X29468Y-36614D03*
G54D18*
X29468Y-35334D03*
X33524Y-37893D03*
G54D16*
X33524Y-36614D03*
G54D18*
X33524Y-35334D03*
G54D13*
X24600Y-19000D03*
X20600Y-19000D03*
X20600Y-17400D03*
X24600Y-17400D03*
X20600Y-16600D03*
X24600Y-16600D03*
G54D11*
X23193Y-20100D03*
X23900Y-20807D03*
G54D10*
G36*
X24996Y-20100D02*
X24607Y-20489D01*
X24218Y-20100D01*
X24607Y-19711D01*
X24996Y-20100D01*
X24996Y-20100D01*
G37*
G54D11*
X20193Y-20100D03*
X20900Y-20807D03*
G54D10*
G36*
X21996Y-20100D02*
X21607Y-20489D01*
X21218Y-20100D01*
X21607Y-19711D01*
X21996Y-20100D01*
X21996Y-20100D01*
G37*
G54D11*
X27200Y-18307D03*
X27907Y-17600D03*
G54D10*
G36*
X27200Y-16504D02*
X27589Y-16893D01*
X27200Y-17282D01*
X26811Y-16893D01*
X27200Y-16504D01*
X27200Y-16504D01*
G37*
G54D12*
X46300Y-21100D03*
G54D11*
X46300Y-20100D03*
G54D19*
X45300Y-24000D03*
G54D13*
X46300Y-24000D03*
X45300Y-25000D03*
X46300Y-25000D03*
X45300Y-26000D03*
X46300Y-26000D03*
G54D20*
X18200Y-24800D03*
X42200Y-24800D03*
X43600Y-22700D03*
X18200Y-22100D03*
X42200Y-19200D03*
X33800Y-17600D03*
X41600Y-20200D03*
X41600Y-24000D03*
X34600Y-21200D03*
X39100Y-20000D03*
X29300Y-25400D03*
X27100Y-25400D03*
X19500Y-22700D03*
X22600Y-22200D03*
G54D21*
X30100Y-22000D02*
X30100Y-16782D01*
X42200Y-22700D02*
X42200Y-24800D01*
X42200Y-21400D02*
X42200Y-22700D01*
X30100Y-16782D02*
X30150Y-16732D01*
X42200Y-21400D02*
X42200Y-19200D01*
X43600Y-22700D02*
X42200Y-22700D01*
X18200Y-22100D02*
X18200Y-24800D01*
X26100Y-19100D02*
X26100Y-18000D01*
X26100Y-19100D02*
X26100Y-19000D01*
X26100Y-18000D02*
X25800Y-17700D01*
X26100Y-23500D02*
X26100Y-19100D01*
X35000Y-23400D02*
X35100Y-23500D01*
X35000Y-23000D02*
X35000Y-23400D01*
X33800Y-19200D02*
X33800Y-21800D01*
X33800Y-21800D02*
X35000Y-23000D01*
X33800Y-19200D02*
X33800Y-17600D01*
X41600Y-24000D02*
X41600Y-21400D01*
X41600Y-21400D02*
X41600Y-20200D01*
X34600Y-19000D02*
X34600Y-21000D01*
X34600Y-17182D02*
X34150Y-16732D01*
X34600Y-18800D02*
X34600Y-17182D01*
X34600Y-19000D02*
X34600Y-18800D01*
X34600Y-21200D02*
X34600Y-21000D01*
X33150Y-23450D02*
X33150Y-16732D01*
X33100Y-23500D02*
X33150Y-23450D01*
X32100Y-23500D02*
X32100Y-16782D01*
X32100Y-16782D02*
X32150Y-16732D01*
X31150Y-23450D02*
X31100Y-23500D01*
X31150Y-16732D02*
X31150Y-23450D01*
X39100Y-20000D02*
X39150Y-20000D01*
X39150Y-20000D02*
X39150Y-16732D01*
X39150Y-20000D02*
X39100Y-20000D01*
X39100Y-20000D02*
X39150Y-20000D01*
X27100Y-25400D02*
X29300Y-25400D01*
X19500Y-22700D02*
X22100Y-22700D01*
X22100Y-22700D02*
X22600Y-22200D01*
X29150Y-16732D02*
X28989Y-16893D01*
X28989Y-16893D02*
X27200Y-16893D01*
X23900Y-20807D02*
X23900Y-19700D01*
X23900Y-19700D02*
X24600Y-19000D01*
X20900Y-20807D02*
X23900Y-20807D01*
G54D10*
G36*
X47119Y-41117D02*
X46657Y-40925D01*
X46101Y-40925D01*
X45587Y-41137D01*
X45194Y-41530D01*
X44980Y-42044D01*
X44980Y-42600D01*
X45171Y-43064D01*
X44675Y-43064D01*
X44675Y-16844D01*
X44675Y-16620D01*
X44674Y-16506D01*
X44674Y-16407D01*
X44636Y-16316D01*
X44566Y-16246D01*
X44474Y-16208D01*
X44262Y-16207D01*
X44200Y-16269D01*
X44200Y-16682D01*
X44613Y-16682D01*
X44675Y-16620D01*
X44675Y-16844D01*
X44613Y-16782D01*
X44200Y-16782D01*
X44200Y-17195D01*
X44262Y-17257D01*
X44474Y-17256D01*
X44566Y-17218D01*
X44636Y-17148D01*
X44674Y-17057D01*
X44674Y-16958D01*
X44675Y-16844D01*
X44675Y-43064D01*
X44149Y-43064D01*
X44149Y-20888D01*
X44149Y-20712D01*
X44100Y-20593D01*
X44100Y-17195D01*
X44100Y-16782D01*
X44100Y-16682D01*
X44100Y-16269D01*
X44038Y-16207D01*
X43826Y-16208D01*
X43734Y-16246D01*
X43664Y-16316D01*
X43626Y-16407D01*
X43626Y-16506D01*
X43625Y-16620D01*
X43687Y-16682D01*
X44100Y-16682D01*
X44100Y-16782D01*
X43687Y-16782D01*
X43625Y-16844D01*
X43626Y-16958D01*
X43626Y-17057D01*
X43664Y-17148D01*
X43734Y-17218D01*
X43826Y-17256D01*
X44038Y-17257D01*
X44100Y-17195D01*
X44100Y-20593D01*
X44082Y-20550D01*
X43957Y-20425D01*
X43795Y-20358D01*
X43619Y-20358D01*
X43592Y-20369D01*
X43592Y-16820D01*
X43592Y-16644D01*
X43525Y-16482D01*
X43400Y-16357D01*
X43238Y-16290D01*
X43062Y-16290D01*
X42900Y-16357D01*
X42775Y-16482D01*
X42708Y-16644D01*
X42708Y-16820D01*
X42775Y-16982D01*
X42900Y-17107D01*
X43062Y-17174D01*
X43238Y-17174D01*
X43400Y-17107D01*
X43525Y-16982D01*
X43592Y-16820D01*
X43592Y-20369D01*
X43457Y-20425D01*
X43332Y-20550D01*
X43265Y-20712D01*
X43265Y-20888D01*
X43332Y-21050D01*
X43457Y-21175D01*
X43619Y-21242D01*
X43795Y-21242D01*
X43957Y-21175D01*
X44082Y-21050D01*
X44149Y-20888D01*
X44149Y-43064D01*
X43942Y-43064D01*
X43942Y-22768D01*
X43942Y-22632D01*
X43890Y-22506D01*
X43794Y-22410D01*
X43668Y-22358D01*
X43532Y-22358D01*
X43508Y-22367D01*
X43508Y-21638D01*
X43508Y-21376D01*
X43419Y-21192D01*
X43267Y-21056D01*
X43131Y-20999D01*
X43050Y-21047D01*
X43050Y-21457D01*
X43460Y-21457D01*
X43508Y-21376D01*
X43508Y-21638D01*
X43460Y-21557D01*
X43050Y-21557D01*
X43050Y-21967D01*
X43131Y-22015D01*
X43315Y-21926D01*
X43451Y-21774D01*
X43508Y-21638D01*
X43508Y-22367D01*
X43406Y-22410D01*
X43382Y-22434D01*
X42950Y-22434D01*
X42950Y-21967D01*
X42950Y-21557D01*
X42950Y-21457D01*
X42950Y-21047D01*
X42869Y-20999D01*
X42685Y-21088D01*
X42549Y-21240D01*
X42492Y-21376D01*
X42540Y-21457D01*
X42950Y-21457D01*
X42950Y-21557D01*
X42540Y-21557D01*
X42492Y-21638D01*
X42581Y-21822D01*
X42733Y-21958D01*
X42869Y-22015D01*
X42950Y-21967D01*
X42950Y-22434D01*
X42466Y-22434D01*
X42466Y-21400D01*
X42466Y-20182D01*
X42468Y-20188D01*
X42516Y-20235D01*
X42905Y-20624D01*
X42966Y-20650D01*
X43033Y-20649D01*
X43095Y-20625D01*
X43142Y-20577D01*
X43531Y-20188D01*
X43557Y-20127D01*
X43556Y-20060D01*
X43532Y-19998D01*
X43484Y-19951D01*
X43095Y-19562D01*
X43034Y-19536D01*
X42967Y-19537D01*
X42905Y-19561D01*
X42858Y-19609D01*
X42592Y-19875D01*
X42592Y-16820D01*
X42592Y-16644D01*
X42525Y-16482D01*
X42400Y-16357D01*
X42238Y-16290D01*
X42062Y-16290D01*
X41900Y-16357D01*
X41775Y-16482D01*
X41708Y-16644D01*
X41708Y-16820D01*
X41775Y-16982D01*
X41900Y-17107D01*
X42062Y-17174D01*
X42238Y-17174D01*
X42400Y-17107D01*
X42525Y-16982D01*
X42592Y-16820D01*
X42592Y-19875D01*
X42469Y-19998D01*
X42466Y-20005D01*
X42466Y-19418D01*
X42490Y-19394D01*
X42542Y-19268D01*
X42542Y-19132D01*
X42490Y-19006D01*
X42394Y-18910D01*
X42268Y-18858D01*
X42132Y-18858D01*
X42006Y-18910D01*
X41910Y-19006D01*
X41858Y-19132D01*
X41858Y-19268D01*
X41910Y-19394D01*
X41934Y-19418D01*
X41934Y-20112D01*
X41890Y-20006D01*
X41794Y-19910D01*
X41668Y-19858D01*
X41592Y-19858D01*
X41592Y-16820D01*
X41592Y-16644D01*
X41525Y-16482D01*
X41400Y-16357D01*
X41238Y-16290D01*
X41062Y-16290D01*
X40900Y-16357D01*
X40775Y-16482D01*
X40708Y-16644D01*
X40708Y-16820D01*
X40775Y-16982D01*
X40900Y-17107D01*
X41062Y-17174D01*
X41238Y-17174D01*
X41400Y-17107D01*
X41525Y-16982D01*
X41592Y-16820D01*
X41592Y-19858D01*
X41532Y-19858D01*
X41406Y-19910D01*
X41310Y-20006D01*
X41258Y-20132D01*
X41258Y-20268D01*
X41310Y-20394D01*
X41334Y-20418D01*
X41334Y-21400D01*
X41334Y-23782D01*
X41310Y-23806D01*
X41258Y-23932D01*
X41258Y-24068D01*
X41310Y-24194D01*
X41406Y-24290D01*
X41532Y-24342D01*
X41668Y-24342D01*
X41794Y-24290D01*
X41890Y-24194D01*
X41934Y-24087D01*
X41934Y-24582D01*
X41910Y-24606D01*
X41858Y-24732D01*
X41858Y-24868D01*
X41910Y-24994D01*
X42006Y-25090D01*
X42132Y-25142D01*
X42268Y-25142D01*
X42394Y-25090D01*
X42490Y-24994D01*
X42542Y-24868D01*
X42542Y-24732D01*
X42490Y-24606D01*
X42466Y-24582D01*
X42466Y-22966D01*
X43382Y-22966D01*
X43406Y-22990D01*
X43532Y-23042D01*
X43668Y-23042D01*
X43794Y-22990D01*
X43890Y-22894D01*
X43942Y-22768D01*
X43942Y-43064D01*
X43178Y-43064D01*
X43178Y-40466D01*
X43178Y-40243D01*
X43178Y-38498D01*
X43178Y-38275D01*
X43178Y-34954D01*
X43178Y-34731D01*
X43178Y-32986D01*
X43178Y-32763D01*
X43093Y-32557D01*
X42935Y-32400D01*
X42730Y-32314D01*
X42507Y-32314D01*
X42301Y-32399D01*
X42144Y-32557D01*
X42058Y-32762D01*
X42058Y-32985D01*
X42143Y-33191D01*
X42301Y-33348D01*
X42506Y-33434D01*
X42729Y-33434D01*
X42935Y-33349D01*
X43092Y-33191D01*
X43178Y-32986D01*
X43178Y-34731D01*
X43093Y-34525D01*
X42935Y-34368D01*
X42730Y-34282D01*
X42507Y-34282D01*
X42301Y-34367D01*
X42144Y-34525D01*
X42058Y-34730D01*
X42058Y-34953D01*
X42143Y-35159D01*
X42301Y-35316D01*
X42506Y-35402D01*
X42729Y-35402D01*
X42935Y-35317D01*
X43092Y-35159D01*
X43178Y-34954D01*
X43178Y-38275D01*
X43093Y-38069D01*
X42935Y-37912D01*
X42730Y-37826D01*
X42507Y-37826D01*
X42301Y-37911D01*
X42144Y-38069D01*
X42058Y-38274D01*
X42058Y-38497D01*
X42143Y-38703D01*
X42301Y-38860D01*
X42506Y-38946D01*
X42729Y-38946D01*
X42935Y-38861D01*
X43092Y-38703D01*
X43178Y-38498D01*
X43178Y-40243D01*
X43093Y-40037D01*
X42935Y-39880D01*
X42730Y-39794D01*
X42507Y-39794D01*
X42301Y-39879D01*
X42144Y-40037D01*
X42058Y-40242D01*
X42058Y-40465D01*
X42143Y-40671D01*
X42301Y-40828D01*
X42506Y-40914D01*
X42729Y-40914D01*
X42935Y-40829D01*
X43092Y-40671D01*
X43178Y-40466D01*
X43178Y-43064D01*
X40669Y-43064D01*
X40669Y-16806D01*
X40658Y-16602D01*
X40602Y-16465D01*
X40511Y-16442D01*
X40440Y-16513D01*
X40440Y-16371D01*
X40417Y-16280D01*
X40224Y-16213D01*
X40020Y-16224D01*
X39883Y-16280D01*
X39860Y-16371D01*
X40150Y-16661D01*
X40440Y-16371D01*
X40440Y-16513D01*
X40221Y-16732D01*
X40511Y-17022D01*
X40602Y-16999D01*
X40669Y-16806D01*
X40669Y-43064D01*
X40519Y-43064D01*
X40519Y-26252D01*
X40508Y-26048D01*
X40452Y-25911D01*
X40443Y-25908D01*
X40443Y-25109D01*
X40443Y-25042D01*
X40443Y-24492D01*
X40440Y-24484D01*
X40440Y-17093D01*
X40150Y-16803D01*
X40079Y-16874D01*
X40079Y-16732D01*
X39789Y-16442D01*
X39698Y-16465D01*
X39631Y-16658D01*
X39642Y-16862D01*
X39698Y-16999D01*
X39789Y-17022D01*
X40079Y-16732D01*
X40079Y-16874D01*
X39860Y-17093D01*
X39883Y-17184D01*
X40076Y-17251D01*
X40280Y-17240D01*
X40417Y-17184D01*
X40440Y-17093D01*
X40440Y-24484D01*
X40418Y-24430D01*
X40370Y-24383D01*
X40309Y-24357D01*
X40242Y-24357D01*
X39692Y-24357D01*
X39630Y-24382D01*
X39592Y-24420D01*
X39592Y-16820D01*
X39592Y-16644D01*
X39525Y-16482D01*
X39400Y-16357D01*
X39238Y-16290D01*
X39062Y-16290D01*
X38900Y-16357D01*
X38775Y-16482D01*
X38708Y-16644D01*
X38708Y-16820D01*
X38775Y-16982D01*
X38884Y-17091D01*
X38884Y-19732D01*
X38810Y-19806D01*
X38758Y-19932D01*
X38758Y-20068D01*
X38810Y-20194D01*
X38906Y-20290D01*
X39032Y-20342D01*
X39168Y-20342D01*
X39294Y-20290D01*
X39390Y-20194D01*
X39442Y-20068D01*
X39442Y-19932D01*
X39416Y-19869D01*
X39416Y-17091D01*
X39525Y-16982D01*
X39592Y-16820D01*
X39592Y-24420D01*
X39583Y-24430D01*
X39557Y-24491D01*
X39557Y-24558D01*
X39557Y-25108D01*
X39582Y-25170D01*
X39630Y-25217D01*
X39691Y-25243D01*
X39758Y-25243D01*
X40308Y-25243D01*
X40370Y-25218D01*
X40417Y-25170D01*
X40443Y-25109D01*
X40443Y-25908D01*
X40361Y-25888D01*
X40290Y-25959D01*
X40290Y-25817D01*
X40267Y-25726D01*
X40074Y-25659D01*
X39870Y-25670D01*
X39733Y-25726D01*
X39710Y-25817D01*
X40000Y-26107D01*
X40290Y-25817D01*
X40290Y-25959D01*
X40071Y-26178D01*
X40361Y-26468D01*
X40452Y-26445D01*
X40519Y-26252D01*
X40519Y-43064D01*
X40290Y-43064D01*
X40290Y-26539D01*
X40000Y-26249D01*
X39929Y-26320D01*
X39929Y-26178D01*
X39639Y-25888D01*
X39548Y-25911D01*
X39481Y-26104D01*
X39492Y-26308D01*
X39548Y-26445D01*
X39639Y-26468D01*
X39929Y-26178D01*
X39929Y-26320D01*
X39710Y-26539D01*
X39733Y-26630D01*
X39926Y-26697D01*
X40130Y-26686D01*
X40267Y-26630D01*
X40290Y-26539D01*
X40290Y-43064D01*
X38669Y-43064D01*
X38669Y-16806D01*
X38658Y-16602D01*
X38602Y-16465D01*
X38511Y-16442D01*
X38440Y-16513D01*
X38440Y-16371D01*
X38417Y-16280D01*
X38224Y-16213D01*
X38020Y-16224D01*
X37883Y-16280D01*
X37860Y-16371D01*
X38150Y-16661D01*
X38440Y-16371D01*
X38440Y-16513D01*
X38221Y-16732D01*
X38511Y-17022D01*
X38602Y-16999D01*
X38669Y-16806D01*
X38669Y-43064D01*
X38440Y-43064D01*
X38440Y-17093D01*
X38150Y-16803D01*
X38079Y-16874D01*
X38079Y-16732D01*
X37789Y-16442D01*
X37698Y-16465D01*
X37653Y-16591D01*
X37602Y-16465D01*
X37511Y-16442D01*
X37440Y-16513D01*
X37440Y-16371D01*
X37417Y-16280D01*
X37224Y-16213D01*
X37020Y-16224D01*
X36883Y-16280D01*
X36860Y-16371D01*
X37150Y-16661D01*
X37440Y-16371D01*
X37440Y-16513D01*
X37221Y-16732D01*
X37511Y-17022D01*
X37602Y-16999D01*
X37646Y-16872D01*
X37698Y-16999D01*
X37789Y-17022D01*
X38079Y-16732D01*
X38079Y-16874D01*
X37860Y-17093D01*
X37883Y-17184D01*
X38076Y-17251D01*
X38280Y-17240D01*
X38417Y-17184D01*
X38440Y-17093D01*
X38440Y-43064D01*
X38256Y-43064D01*
X38256Y-40466D01*
X38256Y-40243D01*
X38256Y-38498D01*
X38256Y-38275D01*
X38256Y-34954D01*
X38256Y-34731D01*
X38256Y-32986D01*
X38256Y-32763D01*
X38171Y-32557D01*
X38013Y-32400D01*
X37808Y-32314D01*
X37585Y-32314D01*
X37440Y-32373D01*
X37440Y-17093D01*
X37150Y-16803D01*
X37079Y-16874D01*
X37079Y-16732D01*
X36789Y-16442D01*
X36698Y-16465D01*
X36653Y-16591D01*
X36602Y-16465D01*
X36511Y-16442D01*
X36440Y-16513D01*
X36440Y-16371D01*
X36417Y-16280D01*
X36224Y-16213D01*
X36020Y-16224D01*
X35883Y-16280D01*
X35860Y-16371D01*
X36150Y-16661D01*
X36440Y-16371D01*
X36440Y-16513D01*
X36221Y-16732D01*
X36511Y-17022D01*
X36602Y-16999D01*
X36646Y-16872D01*
X36698Y-16999D01*
X36789Y-17022D01*
X37079Y-16732D01*
X37079Y-16874D01*
X36860Y-17093D01*
X36883Y-17184D01*
X37076Y-17251D01*
X37280Y-17240D01*
X37417Y-17184D01*
X37440Y-17093D01*
X37440Y-32373D01*
X37379Y-32399D01*
X37222Y-32557D01*
X37136Y-32762D01*
X37136Y-32985D01*
X37221Y-33191D01*
X37379Y-33348D01*
X37584Y-33434D01*
X37807Y-33434D01*
X38013Y-33349D01*
X38170Y-33191D01*
X38256Y-32986D01*
X38256Y-34731D01*
X38171Y-34525D01*
X38013Y-34368D01*
X37808Y-34282D01*
X37585Y-34282D01*
X37379Y-34367D01*
X37222Y-34525D01*
X37136Y-34730D01*
X37136Y-34953D01*
X37221Y-35159D01*
X37379Y-35316D01*
X37584Y-35402D01*
X37807Y-35402D01*
X38013Y-35317D01*
X38170Y-35159D01*
X38256Y-34954D01*
X38256Y-38275D01*
X38171Y-38069D01*
X38013Y-37912D01*
X37808Y-37826D01*
X37585Y-37826D01*
X37379Y-37911D01*
X37222Y-38069D01*
X37136Y-38274D01*
X37136Y-38497D01*
X37221Y-38703D01*
X37379Y-38860D01*
X37584Y-38946D01*
X37807Y-38946D01*
X38013Y-38861D01*
X38170Y-38703D01*
X38256Y-38498D01*
X38256Y-40243D01*
X38171Y-40037D01*
X38013Y-39880D01*
X37808Y-39794D01*
X37585Y-39794D01*
X37379Y-39879D01*
X37222Y-40037D01*
X37136Y-40242D01*
X37136Y-40465D01*
X37221Y-40671D01*
X37379Y-40828D01*
X37584Y-40914D01*
X37807Y-40914D01*
X38013Y-40829D01*
X38170Y-40671D01*
X38256Y-40466D01*
X38256Y-43064D01*
X36440Y-43064D01*
X36440Y-17093D01*
X36150Y-16803D01*
X36079Y-16874D01*
X36079Y-16732D01*
X35789Y-16442D01*
X35698Y-16465D01*
X35653Y-16591D01*
X35602Y-16465D01*
X35511Y-16442D01*
X35440Y-16513D01*
X35440Y-16371D01*
X35417Y-16280D01*
X35224Y-16213D01*
X35020Y-16224D01*
X34883Y-16280D01*
X34860Y-16371D01*
X35150Y-16661D01*
X35440Y-16371D01*
X35440Y-16513D01*
X35221Y-16732D01*
X35511Y-17022D01*
X35602Y-16999D01*
X35646Y-16872D01*
X35698Y-16999D01*
X35789Y-17022D01*
X36079Y-16732D01*
X36079Y-16874D01*
X35860Y-17093D01*
X35883Y-17184D01*
X36076Y-17251D01*
X36280Y-17240D01*
X36417Y-17184D01*
X36440Y-17093D01*
X36440Y-43064D01*
X35569Y-43064D01*
X35569Y-26746D01*
X35569Y-26559D01*
X35569Y-26255D01*
X35569Y-23746D01*
X35569Y-23559D01*
X35569Y-23255D01*
X35498Y-23083D01*
X35440Y-23025D01*
X35440Y-17093D01*
X35185Y-16838D01*
X35150Y-16803D01*
X35079Y-16732D01*
X35044Y-16697D01*
X34789Y-16442D01*
X34698Y-16465D01*
X34631Y-16658D01*
X34641Y-16847D01*
X34592Y-16798D01*
X34592Y-16644D01*
X34525Y-16482D01*
X34400Y-16357D01*
X34238Y-16290D01*
X34062Y-16290D01*
X33900Y-16357D01*
X33775Y-16482D01*
X33708Y-16644D01*
X33708Y-16820D01*
X33775Y-16982D01*
X33900Y-17107D01*
X34062Y-17174D01*
X34216Y-17174D01*
X34334Y-17292D01*
X34334Y-18800D01*
X34334Y-19000D01*
X34334Y-20982D01*
X34310Y-21006D01*
X34258Y-21132D01*
X34258Y-21268D01*
X34310Y-21394D01*
X34406Y-21490D01*
X34532Y-21542D01*
X34668Y-21542D01*
X34794Y-21490D01*
X34890Y-21394D01*
X34942Y-21268D01*
X34942Y-21132D01*
X34890Y-21006D01*
X34866Y-20982D01*
X34866Y-19000D01*
X34866Y-18800D01*
X34866Y-17182D01*
X34861Y-17161D01*
X34874Y-17148D01*
X34883Y-17184D01*
X35076Y-17251D01*
X35280Y-17240D01*
X35417Y-17184D01*
X35440Y-17093D01*
X35440Y-23025D01*
X35366Y-22951D01*
X35246Y-22901D01*
X35246Y-22898D01*
X35188Y-22812D01*
X34066Y-21690D01*
X34066Y-19200D01*
X34066Y-17818D01*
X34090Y-17794D01*
X34142Y-17668D01*
X34142Y-17532D01*
X34090Y-17406D01*
X33994Y-17310D01*
X33868Y-17258D01*
X33732Y-17258D01*
X33606Y-17310D01*
X33592Y-17324D01*
X33592Y-16820D01*
X33592Y-16644D01*
X33525Y-16482D01*
X33400Y-16357D01*
X33238Y-16290D01*
X33062Y-16290D01*
X32900Y-16357D01*
X32775Y-16482D01*
X32708Y-16644D01*
X32708Y-16820D01*
X32775Y-16982D01*
X32884Y-17091D01*
X32884Y-22929D01*
X32835Y-22950D01*
X32703Y-23082D01*
X32631Y-23254D01*
X32631Y-23441D01*
X32631Y-23745D01*
X32702Y-23917D01*
X32834Y-24049D01*
X33006Y-24121D01*
X33193Y-24121D01*
X33365Y-24050D01*
X33497Y-23918D01*
X33569Y-23746D01*
X33569Y-23559D01*
X33569Y-23255D01*
X33498Y-23083D01*
X33416Y-23001D01*
X33416Y-17091D01*
X33525Y-16982D01*
X33592Y-16820D01*
X33592Y-17324D01*
X33510Y-17406D01*
X33458Y-17532D01*
X33458Y-17668D01*
X33510Y-17794D01*
X33534Y-17818D01*
X33534Y-19200D01*
X33534Y-21800D01*
X33554Y-21902D01*
X33612Y-21988D01*
X34704Y-23080D01*
X34703Y-23082D01*
X34631Y-23254D01*
X34631Y-23441D01*
X34631Y-23745D01*
X34702Y-23917D01*
X34834Y-24049D01*
X35006Y-24121D01*
X35193Y-24121D01*
X35365Y-24050D01*
X35497Y-23918D01*
X35569Y-23746D01*
X35569Y-26255D01*
X35498Y-26083D01*
X35366Y-25951D01*
X35194Y-25879D01*
X35007Y-25879D01*
X34835Y-25950D01*
X34703Y-26082D01*
X34631Y-26254D01*
X34631Y-26441D01*
X34631Y-26745D01*
X34702Y-26917D01*
X34834Y-27049D01*
X35006Y-27121D01*
X35193Y-27121D01*
X35365Y-27050D01*
X35497Y-26918D01*
X35569Y-26746D01*
X35569Y-43064D01*
X34569Y-43064D01*
X34569Y-26746D01*
X34569Y-26559D01*
X34569Y-26255D01*
X34569Y-23746D01*
X34569Y-23559D01*
X34569Y-23255D01*
X34498Y-23083D01*
X34366Y-22951D01*
X34194Y-22879D01*
X34007Y-22879D01*
X33835Y-22950D01*
X33703Y-23082D01*
X33631Y-23254D01*
X33631Y-23441D01*
X33631Y-23745D01*
X33702Y-23917D01*
X33834Y-24049D01*
X34006Y-24121D01*
X34193Y-24121D01*
X34365Y-24050D01*
X34497Y-23918D01*
X34569Y-23746D01*
X34569Y-26255D01*
X34498Y-26083D01*
X34366Y-25951D01*
X34194Y-25879D01*
X34007Y-25879D01*
X33835Y-25950D01*
X33703Y-26082D01*
X33631Y-26254D01*
X33631Y-26441D01*
X33631Y-26745D01*
X33702Y-26917D01*
X33834Y-27049D01*
X34006Y-27121D01*
X34193Y-27121D01*
X34365Y-27050D01*
X34497Y-26918D01*
X34569Y-26746D01*
X34569Y-43064D01*
X34124Y-43064D01*
X34124Y-38013D01*
X34124Y-37774D01*
X34124Y-35454D01*
X34124Y-35215D01*
X34033Y-34994D01*
X33864Y-34826D01*
X33644Y-34734D01*
X33569Y-34734D01*
X33569Y-26746D01*
X33569Y-26559D01*
X33569Y-26255D01*
X33498Y-26083D01*
X33366Y-25951D01*
X33194Y-25879D01*
X33007Y-25879D01*
X32835Y-25950D01*
X32703Y-26082D01*
X32631Y-26254D01*
X32631Y-26441D01*
X32631Y-26745D01*
X32702Y-26917D01*
X32834Y-27049D01*
X33006Y-27121D01*
X33193Y-27121D01*
X33365Y-27050D01*
X33497Y-26918D01*
X33569Y-26746D01*
X33569Y-34734D01*
X33405Y-34734D01*
X33184Y-34825D01*
X33016Y-34994D01*
X32924Y-35214D01*
X32924Y-35453D01*
X33015Y-35674D01*
X33184Y-35842D01*
X33404Y-35934D01*
X33643Y-35934D01*
X33864Y-35843D01*
X34032Y-35674D01*
X34124Y-35454D01*
X34124Y-37774D01*
X34084Y-37676D01*
X34084Y-36726D01*
X34084Y-36503D01*
X33999Y-36297D01*
X33841Y-36140D01*
X33636Y-36054D01*
X33413Y-36054D01*
X33207Y-36139D01*
X33050Y-36297D01*
X32964Y-36502D01*
X32964Y-36725D01*
X33049Y-36931D01*
X33207Y-37088D01*
X33412Y-37174D01*
X33635Y-37174D01*
X33841Y-37089D01*
X33998Y-36931D01*
X34084Y-36726D01*
X34084Y-37676D01*
X34033Y-37553D01*
X33864Y-37385D01*
X33644Y-37293D01*
X33405Y-37293D01*
X33184Y-37384D01*
X33016Y-37553D01*
X32924Y-37773D01*
X32924Y-38012D01*
X33015Y-38233D01*
X33184Y-38401D01*
X33404Y-38493D01*
X33643Y-38493D01*
X33864Y-38402D01*
X34032Y-38233D01*
X34124Y-38013D01*
X34124Y-43064D01*
X32592Y-43064D01*
X32592Y-16820D01*
X32592Y-16644D01*
X32525Y-16482D01*
X32400Y-16357D01*
X32238Y-16290D01*
X32062Y-16290D01*
X31900Y-16357D01*
X31775Y-16482D01*
X31708Y-16644D01*
X31708Y-16820D01*
X31775Y-16982D01*
X31834Y-17041D01*
X31834Y-22951D01*
X31703Y-23082D01*
X31631Y-23254D01*
X31631Y-23441D01*
X31631Y-23745D01*
X31702Y-23917D01*
X31834Y-24049D01*
X32006Y-24121D01*
X32193Y-24121D01*
X32365Y-24050D01*
X32497Y-23918D01*
X32569Y-23746D01*
X32569Y-23559D01*
X32569Y-23255D01*
X32498Y-23083D01*
X32366Y-22951D01*
X32366Y-17121D01*
X32400Y-17107D01*
X32525Y-16982D01*
X32592Y-16820D01*
X32592Y-43064D01*
X32569Y-43064D01*
X32569Y-26746D01*
X32569Y-26559D01*
X32569Y-26255D01*
X32498Y-26083D01*
X32366Y-25951D01*
X32194Y-25879D01*
X32007Y-25879D01*
X31835Y-25950D01*
X31703Y-26082D01*
X31631Y-26254D01*
X31631Y-26441D01*
X31631Y-26745D01*
X31702Y-26917D01*
X31834Y-27049D01*
X32006Y-27121D01*
X32193Y-27121D01*
X32365Y-27050D01*
X32497Y-26918D01*
X32569Y-26746D01*
X32569Y-43064D01*
X31592Y-43064D01*
X31592Y-16820D01*
X31592Y-16644D01*
X31525Y-16482D01*
X31400Y-16357D01*
X31238Y-16290D01*
X31062Y-16290D01*
X30900Y-16357D01*
X30775Y-16482D01*
X30708Y-16644D01*
X30708Y-16820D01*
X30775Y-16982D01*
X30884Y-17091D01*
X30884Y-22929D01*
X30835Y-22950D01*
X30703Y-23082D01*
X30631Y-23254D01*
X30631Y-23441D01*
X30631Y-23745D01*
X30702Y-23917D01*
X30834Y-24049D01*
X31006Y-24121D01*
X31193Y-24121D01*
X31365Y-24050D01*
X31497Y-23918D01*
X31569Y-23746D01*
X31569Y-23559D01*
X31569Y-23255D01*
X31498Y-23083D01*
X31416Y-23001D01*
X31416Y-17091D01*
X31525Y-16982D01*
X31592Y-16820D01*
X31592Y-43064D01*
X31569Y-43064D01*
X31569Y-26746D01*
X31569Y-26559D01*
X31569Y-26255D01*
X31498Y-26083D01*
X31366Y-25951D01*
X31194Y-25879D01*
X31007Y-25879D01*
X30835Y-25950D01*
X30703Y-26082D01*
X30631Y-26254D01*
X30631Y-26441D01*
X30631Y-26745D01*
X30702Y-26917D01*
X30834Y-27049D01*
X31006Y-27121D01*
X31193Y-27121D01*
X31365Y-27050D01*
X31497Y-26918D01*
X31569Y-26746D01*
X31569Y-43064D01*
X31542Y-43064D01*
X31542Y-29488D01*
X31542Y-29312D01*
X31475Y-29150D01*
X31350Y-29025D01*
X31188Y-28958D01*
X31012Y-28958D01*
X30850Y-29025D01*
X30725Y-29150D01*
X30658Y-29312D01*
X30658Y-29488D01*
X30725Y-29650D01*
X30850Y-29775D01*
X31012Y-29842D01*
X31188Y-29842D01*
X31350Y-29775D01*
X31475Y-29650D01*
X31542Y-29488D01*
X31542Y-43064D01*
X30619Y-43064D01*
X30619Y-29474D01*
X30608Y-29270D01*
X30592Y-29230D01*
X30592Y-16820D01*
X30592Y-16644D01*
X30525Y-16482D01*
X30400Y-16357D01*
X30238Y-16290D01*
X30062Y-16290D01*
X29900Y-16357D01*
X29775Y-16482D01*
X29708Y-16644D01*
X29708Y-16820D01*
X29775Y-16982D01*
X29834Y-17041D01*
X29834Y-21641D01*
X29725Y-21750D01*
X29658Y-21912D01*
X29658Y-22088D01*
X29725Y-22250D01*
X29850Y-22375D01*
X30012Y-22442D01*
X30188Y-22442D01*
X30350Y-22375D01*
X30475Y-22250D01*
X30542Y-22088D01*
X30542Y-21912D01*
X30475Y-21750D01*
X30366Y-21641D01*
X30366Y-17121D01*
X30400Y-17107D01*
X30525Y-16982D01*
X30592Y-16820D01*
X30592Y-29230D01*
X30569Y-29174D01*
X30569Y-26746D01*
X30569Y-26559D01*
X30569Y-26255D01*
X30569Y-23746D01*
X30569Y-23559D01*
X30569Y-23255D01*
X30498Y-23083D01*
X30366Y-22951D01*
X30194Y-22879D01*
X30007Y-22879D01*
X29835Y-22950D01*
X29703Y-23082D01*
X29631Y-23254D01*
X29631Y-23441D01*
X29631Y-23745D01*
X29702Y-23917D01*
X29834Y-24049D01*
X30006Y-24121D01*
X30193Y-24121D01*
X30365Y-24050D01*
X30497Y-23918D01*
X30569Y-23746D01*
X30569Y-26255D01*
X30498Y-26083D01*
X30366Y-25951D01*
X30194Y-25879D01*
X30007Y-25879D01*
X29835Y-25950D01*
X29703Y-26082D01*
X29642Y-26225D01*
X29642Y-25468D01*
X29642Y-25332D01*
X29618Y-25273D01*
X29618Y-16825D01*
X29618Y-16639D01*
X29547Y-16467D01*
X29415Y-16335D01*
X29243Y-16264D01*
X29057Y-16264D01*
X28885Y-16335D01*
X28753Y-16467D01*
X28686Y-16627D01*
X27560Y-16627D01*
X27295Y-16362D01*
X27234Y-16336D01*
X27167Y-16337D01*
X27105Y-16361D01*
X27058Y-16409D01*
X26669Y-16798D01*
X26643Y-16859D01*
X26644Y-16926D01*
X26668Y-16988D01*
X26716Y-17035D01*
X27105Y-17424D01*
X27166Y-17450D01*
X27233Y-17449D01*
X27295Y-17425D01*
X27342Y-17377D01*
X27560Y-17159D01*
X27816Y-17159D01*
X27657Y-17225D01*
X27532Y-17350D01*
X27465Y-17512D01*
X27465Y-17688D01*
X27532Y-17850D01*
X27657Y-17975D01*
X27819Y-18042D01*
X27995Y-18042D01*
X28157Y-17975D01*
X28282Y-17850D01*
X28349Y-17688D01*
X28349Y-17512D01*
X28282Y-17350D01*
X28157Y-17225D01*
X27997Y-17159D01*
X28957Y-17159D01*
X29057Y-17200D01*
X29243Y-17200D01*
X29415Y-17129D01*
X29547Y-16997D01*
X29618Y-16825D01*
X29618Y-25273D01*
X29590Y-25206D01*
X29569Y-25185D01*
X29569Y-23746D01*
X29569Y-23559D01*
X29569Y-23255D01*
X29498Y-23083D01*
X29366Y-22951D01*
X29194Y-22879D01*
X29007Y-22879D01*
X28835Y-22950D01*
X28703Y-23082D01*
X28636Y-23240D01*
X28619Y-23166D01*
X28619Y-22074D01*
X28608Y-21870D01*
X28552Y-21733D01*
X28461Y-21710D01*
X28390Y-21781D01*
X28390Y-21639D01*
X28367Y-21548D01*
X28174Y-21481D01*
X27970Y-21492D01*
X27833Y-21548D01*
X27810Y-21639D01*
X28100Y-21929D01*
X28390Y-21639D01*
X28390Y-21781D01*
X28171Y-22000D01*
X28461Y-22290D01*
X28552Y-22267D01*
X28619Y-22074D01*
X28619Y-23166D01*
X28610Y-23127D01*
X28482Y-22950D01*
X28390Y-22893D01*
X28390Y-22361D01*
X28100Y-22071D01*
X28029Y-22142D01*
X28029Y-22000D01*
X27739Y-21710D01*
X27708Y-21717D01*
X27708Y-18438D01*
X27708Y-18176D01*
X27619Y-17992D01*
X27467Y-17856D01*
X27331Y-17799D01*
X27250Y-17847D01*
X27250Y-18257D01*
X27660Y-18257D01*
X27708Y-18176D01*
X27708Y-18438D01*
X27660Y-18357D01*
X27250Y-18357D01*
X27250Y-18767D01*
X27331Y-18815D01*
X27515Y-18726D01*
X27651Y-18574D01*
X27708Y-18438D01*
X27708Y-21717D01*
X27648Y-21733D01*
X27581Y-21926D01*
X27592Y-22130D01*
X27648Y-22267D01*
X27739Y-22290D01*
X28029Y-22000D01*
X28029Y-22142D01*
X27810Y-22361D01*
X27833Y-22452D01*
X28026Y-22519D01*
X28230Y-22508D01*
X28367Y-22452D01*
X28390Y-22361D01*
X28390Y-22893D01*
X28296Y-22835D01*
X28237Y-22818D01*
X28150Y-22865D01*
X28150Y-23400D01*
X28150Y-23450D01*
X28150Y-23550D01*
X28150Y-23600D01*
X28150Y-24135D01*
X28237Y-24182D01*
X28296Y-24165D01*
X28482Y-24050D01*
X28610Y-23873D01*
X28636Y-23758D01*
X28702Y-23917D01*
X28834Y-24049D01*
X29006Y-24121D01*
X29193Y-24121D01*
X29365Y-24050D01*
X29497Y-23918D01*
X29569Y-23746D01*
X29569Y-25185D01*
X29494Y-25110D01*
X29368Y-25058D01*
X29232Y-25058D01*
X29106Y-25110D01*
X29082Y-25134D01*
X28050Y-25134D01*
X28050Y-24135D01*
X28050Y-23600D01*
X28050Y-23550D01*
X28050Y-23450D01*
X28050Y-23400D01*
X28050Y-22865D01*
X27963Y-22818D01*
X27904Y-22835D01*
X27718Y-22950D01*
X27590Y-23127D01*
X27563Y-23241D01*
X27498Y-23083D01*
X27366Y-22951D01*
X27194Y-22879D01*
X27150Y-22879D01*
X27150Y-18767D01*
X27150Y-18357D01*
X27150Y-18257D01*
X27150Y-17847D01*
X27069Y-17799D01*
X26885Y-17888D01*
X26749Y-18040D01*
X26692Y-18176D01*
X26740Y-18257D01*
X27150Y-18257D01*
X27150Y-18357D01*
X26740Y-18357D01*
X26692Y-18438D01*
X26781Y-18622D01*
X26933Y-18758D01*
X27069Y-18815D01*
X27150Y-18767D01*
X27150Y-22879D01*
X27007Y-22879D01*
X26835Y-22950D01*
X26703Y-23082D01*
X26631Y-23254D01*
X26631Y-23441D01*
X26631Y-23745D01*
X26702Y-23917D01*
X26834Y-24049D01*
X27006Y-24121D01*
X27193Y-24121D01*
X27365Y-24050D01*
X27497Y-23918D01*
X27563Y-23759D01*
X27590Y-23873D01*
X27718Y-24050D01*
X27904Y-24165D01*
X27963Y-24182D01*
X28050Y-24135D01*
X28050Y-25134D01*
X27318Y-25134D01*
X27294Y-25110D01*
X27168Y-25058D01*
X27032Y-25058D01*
X26906Y-25110D01*
X26810Y-25206D01*
X26758Y-25332D01*
X26758Y-25468D01*
X26810Y-25594D01*
X26906Y-25690D01*
X27032Y-25742D01*
X27168Y-25742D01*
X27294Y-25690D01*
X27318Y-25666D01*
X29082Y-25666D01*
X29106Y-25690D01*
X29232Y-25742D01*
X29368Y-25742D01*
X29494Y-25690D01*
X29590Y-25594D01*
X29642Y-25468D01*
X29642Y-26225D01*
X29636Y-26240D01*
X29610Y-26127D01*
X29482Y-25950D01*
X29296Y-25835D01*
X29237Y-25818D01*
X29150Y-25865D01*
X29150Y-26400D01*
X29150Y-26450D01*
X29150Y-26550D01*
X29150Y-26600D01*
X29150Y-27135D01*
X29237Y-27182D01*
X29296Y-27165D01*
X29482Y-27050D01*
X29610Y-26873D01*
X29636Y-26758D01*
X29702Y-26917D01*
X29834Y-27049D01*
X30006Y-27121D01*
X30193Y-27121D01*
X30365Y-27050D01*
X30497Y-26918D01*
X30569Y-26746D01*
X30569Y-29174D01*
X30552Y-29133D01*
X30461Y-29110D01*
X30390Y-29181D01*
X30390Y-29039D01*
X30367Y-28948D01*
X30174Y-28881D01*
X29970Y-28892D01*
X29833Y-28948D01*
X29810Y-29039D01*
X30100Y-29329D01*
X30390Y-29039D01*
X30390Y-29181D01*
X30171Y-29400D01*
X30461Y-29690D01*
X30552Y-29667D01*
X30619Y-29474D01*
X30619Y-43064D01*
X30390Y-43064D01*
X30390Y-29761D01*
X30100Y-29471D01*
X30029Y-29542D01*
X30029Y-29400D01*
X29739Y-29110D01*
X29648Y-29133D01*
X29581Y-29326D01*
X29592Y-29530D01*
X29648Y-29667D01*
X29739Y-29690D01*
X30029Y-29400D01*
X30029Y-29542D01*
X29810Y-29761D01*
X29833Y-29852D01*
X30026Y-29919D01*
X30230Y-29908D01*
X30367Y-29852D01*
X30390Y-29761D01*
X30390Y-43064D01*
X30068Y-43064D01*
X30068Y-38013D01*
X30068Y-37774D01*
X30068Y-35454D01*
X30068Y-35215D01*
X29977Y-34994D01*
X29808Y-34826D01*
X29588Y-34734D01*
X29543Y-34734D01*
X29543Y-29709D01*
X29543Y-29642D01*
X29543Y-29092D01*
X29518Y-29030D01*
X29470Y-28983D01*
X29409Y-28957D01*
X29342Y-28957D01*
X29050Y-28957D01*
X29050Y-27135D01*
X29050Y-26600D01*
X29050Y-26550D01*
X29050Y-26450D01*
X29050Y-26400D01*
X29050Y-25865D01*
X28963Y-25818D01*
X28904Y-25835D01*
X28718Y-25950D01*
X28590Y-26127D01*
X28563Y-26241D01*
X28498Y-26083D01*
X28366Y-25951D01*
X28194Y-25879D01*
X28007Y-25879D01*
X27835Y-25950D01*
X27703Y-26082D01*
X27631Y-26254D01*
X27631Y-26441D01*
X27631Y-26745D01*
X27702Y-26917D01*
X27834Y-27049D01*
X28006Y-27121D01*
X28193Y-27121D01*
X28365Y-27050D01*
X28497Y-26918D01*
X28563Y-26759D01*
X28590Y-26873D01*
X28718Y-27050D01*
X28904Y-27165D01*
X28963Y-27182D01*
X29050Y-27135D01*
X29050Y-28957D01*
X28792Y-28957D01*
X28730Y-28982D01*
X28683Y-29030D01*
X28657Y-29091D01*
X28657Y-29158D01*
X28657Y-29708D01*
X28682Y-29770D01*
X28730Y-29817D01*
X28791Y-29843D01*
X28858Y-29843D01*
X29408Y-29843D01*
X29470Y-29818D01*
X29517Y-29770D01*
X29543Y-29709D01*
X29543Y-34734D01*
X29349Y-34734D01*
X29128Y-34825D01*
X28960Y-34994D01*
X28868Y-35214D01*
X28868Y-35453D01*
X28959Y-35674D01*
X29128Y-35842D01*
X29348Y-35934D01*
X29587Y-35934D01*
X29808Y-35843D01*
X29976Y-35674D01*
X30068Y-35454D01*
X30068Y-37774D01*
X30028Y-37676D01*
X30028Y-36726D01*
X30028Y-36503D01*
X29943Y-36297D01*
X29785Y-36140D01*
X29580Y-36054D01*
X29357Y-36054D01*
X29151Y-36139D01*
X28994Y-36297D01*
X28908Y-36502D01*
X28908Y-36725D01*
X28993Y-36931D01*
X29151Y-37088D01*
X29356Y-37174D01*
X29579Y-37174D01*
X29785Y-37089D01*
X29942Y-36931D01*
X30028Y-36726D01*
X30028Y-37676D01*
X29977Y-37553D01*
X29808Y-37385D01*
X29588Y-37293D01*
X29349Y-37293D01*
X29128Y-37384D01*
X28960Y-37553D01*
X28868Y-37773D01*
X28868Y-38012D01*
X28959Y-38233D01*
X29128Y-38401D01*
X29348Y-38493D01*
X29587Y-38493D01*
X29808Y-38402D01*
X29976Y-38233D01*
X30068Y-38013D01*
X30068Y-43064D01*
X27569Y-43064D01*
X27569Y-26746D01*
X27569Y-26559D01*
X27569Y-26255D01*
X27498Y-26083D01*
X27366Y-25951D01*
X27194Y-25879D01*
X27007Y-25879D01*
X26835Y-25950D01*
X26703Y-26082D01*
X26631Y-26254D01*
X26631Y-26441D01*
X26631Y-26745D01*
X26702Y-26917D01*
X26834Y-27049D01*
X27006Y-27121D01*
X27193Y-27121D01*
X27365Y-27050D01*
X27497Y-26918D01*
X27569Y-26746D01*
X27569Y-43064D01*
X26569Y-43064D01*
X26569Y-26746D01*
X26569Y-26559D01*
X26569Y-26255D01*
X26569Y-23746D01*
X26569Y-23559D01*
X26569Y-23255D01*
X26498Y-23083D01*
X26366Y-22951D01*
X26366Y-19100D01*
X26366Y-19000D01*
X26366Y-18000D01*
X26346Y-17898D01*
X26325Y-17866D01*
X26325Y-16812D01*
X26325Y-16588D01*
X26324Y-16376D01*
X26286Y-16284D01*
X26216Y-16214D01*
X26125Y-16176D01*
X26026Y-16176D01*
X25912Y-16175D01*
X25850Y-16237D01*
X25850Y-16650D01*
X26263Y-16650D01*
X26325Y-16588D01*
X26325Y-16812D01*
X26263Y-16750D01*
X25850Y-16750D01*
X25850Y-17163D01*
X25912Y-17225D01*
X26026Y-17224D01*
X26125Y-17224D01*
X26216Y-17186D01*
X26286Y-17116D01*
X26324Y-17024D01*
X26325Y-16812D01*
X26325Y-17866D01*
X26288Y-17812D01*
X26242Y-17766D01*
X26242Y-17612D01*
X26175Y-17450D01*
X26050Y-17325D01*
X25888Y-17258D01*
X25750Y-17258D01*
X25750Y-17163D01*
X25750Y-16750D01*
X25750Y-16650D01*
X25750Y-16237D01*
X25688Y-16175D01*
X25574Y-16176D01*
X25475Y-16176D01*
X25384Y-16214D01*
X25314Y-16284D01*
X25276Y-16376D01*
X25275Y-16588D01*
X25337Y-16650D01*
X25750Y-16650D01*
X25750Y-16750D01*
X25337Y-16750D01*
X25275Y-16812D01*
X25276Y-17024D01*
X25314Y-17116D01*
X25384Y-17186D01*
X25475Y-17224D01*
X25574Y-17224D01*
X25688Y-17225D01*
X25750Y-17163D01*
X25750Y-17258D01*
X25712Y-17258D01*
X25550Y-17325D01*
X25425Y-17450D01*
X25358Y-17612D01*
X25358Y-17788D01*
X25425Y-17950D01*
X25550Y-18075D01*
X25712Y-18142D01*
X25834Y-18142D01*
X25834Y-19000D01*
X25834Y-19100D01*
X25834Y-22951D01*
X25703Y-23082D01*
X25631Y-23254D01*
X25631Y-23441D01*
X25631Y-23745D01*
X25702Y-23917D01*
X25834Y-24049D01*
X26006Y-24121D01*
X26193Y-24121D01*
X26365Y-24050D01*
X26497Y-23918D01*
X26569Y-23746D01*
X26569Y-26255D01*
X26498Y-26083D01*
X26366Y-25951D01*
X26194Y-25879D01*
X26007Y-25879D01*
X25835Y-25950D01*
X25703Y-26082D01*
X25631Y-26254D01*
X25631Y-26441D01*
X25631Y-26745D01*
X25702Y-26917D01*
X25834Y-27049D01*
X26006Y-27121D01*
X26193Y-27121D01*
X26365Y-27050D01*
X26497Y-26918D01*
X26569Y-26746D01*
X26569Y-43064D01*
X25856Y-43064D01*
X25856Y-40466D01*
X25856Y-40243D01*
X25856Y-38498D01*
X25856Y-38275D01*
X25856Y-34954D01*
X25856Y-34731D01*
X25856Y-32986D01*
X25856Y-32763D01*
X25771Y-32557D01*
X25613Y-32400D01*
X25569Y-32381D01*
X25569Y-26746D01*
X25569Y-26559D01*
X25569Y-26255D01*
X25569Y-23746D01*
X25569Y-23559D01*
X25569Y-23255D01*
X25498Y-23083D01*
X25366Y-22951D01*
X25194Y-22879D01*
X25164Y-22879D01*
X25164Y-20134D01*
X25163Y-20067D01*
X25139Y-20005D01*
X25091Y-19958D01*
X24702Y-19569D01*
X24641Y-19543D01*
X24574Y-19544D01*
X24512Y-19568D01*
X24465Y-19616D01*
X24166Y-19915D01*
X24166Y-19810D01*
X24507Y-19468D01*
X24508Y-19468D01*
X24693Y-19468D01*
X24865Y-19397D01*
X24997Y-19265D01*
X25068Y-19093D01*
X25068Y-18907D01*
X24997Y-18735D01*
X24865Y-18603D01*
X24857Y-18600D01*
X24865Y-18597D01*
X24997Y-18465D01*
X25068Y-18293D01*
X25068Y-18107D01*
X24997Y-17935D01*
X24865Y-17803D01*
X24857Y-17800D01*
X24865Y-17797D01*
X24997Y-17665D01*
X25068Y-17493D01*
X25068Y-17307D01*
X24997Y-17135D01*
X24865Y-17003D01*
X24857Y-17000D01*
X24865Y-16997D01*
X24997Y-16865D01*
X25068Y-16693D01*
X25068Y-16507D01*
X24997Y-16335D01*
X24865Y-16203D01*
X24693Y-16132D01*
X24507Y-16132D01*
X24335Y-16203D01*
X24203Y-16335D01*
X24132Y-16507D01*
X24132Y-16693D01*
X24203Y-16865D01*
X24335Y-16997D01*
X24342Y-17000D01*
X24335Y-17003D01*
X24203Y-17135D01*
X24132Y-17307D01*
X24132Y-17493D01*
X24203Y-17665D01*
X24335Y-17797D01*
X24342Y-17800D01*
X24335Y-17803D01*
X24203Y-17935D01*
X24132Y-18107D01*
X24132Y-18293D01*
X24203Y-18465D01*
X24335Y-18597D01*
X24342Y-18600D01*
X24335Y-18603D01*
X24203Y-18735D01*
X24132Y-18907D01*
X24132Y-19092D01*
X23712Y-19512D01*
X23654Y-19598D01*
X23634Y-19700D01*
X23634Y-20009D01*
X23568Y-19850D01*
X23443Y-19725D01*
X23281Y-19658D01*
X23105Y-19658D01*
X22943Y-19725D01*
X22818Y-19850D01*
X22751Y-20012D01*
X22751Y-20188D01*
X22818Y-20350D01*
X22943Y-20475D01*
X23102Y-20541D01*
X21792Y-20541D01*
X22138Y-20195D01*
X22164Y-20134D01*
X22163Y-20067D01*
X22139Y-20005D01*
X22091Y-19958D01*
X21702Y-19569D01*
X21641Y-19543D01*
X21574Y-19544D01*
X21512Y-19568D01*
X21465Y-19616D01*
X21143Y-19938D01*
X21143Y-19079D01*
X21132Y-18866D01*
X21072Y-18719D01*
X21068Y-18717D01*
X21068Y-18293D01*
X21068Y-18107D01*
X20997Y-17935D01*
X20865Y-17803D01*
X20857Y-17800D01*
X20865Y-17797D01*
X20997Y-17665D01*
X21068Y-17493D01*
X21068Y-17307D01*
X20997Y-17135D01*
X20865Y-17003D01*
X20857Y-17000D01*
X20865Y-16997D01*
X20997Y-16865D01*
X21068Y-16693D01*
X21068Y-16507D01*
X20997Y-16335D01*
X20865Y-16203D01*
X20693Y-16132D01*
X20507Y-16132D01*
X20335Y-16203D01*
X20203Y-16335D01*
X20132Y-16507D01*
X20132Y-16693D01*
X20203Y-16865D01*
X20335Y-16997D01*
X20342Y-17000D01*
X20335Y-17003D01*
X20203Y-17135D01*
X20132Y-17307D01*
X20132Y-17493D01*
X20203Y-17665D01*
X20335Y-17797D01*
X20342Y-17800D01*
X20335Y-17803D01*
X20203Y-17935D01*
X20132Y-18107D01*
X20132Y-18293D01*
X20203Y-18465D01*
X20307Y-18569D01*
X20292Y-18622D01*
X20600Y-18929D01*
X20908Y-18622D01*
X20892Y-18569D01*
X20997Y-18465D01*
X21068Y-18293D01*
X21068Y-18717D01*
X20978Y-18692D01*
X20671Y-19000D01*
X20978Y-19308D01*
X21072Y-19281D01*
X21143Y-19079D01*
X21143Y-19938D01*
X21076Y-20005D01*
X21050Y-20066D01*
X21051Y-20133D01*
X21075Y-20195D01*
X21123Y-20242D01*
X21422Y-20541D01*
X21259Y-20541D01*
X21150Y-20432D01*
X20988Y-20365D01*
X20908Y-20365D01*
X20908Y-19378D01*
X20600Y-19071D01*
X20529Y-19141D01*
X20529Y-19000D01*
X20222Y-18692D01*
X20128Y-18719D01*
X20057Y-18921D01*
X20068Y-19134D01*
X20128Y-19281D01*
X20222Y-19308D01*
X20529Y-19000D01*
X20529Y-19141D01*
X20292Y-19378D01*
X20319Y-19472D01*
X20521Y-19543D01*
X20734Y-19532D01*
X20881Y-19472D01*
X20908Y-19378D01*
X20908Y-20365D01*
X20812Y-20365D01*
X20650Y-20432D01*
X20635Y-20447D01*
X20635Y-20188D01*
X20635Y-20012D01*
X20568Y-19850D01*
X20443Y-19725D01*
X20281Y-19658D01*
X20105Y-19658D01*
X19943Y-19725D01*
X19818Y-19850D01*
X19751Y-20012D01*
X19751Y-20188D01*
X19818Y-20350D01*
X19943Y-20475D01*
X20105Y-20542D01*
X20281Y-20542D01*
X20443Y-20475D01*
X20568Y-20350D01*
X20635Y-20188D01*
X20635Y-20447D01*
X20525Y-20557D01*
X20458Y-20719D01*
X20458Y-20895D01*
X20525Y-21057D01*
X20650Y-21182D01*
X20812Y-21249D01*
X20988Y-21249D01*
X21150Y-21182D01*
X21259Y-21073D01*
X23541Y-21073D01*
X23650Y-21182D01*
X23812Y-21249D01*
X23988Y-21249D01*
X24150Y-21182D01*
X24275Y-21057D01*
X24342Y-20895D01*
X24342Y-20719D01*
X24275Y-20557D01*
X24166Y-20448D01*
X24166Y-20285D01*
X24512Y-20631D01*
X24573Y-20657D01*
X24640Y-20656D01*
X24702Y-20632D01*
X24749Y-20584D01*
X25138Y-20195D01*
X25164Y-20134D01*
X25164Y-22879D01*
X25007Y-22879D01*
X24835Y-22950D01*
X24703Y-23082D01*
X24631Y-23254D01*
X24631Y-23441D01*
X24631Y-23745D01*
X24702Y-23917D01*
X24834Y-24049D01*
X25006Y-24121D01*
X25193Y-24121D01*
X25365Y-24050D01*
X25497Y-23918D01*
X25569Y-23746D01*
X25569Y-26255D01*
X25498Y-26083D01*
X25366Y-25951D01*
X25194Y-25879D01*
X25007Y-25879D01*
X24835Y-25950D01*
X24703Y-26082D01*
X24631Y-26254D01*
X24631Y-26441D01*
X24631Y-26745D01*
X24702Y-26917D01*
X24834Y-27049D01*
X25006Y-27121D01*
X25193Y-27121D01*
X25365Y-27050D01*
X25497Y-26918D01*
X25569Y-26746D01*
X25569Y-32381D01*
X25408Y-32314D01*
X25185Y-32314D01*
X24979Y-32399D01*
X24822Y-32557D01*
X24736Y-32762D01*
X24736Y-32985D01*
X24821Y-33191D01*
X24979Y-33348D01*
X25184Y-33434D01*
X25407Y-33434D01*
X25613Y-33349D01*
X25770Y-33191D01*
X25856Y-32986D01*
X25856Y-34731D01*
X25771Y-34525D01*
X25613Y-34368D01*
X25408Y-34282D01*
X25185Y-34282D01*
X24979Y-34367D01*
X24822Y-34525D01*
X24736Y-34730D01*
X24736Y-34953D01*
X24821Y-35159D01*
X24979Y-35316D01*
X25184Y-35402D01*
X25407Y-35402D01*
X25613Y-35317D01*
X25770Y-35159D01*
X25856Y-34954D01*
X25856Y-38275D01*
X25771Y-38069D01*
X25613Y-37912D01*
X25408Y-37826D01*
X25185Y-37826D01*
X24979Y-37911D01*
X24822Y-38069D01*
X24736Y-38274D01*
X24736Y-38497D01*
X24821Y-38703D01*
X24979Y-38860D01*
X25184Y-38946D01*
X25407Y-38946D01*
X25613Y-38861D01*
X25770Y-38703D01*
X25856Y-38498D01*
X25856Y-40243D01*
X25771Y-40037D01*
X25613Y-39880D01*
X25408Y-39794D01*
X25185Y-39794D01*
X24979Y-39879D01*
X24822Y-40037D01*
X24736Y-40242D01*
X24736Y-40465D01*
X24821Y-40671D01*
X24979Y-40828D01*
X25184Y-40914D01*
X25407Y-40914D01*
X25613Y-40829D01*
X25770Y-40671D01*
X25856Y-40466D01*
X25856Y-43064D01*
X24569Y-43064D01*
X24569Y-26746D01*
X24569Y-26559D01*
X24569Y-26255D01*
X24569Y-23746D01*
X24569Y-23559D01*
X24569Y-23255D01*
X24498Y-23083D01*
X24366Y-22951D01*
X24194Y-22879D01*
X24007Y-22879D01*
X23835Y-22950D01*
X23703Y-23082D01*
X23631Y-23254D01*
X23631Y-23441D01*
X23631Y-23745D01*
X23702Y-23917D01*
X23834Y-24049D01*
X24006Y-24121D01*
X24193Y-24121D01*
X24365Y-24050D01*
X24497Y-23918D01*
X24569Y-23746D01*
X24569Y-26255D01*
X24498Y-26083D01*
X24366Y-25951D01*
X24194Y-25879D01*
X24007Y-25879D01*
X23835Y-25950D01*
X23703Y-26082D01*
X23631Y-26254D01*
X23631Y-26441D01*
X23631Y-26745D01*
X23702Y-26917D01*
X23834Y-27049D01*
X24006Y-27121D01*
X24193Y-27121D01*
X24365Y-27050D01*
X24497Y-26918D01*
X24569Y-26746D01*
X24569Y-43064D01*
X23569Y-43064D01*
X23569Y-26746D01*
X23569Y-26559D01*
X23569Y-26255D01*
X23569Y-23746D01*
X23569Y-23559D01*
X23569Y-23255D01*
X23498Y-23083D01*
X23366Y-22951D01*
X23194Y-22879D01*
X23007Y-22879D01*
X22942Y-22905D01*
X22942Y-22268D01*
X22942Y-22132D01*
X22890Y-22006D01*
X22794Y-21910D01*
X22668Y-21858D01*
X22532Y-21858D01*
X22406Y-21910D01*
X22310Y-22006D01*
X22258Y-22132D01*
X22258Y-22166D01*
X21990Y-22434D01*
X19718Y-22434D01*
X19694Y-22410D01*
X19568Y-22358D01*
X19432Y-22358D01*
X19306Y-22410D01*
X19210Y-22506D01*
X19158Y-22632D01*
X19158Y-22768D01*
X19210Y-22894D01*
X19306Y-22990D01*
X19432Y-23042D01*
X19568Y-23042D01*
X19694Y-22990D01*
X19718Y-22966D01*
X21819Y-22966D01*
X21703Y-23082D01*
X21631Y-23254D01*
X21631Y-23441D01*
X21631Y-23745D01*
X21702Y-23917D01*
X21834Y-24049D01*
X22006Y-24121D01*
X22193Y-24121D01*
X22365Y-24050D01*
X22497Y-23918D01*
X22569Y-23746D01*
X22569Y-23559D01*
X22569Y-23255D01*
X22498Y-23083D01*
X22366Y-22951D01*
X22260Y-22906D01*
X22288Y-22888D01*
X22634Y-22542D01*
X22668Y-22542D01*
X22794Y-22490D01*
X22890Y-22394D01*
X22942Y-22268D01*
X22942Y-22905D01*
X22835Y-22950D01*
X22703Y-23082D01*
X22631Y-23254D01*
X22631Y-23441D01*
X22631Y-23745D01*
X22702Y-23917D01*
X22834Y-24049D01*
X23006Y-24121D01*
X23193Y-24121D01*
X23365Y-24050D01*
X23497Y-23918D01*
X23569Y-23746D01*
X23569Y-26255D01*
X23498Y-26083D01*
X23366Y-25951D01*
X23194Y-25879D01*
X23007Y-25879D01*
X22835Y-25950D01*
X22703Y-26082D01*
X22631Y-26254D01*
X22631Y-26441D01*
X22631Y-26745D01*
X22702Y-26917D01*
X22834Y-27049D01*
X23006Y-27121D01*
X23193Y-27121D01*
X23365Y-27050D01*
X23497Y-26918D01*
X23569Y-26746D01*
X23569Y-43064D01*
X22578Y-43064D01*
X22578Y-26984D01*
X22578Y-26917D01*
X22578Y-26017D01*
X22553Y-25955D01*
X22505Y-25908D01*
X22444Y-25882D01*
X22377Y-25882D01*
X21757Y-25882D01*
X21695Y-25907D01*
X21648Y-25955D01*
X21622Y-26016D01*
X21622Y-26083D01*
X21622Y-26983D01*
X21647Y-27045D01*
X21695Y-27092D01*
X21756Y-27118D01*
X21823Y-27118D01*
X22443Y-27118D01*
X22505Y-27093D01*
X22552Y-27045D01*
X22578Y-26984D01*
X22578Y-43064D01*
X22442Y-43064D01*
X22442Y-30688D01*
X22442Y-30512D01*
X22442Y-28688D01*
X22442Y-28512D01*
X22375Y-28350D01*
X22250Y-28225D01*
X22088Y-28158D01*
X21912Y-28158D01*
X21750Y-28225D01*
X21625Y-28350D01*
X21558Y-28512D01*
X21558Y-28688D01*
X21625Y-28850D01*
X21750Y-28975D01*
X21912Y-29042D01*
X22088Y-29042D01*
X22250Y-28975D01*
X22375Y-28850D01*
X22442Y-28688D01*
X22442Y-30512D01*
X22375Y-30350D01*
X22250Y-30225D01*
X22088Y-30158D01*
X21912Y-30158D01*
X21750Y-30225D01*
X21625Y-30350D01*
X21558Y-30512D01*
X21558Y-30688D01*
X21625Y-30850D01*
X21750Y-30975D01*
X21912Y-31042D01*
X22088Y-31042D01*
X22250Y-30975D01*
X22375Y-30850D01*
X22442Y-30688D01*
X22442Y-43064D01*
X20934Y-43064D01*
X20934Y-40466D01*
X20934Y-40243D01*
X20934Y-38498D01*
X20934Y-38275D01*
X20934Y-34954D01*
X20934Y-34731D01*
X20934Y-32986D01*
X20934Y-32763D01*
X20868Y-32603D01*
X20868Y-28893D01*
X20868Y-28707D01*
X20868Y-24893D01*
X20868Y-24707D01*
X20797Y-24535D01*
X20665Y-24403D01*
X20493Y-24332D01*
X20307Y-24332D01*
X20135Y-24403D01*
X20003Y-24535D01*
X19932Y-24707D01*
X19932Y-24893D01*
X20003Y-25065D01*
X20135Y-25197D01*
X20307Y-25268D01*
X20493Y-25268D01*
X20665Y-25197D01*
X20797Y-25065D01*
X20868Y-24893D01*
X20868Y-28707D01*
X20797Y-28535D01*
X20665Y-28403D01*
X20493Y-28332D01*
X20307Y-28332D01*
X20135Y-28403D01*
X20003Y-28535D01*
X19932Y-28707D01*
X19932Y-28893D01*
X20003Y-29065D01*
X20135Y-29197D01*
X20307Y-29268D01*
X20493Y-29268D01*
X20665Y-29197D01*
X20797Y-29065D01*
X20868Y-28893D01*
X20868Y-32603D01*
X20849Y-32557D01*
X20691Y-32400D01*
X20486Y-32314D01*
X20263Y-32314D01*
X20057Y-32399D01*
X19900Y-32557D01*
X19814Y-32762D01*
X19814Y-32985D01*
X19899Y-33191D01*
X20057Y-33348D01*
X20262Y-33434D01*
X20485Y-33434D01*
X20691Y-33349D01*
X20848Y-33191D01*
X20934Y-32986D01*
X20934Y-34731D01*
X20849Y-34525D01*
X20691Y-34368D01*
X20486Y-34282D01*
X20263Y-34282D01*
X20057Y-34367D01*
X19900Y-34525D01*
X19814Y-34730D01*
X19814Y-34953D01*
X19899Y-35159D01*
X20057Y-35316D01*
X20262Y-35402D01*
X20485Y-35402D01*
X20691Y-35317D01*
X20848Y-35159D01*
X20934Y-34954D01*
X20934Y-38275D01*
X20849Y-38069D01*
X20691Y-37912D01*
X20486Y-37826D01*
X20263Y-37826D01*
X20057Y-37911D01*
X19900Y-38069D01*
X19814Y-38274D01*
X19814Y-38497D01*
X19899Y-38703D01*
X20057Y-38860D01*
X20262Y-38946D01*
X20485Y-38946D01*
X20691Y-38861D01*
X20848Y-38703D01*
X20934Y-38498D01*
X20934Y-40243D01*
X20849Y-40037D01*
X20691Y-39880D01*
X20486Y-39794D01*
X20263Y-39794D01*
X20057Y-39879D01*
X19900Y-40037D01*
X19814Y-40242D01*
X19814Y-40465D01*
X19899Y-40671D01*
X20057Y-40828D01*
X20262Y-40914D01*
X20485Y-40914D01*
X20691Y-40829D01*
X20848Y-40671D01*
X20934Y-40466D01*
X20934Y-43064D01*
X17937Y-43064D01*
X18130Y-42602D01*
X18130Y-42046D01*
X17918Y-41532D01*
X17525Y-41139D01*
X17475Y-41118D01*
X17475Y-34062D01*
X17475Y-33838D01*
X17474Y-33626D01*
X17436Y-33534D01*
X17366Y-33464D01*
X17275Y-33426D01*
X17176Y-33426D01*
X17062Y-33425D01*
X17000Y-33487D01*
X17000Y-33900D01*
X17413Y-33900D01*
X17475Y-33838D01*
X17475Y-34062D01*
X17413Y-34000D01*
X17050Y-34000D01*
X17000Y-34000D01*
X16900Y-34000D01*
X16900Y-33900D01*
X16900Y-33487D01*
X16838Y-33425D01*
X16724Y-33426D01*
X16625Y-33426D01*
X16534Y-33464D01*
X16464Y-33534D01*
X16426Y-33626D01*
X16425Y-33838D01*
X16487Y-33900D01*
X16900Y-33900D01*
X16900Y-34000D01*
X16850Y-34000D01*
X16487Y-34000D01*
X16425Y-34062D01*
X16426Y-34274D01*
X16464Y-34366D01*
X16534Y-34436D01*
X16625Y-34474D01*
X16724Y-34474D01*
X16741Y-34474D01*
X16683Y-34498D01*
X16660Y-34589D01*
X16950Y-34879D01*
X17240Y-34589D01*
X17217Y-34498D01*
X17148Y-34474D01*
X17176Y-34474D01*
X17275Y-34474D01*
X17366Y-34436D01*
X17436Y-34366D01*
X17474Y-34274D01*
X17475Y-34062D01*
X17475Y-41118D01*
X17469Y-41115D01*
X17469Y-35024D01*
X17458Y-34820D01*
X17402Y-34683D01*
X17311Y-34660D01*
X17021Y-34950D01*
X17311Y-35240D01*
X17402Y-35217D01*
X17469Y-35024D01*
X17469Y-41115D01*
X17392Y-41083D01*
X17392Y-39038D01*
X17392Y-38862D01*
X17392Y-38038D01*
X17392Y-37862D01*
X17392Y-37038D01*
X17392Y-36862D01*
X17392Y-36038D01*
X17392Y-35862D01*
X17325Y-35700D01*
X17240Y-35615D01*
X17240Y-35311D01*
X16950Y-35021D01*
X16879Y-35092D01*
X16879Y-34950D01*
X16589Y-34660D01*
X16498Y-34683D01*
X16431Y-34876D01*
X16442Y-35080D01*
X16498Y-35217D01*
X16589Y-35240D01*
X16879Y-34950D01*
X16879Y-35092D01*
X16660Y-35311D01*
X16683Y-35402D01*
X16876Y-35469D01*
X17080Y-35458D01*
X17217Y-35402D01*
X17240Y-35311D01*
X17240Y-35615D01*
X17200Y-35575D01*
X17038Y-35508D01*
X16862Y-35508D01*
X16700Y-35575D01*
X16575Y-35700D01*
X16508Y-35862D01*
X16508Y-36038D01*
X16575Y-36200D01*
X16700Y-36325D01*
X16862Y-36392D01*
X17038Y-36392D01*
X17200Y-36325D01*
X17325Y-36200D01*
X17392Y-36038D01*
X17392Y-36862D01*
X17325Y-36700D01*
X17200Y-36575D01*
X17038Y-36508D01*
X16862Y-36508D01*
X16700Y-36575D01*
X16575Y-36700D01*
X16508Y-36862D01*
X16508Y-37038D01*
X16575Y-37200D01*
X16700Y-37325D01*
X16862Y-37392D01*
X17038Y-37392D01*
X17200Y-37325D01*
X17325Y-37200D01*
X17392Y-37038D01*
X17392Y-37862D01*
X17325Y-37700D01*
X17200Y-37575D01*
X17038Y-37508D01*
X16862Y-37508D01*
X16700Y-37575D01*
X16575Y-37700D01*
X16508Y-37862D01*
X16508Y-38038D01*
X16575Y-38200D01*
X16700Y-38325D01*
X16862Y-38392D01*
X17038Y-38392D01*
X17200Y-38325D01*
X17325Y-38200D01*
X17392Y-38038D01*
X17392Y-38862D01*
X17325Y-38700D01*
X17200Y-38575D01*
X17038Y-38508D01*
X16862Y-38508D01*
X16700Y-38575D01*
X16575Y-38700D01*
X16508Y-38862D01*
X16508Y-39038D01*
X16575Y-39200D01*
X16700Y-39325D01*
X16862Y-39392D01*
X17038Y-39392D01*
X17200Y-39325D01*
X17325Y-39200D01*
X17392Y-39038D01*
X17392Y-41083D01*
X17011Y-40925D01*
X16455Y-40925D01*
X15991Y-41116D01*
X15991Y-30142D01*
X16453Y-30335D01*
X17009Y-30335D01*
X17523Y-30123D01*
X17916Y-29730D01*
X18130Y-29216D01*
X18130Y-28660D01*
X17918Y-28146D01*
X17525Y-27753D01*
X17519Y-27750D01*
X17519Y-21774D01*
X17508Y-21570D01*
X17452Y-21433D01*
X17361Y-21410D01*
X17290Y-21481D01*
X17290Y-21339D01*
X17267Y-21248D01*
X17074Y-21181D01*
X16870Y-21192D01*
X16733Y-21248D01*
X16710Y-21339D01*
X17000Y-21629D01*
X17290Y-21339D01*
X17290Y-21481D01*
X17071Y-21700D01*
X17361Y-21990D01*
X17452Y-21967D01*
X17519Y-21774D01*
X17519Y-27750D01*
X17443Y-27718D01*
X17443Y-25009D01*
X17443Y-24942D01*
X17443Y-24392D01*
X17442Y-24389D01*
X17442Y-23788D01*
X17442Y-23612D01*
X17442Y-22788D01*
X17442Y-22612D01*
X17375Y-22450D01*
X17290Y-22365D01*
X17290Y-22061D01*
X17000Y-21771D01*
X16929Y-21842D01*
X16929Y-21700D01*
X16639Y-21410D01*
X16548Y-21433D01*
X16481Y-21626D01*
X16492Y-21830D01*
X16548Y-21967D01*
X16639Y-21990D01*
X16929Y-21700D01*
X16929Y-21842D01*
X16710Y-22061D01*
X16733Y-22152D01*
X16926Y-22219D01*
X17130Y-22208D01*
X17267Y-22152D01*
X17290Y-22061D01*
X17290Y-22365D01*
X17250Y-22325D01*
X17088Y-22258D01*
X16912Y-22258D01*
X16750Y-22325D01*
X16625Y-22450D01*
X16558Y-22612D01*
X16558Y-22788D01*
X16625Y-22950D01*
X16750Y-23075D01*
X16912Y-23142D01*
X17088Y-23142D01*
X17250Y-23075D01*
X17375Y-22950D01*
X17442Y-22788D01*
X17442Y-23612D01*
X17375Y-23450D01*
X17250Y-23325D01*
X17088Y-23258D01*
X16912Y-23258D01*
X16750Y-23325D01*
X16625Y-23450D01*
X16558Y-23612D01*
X16558Y-23788D01*
X16625Y-23950D01*
X16750Y-24075D01*
X16912Y-24142D01*
X17088Y-24142D01*
X17250Y-24075D01*
X17375Y-23950D01*
X17442Y-23788D01*
X17442Y-24389D01*
X17418Y-24330D01*
X17370Y-24283D01*
X17309Y-24257D01*
X17242Y-24257D01*
X16692Y-24257D01*
X16630Y-24282D01*
X16583Y-24330D01*
X16557Y-24391D01*
X16557Y-24458D01*
X16557Y-25008D01*
X16582Y-25070D01*
X16630Y-25117D01*
X16691Y-25143D01*
X16758Y-25143D01*
X17308Y-25143D01*
X17370Y-25118D01*
X17417Y-25070D01*
X17443Y-25009D01*
X17443Y-27718D01*
X17011Y-27539D01*
X16455Y-27539D01*
X15991Y-27730D01*
X15991Y-17937D01*
X16453Y-18130D01*
X17009Y-18130D01*
X17523Y-17918D01*
X17916Y-17525D01*
X18130Y-17011D01*
X18130Y-16455D01*
X17938Y-15991D01*
X45172Y-15991D01*
X44980Y-16453D01*
X44980Y-17009D01*
X45192Y-17523D01*
X45585Y-17916D01*
X46099Y-18130D01*
X46655Y-18130D01*
X47119Y-17938D01*
X47119Y-27731D01*
X46843Y-27616D01*
X46843Y-26079D01*
X46832Y-25866D01*
X46772Y-25719D01*
X46768Y-25717D01*
X46768Y-25093D01*
X46768Y-24907D01*
X46768Y-24093D01*
X46768Y-23907D01*
X46743Y-23846D01*
X46743Y-21409D01*
X46743Y-21342D01*
X46743Y-20792D01*
X46742Y-20789D01*
X46742Y-20188D01*
X46742Y-20012D01*
X46675Y-19850D01*
X46550Y-19725D01*
X46388Y-19658D01*
X46212Y-19658D01*
X46050Y-19725D01*
X45925Y-19850D01*
X45858Y-20012D01*
X45858Y-20188D01*
X45925Y-20350D01*
X46050Y-20475D01*
X46212Y-20542D01*
X46388Y-20542D01*
X46550Y-20475D01*
X46675Y-20350D01*
X46742Y-20188D01*
X46742Y-20789D01*
X46718Y-20730D01*
X46670Y-20683D01*
X46609Y-20657D01*
X46542Y-20657D01*
X45992Y-20657D01*
X45930Y-20682D01*
X45883Y-20730D01*
X45857Y-20791D01*
X45857Y-20858D01*
X45857Y-21408D01*
X45882Y-21470D01*
X45930Y-21517D01*
X45991Y-21543D01*
X46058Y-21543D01*
X46608Y-21543D01*
X46670Y-21518D01*
X46717Y-21470D01*
X46743Y-21409D01*
X46743Y-23846D01*
X46697Y-23735D01*
X46565Y-23603D01*
X46393Y-23532D01*
X46207Y-23532D01*
X46035Y-23603D01*
X45903Y-23735D01*
X45832Y-23907D01*
X45832Y-24093D01*
X45903Y-24265D01*
X46035Y-24397D01*
X46207Y-24468D01*
X46393Y-24468D01*
X46565Y-24397D01*
X46697Y-24265D01*
X46768Y-24093D01*
X46768Y-24907D01*
X46697Y-24735D01*
X46565Y-24603D01*
X46393Y-24532D01*
X46207Y-24532D01*
X46035Y-24603D01*
X45903Y-24735D01*
X45832Y-24907D01*
X45832Y-25093D01*
X45903Y-25265D01*
X46035Y-25397D01*
X46202Y-25466D01*
X46166Y-25468D01*
X46019Y-25528D01*
X45992Y-25622D01*
X46300Y-25929D01*
X46608Y-25622D01*
X46581Y-25528D01*
X46400Y-25464D01*
X46565Y-25397D01*
X46697Y-25265D01*
X46768Y-25093D01*
X46768Y-25717D01*
X46678Y-25692D01*
X46371Y-26000D01*
X46678Y-26308D01*
X46772Y-26281D01*
X46843Y-26079D01*
X46843Y-27616D01*
X46657Y-27539D01*
X46608Y-27539D01*
X46608Y-26378D01*
X46300Y-26071D01*
X46229Y-26141D01*
X46229Y-26000D01*
X45922Y-25692D01*
X45828Y-25719D01*
X45768Y-25887D01*
X45768Y-25093D01*
X45768Y-24907D01*
X45768Y-24334D01*
X45768Y-24267D01*
X45768Y-23667D01*
X45743Y-23605D01*
X45695Y-23558D01*
X45634Y-23532D01*
X45567Y-23532D01*
X44967Y-23532D01*
X44905Y-23557D01*
X44858Y-23605D01*
X44832Y-23666D01*
X44832Y-23733D01*
X44832Y-24333D01*
X44857Y-24395D01*
X44905Y-24442D01*
X44966Y-24468D01*
X45033Y-24468D01*
X45633Y-24468D01*
X45695Y-24443D01*
X45742Y-24395D01*
X45768Y-24334D01*
X45768Y-24907D01*
X45697Y-24735D01*
X45565Y-24603D01*
X45393Y-24532D01*
X45207Y-24532D01*
X45035Y-24603D01*
X44903Y-24735D01*
X44832Y-24907D01*
X44832Y-25093D01*
X44903Y-25265D01*
X45035Y-25397D01*
X45207Y-25468D01*
X45393Y-25468D01*
X45565Y-25397D01*
X45697Y-25265D01*
X45768Y-25093D01*
X45768Y-25887D01*
X45764Y-25899D01*
X45697Y-25735D01*
X45565Y-25603D01*
X45393Y-25532D01*
X45207Y-25532D01*
X45035Y-25603D01*
X44903Y-25735D01*
X44832Y-25907D01*
X44832Y-26093D01*
X44903Y-26265D01*
X45035Y-26397D01*
X45207Y-26468D01*
X45393Y-26468D01*
X45565Y-26397D01*
X45697Y-26265D01*
X45766Y-26097D01*
X45768Y-26134D01*
X45828Y-26281D01*
X45922Y-26308D01*
X46229Y-26000D01*
X46229Y-26141D01*
X45992Y-26378D01*
X46019Y-26472D01*
X46221Y-26543D01*
X46434Y-26532D01*
X46581Y-26472D01*
X46608Y-26378D01*
X46608Y-27539D01*
X46101Y-27539D01*
X45587Y-27751D01*
X45194Y-28144D01*
X44980Y-28658D01*
X44980Y-29214D01*
X45192Y-29728D01*
X45585Y-30121D01*
X46099Y-30335D01*
X46655Y-30335D01*
X47119Y-30143D01*
X47119Y-41117D01*
X47119Y-41117D01*
G37*
G54D22*
X47119Y-41117D02*
X46657Y-40925D01*
X46101Y-40925D01*
X45587Y-41137D01*
X45194Y-41530D01*
X44980Y-42044D01*
X44980Y-42600D01*
X45171Y-43064D01*
X44675Y-43064D01*
X44675Y-16844D01*
X44675Y-16620D01*
X44674Y-16506D01*
X44674Y-16407D01*
X44636Y-16316D01*
X44566Y-16246D01*
X44474Y-16208D01*
X44262Y-16207D01*
X44200Y-16269D01*
X44200Y-16682D01*
X44613Y-16682D01*
X44675Y-16620D01*
X44675Y-16844D01*
X44613Y-16782D01*
X44200Y-16782D01*
X44200Y-17195D01*
X44262Y-17257D01*
X44474Y-17256D01*
X44566Y-17218D01*
X44636Y-17148D01*
X44674Y-17057D01*
X44674Y-16958D01*
X44675Y-16844D01*
X44675Y-43064D01*
X44149Y-43064D01*
X44149Y-20888D01*
X44149Y-20712D01*
X44100Y-20593D01*
X44100Y-17195D01*
X44100Y-16782D01*
X44100Y-16682D01*
X44100Y-16269D01*
X44038Y-16207D01*
X43826Y-16208D01*
X43734Y-16246D01*
X43664Y-16316D01*
X43626Y-16407D01*
X43626Y-16506D01*
X43625Y-16620D01*
X43687Y-16682D01*
X44100Y-16682D01*
X44100Y-16782D01*
X43687Y-16782D01*
X43625Y-16844D01*
X43626Y-16958D01*
X43626Y-17057D01*
X43664Y-17148D01*
X43734Y-17218D01*
X43826Y-17256D01*
X44038Y-17257D01*
X44100Y-17195D01*
X44100Y-20593D01*
X44082Y-20550D01*
X43957Y-20425D01*
X43795Y-20358D01*
X43619Y-20358D01*
X43592Y-20369D01*
X43592Y-16820D01*
X43592Y-16644D01*
X43525Y-16482D01*
X43400Y-16357D01*
X43238Y-16290D01*
X43062Y-16290D01*
X42900Y-16357D01*
X42775Y-16482D01*
X42708Y-16644D01*
X42708Y-16820D01*
X42775Y-16982D01*
X42900Y-17107D01*
X43062Y-17174D01*
X43238Y-17174D01*
X43400Y-17107D01*
X43525Y-16982D01*
X43592Y-16820D01*
X43592Y-20369D01*
X43457Y-20425D01*
X43332Y-20550D01*
X43265Y-20712D01*
X43265Y-20888D01*
X43332Y-21050D01*
X43457Y-21175D01*
X43619Y-21242D01*
X43795Y-21242D01*
X43957Y-21175D01*
X44082Y-21050D01*
X44149Y-20888D01*
X44149Y-43064D01*
X43942Y-43064D01*
X43942Y-22768D01*
X43942Y-22632D01*
X43890Y-22506D01*
X43794Y-22410D01*
X43668Y-22358D01*
X43532Y-22358D01*
X43508Y-22367D01*
X43508Y-21638D01*
X43508Y-21376D01*
X43419Y-21192D01*
X43267Y-21056D01*
X43131Y-20999D01*
X43050Y-21047D01*
X43050Y-21457D01*
X43460Y-21457D01*
X43508Y-21376D01*
X43508Y-21638D01*
X43460Y-21557D01*
X43050Y-21557D01*
X43050Y-21967D01*
X43131Y-22015D01*
X43315Y-21926D01*
X43451Y-21774D01*
X43508Y-21638D01*
X43508Y-22367D01*
X43406Y-22410D01*
X43382Y-22434D01*
X42950Y-22434D01*
X42950Y-21967D01*
X42950Y-21557D01*
X42950Y-21457D01*
X42950Y-21047D01*
X42869Y-20999D01*
X42685Y-21088D01*
X42549Y-21240D01*
X42492Y-21376D01*
X42540Y-21457D01*
X42950Y-21457D01*
X42950Y-21557D01*
X42540Y-21557D01*
X42492Y-21638D01*
X42581Y-21822D01*
X42733Y-21958D01*
X42869Y-22015D01*
X42950Y-21967D01*
X42950Y-22434D01*
X42466Y-22434D01*
X42466Y-21400D01*
X42466Y-20182D01*
X42468Y-20188D01*
X42516Y-20235D01*
X42905Y-20624D01*
X42966Y-20650D01*
X43033Y-20649D01*
X43095Y-20625D01*
X43142Y-20577D01*
X43531Y-20188D01*
X43557Y-20127D01*
X43556Y-20060D01*
X43532Y-19998D01*
X43484Y-19951D01*
X43095Y-19562D01*
X43034Y-19536D01*
X42967Y-19537D01*
X42905Y-19561D01*
X42858Y-19609D01*
X42592Y-19875D01*
X42592Y-16820D01*
X42592Y-16644D01*
X42525Y-16482D01*
X42400Y-16357D01*
X42238Y-16290D01*
X42062Y-16290D01*
X41900Y-16357D01*
X41775Y-16482D01*
X41708Y-16644D01*
X41708Y-16820D01*
X41775Y-16982D01*
X41900Y-17107D01*
X42062Y-17174D01*
X42238Y-17174D01*
X42400Y-17107D01*
X42525Y-16982D01*
X42592Y-16820D01*
X42592Y-19875D01*
X42469Y-19998D01*
X42466Y-20005D01*
X42466Y-19418D01*
X42490Y-19394D01*
X42542Y-19268D01*
X42542Y-19132D01*
X42490Y-19006D01*
X42394Y-18910D01*
X42268Y-18858D01*
X42132Y-18858D01*
X42006Y-18910D01*
X41910Y-19006D01*
X41858Y-19132D01*
X41858Y-19268D01*
X41910Y-19394D01*
X41934Y-19418D01*
X41934Y-20112D01*
X41890Y-20006D01*
X41794Y-19910D01*
X41668Y-19858D01*
X41592Y-19858D01*
X41592Y-16820D01*
X41592Y-16644D01*
X41525Y-16482D01*
X41400Y-16357D01*
X41238Y-16290D01*
X41062Y-16290D01*
X40900Y-16357D01*
X40775Y-16482D01*
X40708Y-16644D01*
X40708Y-16820D01*
X40775Y-16982D01*
X40900Y-17107D01*
X41062Y-17174D01*
X41238Y-17174D01*
X41400Y-17107D01*
X41525Y-16982D01*
X41592Y-16820D01*
X41592Y-19858D01*
X41532Y-19858D01*
X41406Y-19910D01*
X41310Y-20006D01*
X41258Y-20132D01*
X41258Y-20268D01*
X41310Y-20394D01*
X41334Y-20418D01*
X41334Y-21400D01*
X41334Y-23782D01*
X41310Y-23806D01*
X41258Y-23932D01*
X41258Y-24068D01*
X41310Y-24194D01*
X41406Y-24290D01*
X41532Y-24342D01*
X41668Y-24342D01*
X41794Y-24290D01*
X41890Y-24194D01*
X41934Y-24087D01*
X41934Y-24582D01*
X41910Y-24606D01*
X41858Y-24732D01*
X41858Y-24868D01*
X41910Y-24994D01*
X42006Y-25090D01*
X42132Y-25142D01*
X42268Y-25142D01*
X42394Y-25090D01*
X42490Y-24994D01*
X42542Y-24868D01*
X42542Y-24732D01*
X42490Y-24606D01*
X42466Y-24582D01*
X42466Y-22966D01*
X43382Y-22966D01*
X43406Y-22990D01*
X43532Y-23042D01*
X43668Y-23042D01*
X43794Y-22990D01*
X43890Y-22894D01*
X43942Y-22768D01*
X43942Y-43064D01*
X43178Y-43064D01*
X43178Y-40466D01*
X43178Y-40243D01*
X43178Y-38498D01*
X43178Y-38275D01*
X43178Y-34954D01*
X43178Y-34731D01*
X43178Y-32986D01*
X43178Y-32763D01*
X43093Y-32557D01*
X42935Y-32400D01*
X42730Y-32314D01*
X42507Y-32314D01*
X42301Y-32399D01*
X42144Y-32557D01*
X42058Y-32762D01*
X42058Y-32985D01*
X42143Y-33191D01*
X42301Y-33348D01*
X42506Y-33434D01*
X42729Y-33434D01*
X42935Y-33349D01*
X43092Y-33191D01*
X43178Y-32986D01*
X43178Y-34731D01*
X43093Y-34525D01*
X42935Y-34368D01*
X42730Y-34282D01*
X42507Y-34282D01*
X42301Y-34367D01*
X42144Y-34525D01*
X42058Y-34730D01*
X42058Y-34953D01*
X42143Y-35159D01*
X42301Y-35316D01*
X42506Y-35402D01*
X42729Y-35402D01*
X42935Y-35317D01*
X43092Y-35159D01*
X43178Y-34954D01*
X43178Y-38275D01*
X43093Y-38069D01*
X42935Y-37912D01*
X42730Y-37826D01*
X42507Y-37826D01*
X42301Y-37911D01*
X42144Y-38069D01*
X42058Y-38274D01*
X42058Y-38497D01*
X42143Y-38703D01*
X42301Y-38860D01*
X42506Y-38946D01*
X42729Y-38946D01*
X42935Y-38861D01*
X43092Y-38703D01*
X43178Y-38498D01*
X43178Y-40243D01*
X43093Y-40037D01*
X42935Y-39880D01*
X42730Y-39794D01*
X42507Y-39794D01*
X42301Y-39879D01*
X42144Y-40037D01*
X42058Y-40242D01*
X42058Y-40465D01*
X42143Y-40671D01*
X42301Y-40828D01*
X42506Y-40914D01*
X42729Y-40914D01*
X42935Y-40829D01*
X43092Y-40671D01*
X43178Y-40466D01*
X43178Y-43064D01*
X40669Y-43064D01*
X40669Y-16806D01*
X40658Y-16602D01*
X40602Y-16465D01*
X40511Y-16442D01*
X40440Y-16513D01*
X40440Y-16371D01*
X40417Y-16280D01*
X40224Y-16213D01*
X40020Y-16224D01*
X39883Y-16280D01*
X39860Y-16371D01*
X40150Y-16661D01*
X40440Y-16371D01*
X40440Y-16513D01*
X40221Y-16732D01*
X40511Y-17022D01*
X40602Y-16999D01*
X40669Y-16806D01*
X40669Y-43064D01*
X40519Y-43064D01*
X40519Y-26252D01*
X40508Y-26048D01*
X40452Y-25911D01*
X40443Y-25908D01*
X40443Y-25109D01*
X40443Y-25042D01*
X40443Y-24492D01*
X40440Y-24484D01*
X40440Y-17093D01*
X40150Y-16803D01*
X40079Y-16874D01*
X40079Y-16732D01*
X39789Y-16442D01*
X39698Y-16465D01*
X39631Y-16658D01*
X39642Y-16862D01*
X39698Y-16999D01*
X39789Y-17022D01*
X40079Y-16732D01*
X40079Y-16874D01*
X39860Y-17093D01*
X39883Y-17184D01*
X40076Y-17251D01*
X40280Y-17240D01*
X40417Y-17184D01*
X40440Y-17093D01*
X40440Y-24484D01*
X40418Y-24430D01*
X40370Y-24383D01*
X40309Y-24357D01*
X40242Y-24357D01*
X39692Y-24357D01*
X39630Y-24382D01*
X39592Y-24420D01*
X39592Y-16820D01*
X39592Y-16644D01*
X39525Y-16482D01*
X39400Y-16357D01*
X39238Y-16290D01*
X39062Y-16290D01*
X38900Y-16357D01*
X38775Y-16482D01*
X38708Y-16644D01*
X38708Y-16820D01*
X38775Y-16982D01*
X38884Y-17091D01*
X38884Y-19732D01*
X38810Y-19806D01*
X38758Y-19932D01*
X38758Y-20068D01*
X38810Y-20194D01*
X38906Y-20290D01*
X39032Y-20342D01*
X39168Y-20342D01*
X39294Y-20290D01*
X39390Y-20194D01*
X39442Y-20068D01*
X39442Y-19932D01*
X39416Y-19869D01*
X39416Y-17091D01*
X39525Y-16982D01*
X39592Y-16820D01*
X39592Y-24420D01*
X39583Y-24430D01*
X39557Y-24491D01*
X39557Y-24558D01*
X39557Y-25108D01*
X39582Y-25170D01*
X39630Y-25217D01*
X39691Y-25243D01*
X39758Y-25243D01*
X40308Y-25243D01*
X40370Y-25218D01*
X40417Y-25170D01*
X40443Y-25109D01*
X40443Y-25908D01*
X40361Y-25888D01*
X40290Y-25959D01*
X40290Y-25817D01*
X40267Y-25726D01*
X40074Y-25659D01*
X39870Y-25670D01*
X39733Y-25726D01*
X39710Y-25817D01*
X40000Y-26107D01*
X40290Y-25817D01*
X40290Y-25959D01*
X40071Y-26178D01*
X40361Y-26468D01*
X40452Y-26445D01*
X40519Y-26252D01*
X40519Y-43064D01*
X40290Y-43064D01*
X40290Y-26539D01*
X40000Y-26249D01*
X39929Y-26320D01*
X39929Y-26178D01*
X39639Y-25888D01*
X39548Y-25911D01*
X39481Y-26104D01*
X39492Y-26308D01*
X39548Y-26445D01*
X39639Y-26468D01*
X39929Y-26178D01*
X39929Y-26320D01*
X39710Y-26539D01*
X39733Y-26630D01*
X39926Y-26697D01*
X40130Y-26686D01*
X40267Y-26630D01*
X40290Y-26539D01*
X40290Y-43064D01*
X38669Y-43064D01*
X38669Y-16806D01*
X38658Y-16602D01*
X38602Y-16465D01*
X38511Y-16442D01*
X38440Y-16513D01*
X38440Y-16371D01*
X38417Y-16280D01*
X38224Y-16213D01*
X38020Y-16224D01*
X37883Y-16280D01*
X37860Y-16371D01*
X38150Y-16661D01*
X38440Y-16371D01*
X38440Y-16513D01*
X38221Y-16732D01*
X38511Y-17022D01*
X38602Y-16999D01*
X38669Y-16806D01*
X38669Y-43064D01*
X38440Y-43064D01*
X38440Y-17093D01*
X38150Y-16803D01*
X38079Y-16874D01*
X38079Y-16732D01*
X37789Y-16442D01*
X37698Y-16465D01*
X37653Y-16591D01*
X37602Y-16465D01*
X37511Y-16442D01*
X37440Y-16513D01*
X37440Y-16371D01*
X37417Y-16280D01*
X37224Y-16213D01*
X37020Y-16224D01*
X36883Y-16280D01*
X36860Y-16371D01*
X37150Y-16661D01*
X37440Y-16371D01*
X37440Y-16513D01*
X37221Y-16732D01*
X37511Y-17022D01*
X37602Y-16999D01*
X37646Y-16872D01*
X37698Y-16999D01*
X37789Y-17022D01*
X38079Y-16732D01*
X38079Y-16874D01*
X37860Y-17093D01*
X37883Y-17184D01*
X38076Y-17251D01*
X38280Y-17240D01*
X38417Y-17184D01*
X38440Y-17093D01*
X38440Y-43064D01*
X38256Y-43064D01*
X38256Y-40466D01*
X38256Y-40243D01*
X38256Y-38498D01*
X38256Y-38275D01*
X38256Y-34954D01*
X38256Y-34731D01*
X38256Y-32986D01*
X38256Y-32763D01*
X38171Y-32557D01*
X38013Y-32400D01*
X37808Y-32314D01*
X37585Y-32314D01*
X37440Y-32373D01*
X37440Y-17093D01*
X37150Y-16803D01*
X37079Y-16874D01*
X37079Y-16732D01*
X36789Y-16442D01*
X36698Y-16465D01*
X36653Y-16591D01*
X36602Y-16465D01*
X36511Y-16442D01*
X36440Y-16513D01*
X36440Y-16371D01*
X36417Y-16280D01*
X36224Y-16213D01*
X36020Y-16224D01*
X35883Y-16280D01*
X35860Y-16371D01*
X36150Y-16661D01*
X36440Y-16371D01*
X36440Y-16513D01*
X36221Y-16732D01*
X36511Y-17022D01*
X36602Y-16999D01*
X36646Y-16872D01*
X36698Y-16999D01*
X36789Y-17022D01*
X37079Y-16732D01*
X37079Y-16874D01*
X36860Y-17093D01*
X36883Y-17184D01*
X37076Y-17251D01*
X37280Y-17240D01*
X37417Y-17184D01*
X37440Y-17093D01*
X37440Y-32373D01*
X37379Y-32399D01*
X37222Y-32557D01*
X37136Y-32762D01*
X37136Y-32985D01*
X37221Y-33191D01*
X37379Y-33348D01*
X37584Y-33434D01*
X37807Y-33434D01*
X38013Y-33349D01*
X38170Y-33191D01*
X38256Y-32986D01*
X38256Y-34731D01*
X38171Y-34525D01*
X38013Y-34368D01*
X37808Y-34282D01*
X37585Y-34282D01*
X37379Y-34367D01*
X37222Y-34525D01*
X37136Y-34730D01*
X37136Y-34953D01*
X37221Y-35159D01*
X37379Y-35316D01*
X37584Y-35402D01*
X37807Y-35402D01*
X38013Y-35317D01*
X38170Y-35159D01*
X38256Y-34954D01*
X38256Y-38275D01*
X38171Y-38069D01*
X38013Y-37912D01*
X37808Y-37826D01*
X37585Y-37826D01*
X37379Y-37911D01*
X37222Y-38069D01*
X37136Y-38274D01*
X37136Y-38497D01*
X37221Y-38703D01*
X37379Y-38860D01*
X37584Y-38946D01*
X37807Y-38946D01*
X38013Y-38861D01*
X38170Y-38703D01*
X38256Y-38498D01*
X38256Y-40243D01*
X38171Y-40037D01*
X38013Y-39880D01*
X37808Y-39794D01*
X37585Y-39794D01*
X37379Y-39879D01*
X37222Y-40037D01*
X37136Y-40242D01*
X37136Y-40465D01*
X37221Y-40671D01*
X37379Y-40828D01*
X37584Y-40914D01*
X37807Y-40914D01*
X38013Y-40829D01*
X38170Y-40671D01*
X38256Y-40466D01*
X38256Y-43064D01*
X36440Y-43064D01*
X36440Y-17093D01*
X36150Y-16803D01*
X36079Y-16874D01*
X36079Y-16732D01*
X35789Y-16442D01*
X35698Y-16465D01*
X35653Y-16591D01*
X35602Y-16465D01*
X35511Y-16442D01*
X35440Y-16513D01*
X35440Y-16371D01*
X35417Y-16280D01*
X35224Y-16213D01*
X35020Y-16224D01*
X34883Y-16280D01*
X34860Y-16371D01*
X35150Y-16661D01*
X35440Y-16371D01*
X35440Y-16513D01*
X35221Y-16732D01*
X35511Y-17022D01*
X35602Y-16999D01*
X35646Y-16872D01*
X35698Y-16999D01*
X35789Y-17022D01*
X36079Y-16732D01*
X36079Y-16874D01*
X35860Y-17093D01*
X35883Y-17184D01*
X36076Y-17251D01*
X36280Y-17240D01*
X36417Y-17184D01*
X36440Y-17093D01*
X36440Y-43064D01*
X35569Y-43064D01*
X35569Y-26746D01*
X35569Y-26559D01*
X35569Y-26255D01*
X35569Y-23746D01*
X35569Y-23559D01*
X35569Y-23255D01*
X35498Y-23083D01*
X35440Y-23025D01*
X35440Y-17093D01*
X35185Y-16838D01*
X35150Y-16803D01*
X35079Y-16732D01*
X35044Y-16697D01*
X34789Y-16442D01*
X34698Y-16465D01*
X34631Y-16658D01*
X34641Y-16847D01*
X34592Y-16798D01*
X34592Y-16644D01*
X34525Y-16482D01*
X34400Y-16357D01*
X34238Y-16290D01*
X34062Y-16290D01*
X33900Y-16357D01*
X33775Y-16482D01*
X33708Y-16644D01*
X33708Y-16820D01*
X33775Y-16982D01*
X33900Y-17107D01*
X34062Y-17174D01*
X34216Y-17174D01*
X34334Y-17292D01*
X34334Y-18800D01*
X34334Y-19000D01*
X34334Y-20982D01*
X34310Y-21006D01*
X34258Y-21132D01*
X34258Y-21268D01*
X34310Y-21394D01*
X34406Y-21490D01*
X34532Y-21542D01*
X34668Y-21542D01*
X34794Y-21490D01*
X34890Y-21394D01*
X34942Y-21268D01*
X34942Y-21132D01*
X34890Y-21006D01*
X34866Y-20982D01*
X34866Y-19000D01*
X34866Y-18800D01*
X34866Y-17182D01*
X34861Y-17161D01*
X34874Y-17148D01*
X34883Y-17184D01*
X35076Y-17251D01*
X35280Y-17240D01*
X35417Y-17184D01*
X35440Y-17093D01*
X35440Y-23025D01*
X35366Y-22951D01*
X35246Y-22901D01*
X35246Y-22898D01*
X35188Y-22812D01*
X34066Y-21690D01*
X34066Y-19200D01*
X34066Y-17818D01*
X34090Y-17794D01*
X34142Y-17668D01*
X34142Y-17532D01*
X34090Y-17406D01*
X33994Y-17310D01*
X33868Y-17258D01*
X33732Y-17258D01*
X33606Y-17310D01*
X33592Y-17324D01*
X33592Y-16820D01*
X33592Y-16644D01*
X33525Y-16482D01*
X33400Y-16357D01*
X33238Y-16290D01*
X33062Y-16290D01*
X32900Y-16357D01*
X32775Y-16482D01*
X32708Y-16644D01*
X32708Y-16820D01*
X32775Y-16982D01*
X32884Y-17091D01*
X32884Y-22929D01*
X32835Y-22950D01*
X32703Y-23082D01*
X32631Y-23254D01*
X32631Y-23441D01*
X32631Y-23745D01*
X32702Y-23917D01*
X32834Y-24049D01*
X33006Y-24121D01*
X33193Y-24121D01*
X33365Y-24050D01*
X33497Y-23918D01*
X33569Y-23746D01*
X33569Y-23559D01*
X33569Y-23255D01*
X33498Y-23083D01*
X33416Y-23001D01*
X33416Y-17091D01*
X33525Y-16982D01*
X33592Y-16820D01*
X33592Y-17324D01*
X33510Y-17406D01*
X33458Y-17532D01*
X33458Y-17668D01*
X33510Y-17794D01*
X33534Y-17818D01*
X33534Y-19200D01*
X33534Y-21800D01*
X33554Y-21902D01*
X33612Y-21988D01*
X34704Y-23080D01*
X34703Y-23082D01*
X34631Y-23254D01*
X34631Y-23441D01*
X34631Y-23745D01*
X34702Y-23917D01*
X34834Y-24049D01*
X35006Y-24121D01*
X35193Y-24121D01*
X35365Y-24050D01*
X35497Y-23918D01*
X35569Y-23746D01*
X35569Y-26255D01*
X35498Y-26083D01*
X35366Y-25951D01*
X35194Y-25879D01*
X35007Y-25879D01*
X34835Y-25950D01*
X34703Y-26082D01*
X34631Y-26254D01*
X34631Y-26441D01*
X34631Y-26745D01*
X34702Y-26917D01*
X34834Y-27049D01*
X35006Y-27121D01*
X35193Y-27121D01*
X35365Y-27050D01*
X35497Y-26918D01*
X35569Y-26746D01*
X35569Y-43064D01*
X34569Y-43064D01*
X34569Y-26746D01*
X34569Y-26559D01*
X34569Y-26255D01*
X34569Y-23746D01*
X34569Y-23559D01*
X34569Y-23255D01*
X34498Y-23083D01*
X34366Y-22951D01*
X34194Y-22879D01*
X34007Y-22879D01*
X33835Y-22950D01*
X33703Y-23082D01*
X33631Y-23254D01*
X33631Y-23441D01*
X33631Y-23745D01*
X33702Y-23917D01*
X33834Y-24049D01*
X34006Y-24121D01*
X34193Y-24121D01*
X34365Y-24050D01*
X34497Y-23918D01*
X34569Y-23746D01*
X34569Y-26255D01*
X34498Y-26083D01*
X34366Y-25951D01*
X34194Y-25879D01*
X34007Y-25879D01*
X33835Y-25950D01*
X33703Y-26082D01*
X33631Y-26254D01*
X33631Y-26441D01*
X33631Y-26745D01*
X33702Y-26917D01*
X33834Y-27049D01*
X34006Y-27121D01*
X34193Y-27121D01*
X34365Y-27050D01*
X34497Y-26918D01*
X34569Y-26746D01*
X34569Y-43064D01*
X34124Y-43064D01*
X34124Y-38013D01*
X34124Y-37774D01*
X34124Y-35454D01*
X34124Y-35215D01*
X34033Y-34994D01*
X33864Y-34826D01*
X33644Y-34734D01*
X33569Y-34734D01*
X33569Y-26746D01*
X33569Y-26559D01*
X33569Y-26255D01*
X33498Y-26083D01*
X33366Y-25951D01*
X33194Y-25879D01*
X33007Y-25879D01*
X32835Y-25950D01*
X32703Y-26082D01*
X32631Y-26254D01*
X32631Y-26441D01*
X32631Y-26745D01*
X32702Y-26917D01*
X32834Y-27049D01*
X33006Y-27121D01*
X33193Y-27121D01*
X33365Y-27050D01*
X33497Y-26918D01*
X33569Y-26746D01*
X33569Y-34734D01*
X33405Y-34734D01*
X33184Y-34825D01*
X33016Y-34994D01*
X32924Y-35214D01*
X32924Y-35453D01*
X33015Y-35674D01*
X33184Y-35842D01*
X33404Y-35934D01*
X33643Y-35934D01*
X33864Y-35843D01*
X34032Y-35674D01*
X34124Y-35454D01*
X34124Y-37774D01*
X34084Y-37676D01*
X34084Y-36726D01*
X34084Y-36503D01*
X33999Y-36297D01*
X33841Y-36140D01*
X33636Y-36054D01*
X33413Y-36054D01*
X33207Y-36139D01*
X33050Y-36297D01*
X32964Y-36502D01*
X32964Y-36725D01*
X33049Y-36931D01*
X33207Y-37088D01*
X33412Y-37174D01*
X33635Y-37174D01*
X33841Y-37089D01*
X33998Y-36931D01*
X34084Y-36726D01*
X34084Y-37676D01*
X34033Y-37553D01*
X33864Y-37385D01*
X33644Y-37293D01*
X33405Y-37293D01*
X33184Y-37384D01*
X33016Y-37553D01*
X32924Y-37773D01*
X32924Y-38012D01*
X33015Y-38233D01*
X33184Y-38401D01*
X33404Y-38493D01*
X33643Y-38493D01*
X33864Y-38402D01*
X34032Y-38233D01*
X34124Y-38013D01*
X34124Y-43064D01*
X32592Y-43064D01*
X32592Y-16820D01*
X32592Y-16644D01*
X32525Y-16482D01*
X32400Y-16357D01*
X32238Y-16290D01*
X32062Y-16290D01*
X31900Y-16357D01*
X31775Y-16482D01*
X31708Y-16644D01*
X31708Y-16820D01*
X31775Y-16982D01*
X31834Y-17041D01*
X31834Y-22951D01*
X31703Y-23082D01*
X31631Y-23254D01*
X31631Y-23441D01*
X31631Y-23745D01*
X31702Y-23917D01*
X31834Y-24049D01*
X32006Y-24121D01*
X32193Y-24121D01*
X32365Y-24050D01*
X32497Y-23918D01*
X32569Y-23746D01*
X32569Y-23559D01*
X32569Y-23255D01*
X32498Y-23083D01*
X32366Y-22951D01*
X32366Y-17121D01*
X32400Y-17107D01*
X32525Y-16982D01*
X32592Y-16820D01*
X32592Y-43064D01*
X32569Y-43064D01*
X32569Y-26746D01*
X32569Y-26559D01*
X32569Y-26255D01*
X32498Y-26083D01*
X32366Y-25951D01*
X32194Y-25879D01*
X32007Y-25879D01*
X31835Y-25950D01*
X31703Y-26082D01*
X31631Y-26254D01*
X31631Y-26441D01*
X31631Y-26745D01*
X31702Y-26917D01*
X31834Y-27049D01*
X32006Y-27121D01*
X32193Y-27121D01*
X32365Y-27050D01*
X32497Y-26918D01*
X32569Y-26746D01*
X32569Y-43064D01*
X31592Y-43064D01*
X31592Y-16820D01*
X31592Y-16644D01*
X31525Y-16482D01*
X31400Y-16357D01*
X31238Y-16290D01*
X31062Y-16290D01*
X30900Y-16357D01*
X30775Y-16482D01*
X30708Y-16644D01*
X30708Y-16820D01*
X30775Y-16982D01*
X30884Y-17091D01*
X30884Y-22929D01*
X30835Y-22950D01*
X30703Y-23082D01*
X30631Y-23254D01*
X30631Y-23441D01*
X30631Y-23745D01*
X30702Y-23917D01*
X30834Y-24049D01*
X31006Y-24121D01*
X31193Y-24121D01*
X31365Y-24050D01*
X31497Y-23918D01*
X31569Y-23746D01*
X31569Y-23559D01*
X31569Y-23255D01*
X31498Y-23083D01*
X31416Y-23001D01*
X31416Y-17091D01*
X31525Y-16982D01*
X31592Y-16820D01*
X31592Y-43064D01*
X31569Y-43064D01*
X31569Y-26746D01*
X31569Y-26559D01*
X31569Y-26255D01*
X31498Y-26083D01*
X31366Y-25951D01*
X31194Y-25879D01*
X31007Y-25879D01*
X30835Y-25950D01*
X30703Y-26082D01*
X30631Y-26254D01*
X30631Y-26441D01*
X30631Y-26745D01*
X30702Y-26917D01*
X30834Y-27049D01*
X31006Y-27121D01*
X31193Y-27121D01*
X31365Y-27050D01*
X31497Y-26918D01*
X31569Y-26746D01*
X31569Y-43064D01*
X31542Y-43064D01*
X31542Y-29488D01*
X31542Y-29312D01*
X31475Y-29150D01*
X31350Y-29025D01*
X31188Y-28958D01*
X31012Y-28958D01*
X30850Y-29025D01*
X30725Y-29150D01*
X30658Y-29312D01*
X30658Y-29488D01*
X30725Y-29650D01*
X30850Y-29775D01*
X31012Y-29842D01*
X31188Y-29842D01*
X31350Y-29775D01*
X31475Y-29650D01*
X31542Y-29488D01*
X31542Y-43064D01*
X30619Y-43064D01*
X30619Y-29474D01*
X30608Y-29270D01*
X30592Y-29230D01*
X30592Y-16820D01*
X30592Y-16644D01*
X30525Y-16482D01*
X30400Y-16357D01*
X30238Y-16290D01*
X30062Y-16290D01*
X29900Y-16357D01*
X29775Y-16482D01*
X29708Y-16644D01*
X29708Y-16820D01*
X29775Y-16982D01*
X29834Y-17041D01*
X29834Y-21641D01*
X29725Y-21750D01*
X29658Y-21912D01*
X29658Y-22088D01*
X29725Y-22250D01*
X29850Y-22375D01*
X30012Y-22442D01*
X30188Y-22442D01*
X30350Y-22375D01*
X30475Y-22250D01*
X30542Y-22088D01*
X30542Y-21912D01*
X30475Y-21750D01*
X30366Y-21641D01*
X30366Y-17121D01*
X30400Y-17107D01*
X30525Y-16982D01*
X30592Y-16820D01*
X30592Y-29230D01*
X30569Y-29174D01*
X30569Y-26746D01*
X30569Y-26559D01*
X30569Y-26255D01*
X30569Y-23746D01*
X30569Y-23559D01*
X30569Y-23255D01*
X30498Y-23083D01*
X30366Y-22951D01*
X30194Y-22879D01*
X30007Y-22879D01*
X29835Y-22950D01*
X29703Y-23082D01*
X29631Y-23254D01*
X29631Y-23441D01*
X29631Y-23745D01*
X29702Y-23917D01*
X29834Y-24049D01*
X30006Y-24121D01*
X30193Y-24121D01*
X30365Y-24050D01*
X30497Y-23918D01*
X30569Y-23746D01*
X30569Y-26255D01*
X30498Y-26083D01*
X30366Y-25951D01*
X30194Y-25879D01*
X30007Y-25879D01*
X29835Y-25950D01*
X29703Y-26082D01*
X29642Y-26225D01*
X29642Y-25468D01*
X29642Y-25332D01*
X29618Y-25273D01*
X29618Y-16825D01*
X29618Y-16639D01*
X29547Y-16467D01*
X29415Y-16335D01*
X29243Y-16264D01*
X29057Y-16264D01*
X28885Y-16335D01*
X28753Y-16467D01*
X28686Y-16627D01*
X27560Y-16627D01*
X27295Y-16362D01*
X27234Y-16336D01*
X27167Y-16337D01*
X27105Y-16361D01*
X27058Y-16409D01*
X26669Y-16798D01*
X26643Y-16859D01*
X26644Y-16926D01*
X26668Y-16988D01*
X26716Y-17035D01*
X27105Y-17424D01*
X27166Y-17450D01*
X27233Y-17449D01*
X27295Y-17425D01*
X27342Y-17377D01*
X27560Y-17159D01*
X27816Y-17159D01*
X27657Y-17225D01*
X27532Y-17350D01*
X27465Y-17512D01*
X27465Y-17688D01*
X27532Y-17850D01*
X27657Y-17975D01*
X27819Y-18042D01*
X27995Y-18042D01*
X28157Y-17975D01*
X28282Y-17850D01*
X28349Y-17688D01*
X28349Y-17512D01*
X28282Y-17350D01*
X28157Y-17225D01*
X27997Y-17159D01*
X28957Y-17159D01*
X29057Y-17200D01*
X29243Y-17200D01*
X29415Y-17129D01*
X29547Y-16997D01*
X29618Y-16825D01*
X29618Y-25273D01*
X29590Y-25206D01*
X29569Y-25185D01*
X29569Y-23746D01*
X29569Y-23559D01*
X29569Y-23255D01*
X29498Y-23083D01*
X29366Y-22951D01*
X29194Y-22879D01*
X29007Y-22879D01*
X28835Y-22950D01*
X28703Y-23082D01*
X28636Y-23240D01*
X28619Y-23166D01*
X28619Y-22074D01*
X28608Y-21870D01*
X28552Y-21733D01*
X28461Y-21710D01*
X28390Y-21781D01*
X28390Y-21639D01*
X28367Y-21548D01*
X28174Y-21481D01*
X27970Y-21492D01*
X27833Y-21548D01*
X27810Y-21639D01*
X28100Y-21929D01*
X28390Y-21639D01*
X28390Y-21781D01*
X28171Y-22000D01*
X28461Y-22290D01*
X28552Y-22267D01*
X28619Y-22074D01*
X28619Y-23166D01*
X28610Y-23127D01*
X28482Y-22950D01*
X28390Y-22893D01*
X28390Y-22361D01*
X28100Y-22071D01*
X28029Y-22142D01*
X28029Y-22000D01*
X27739Y-21710D01*
X27708Y-21717D01*
X27708Y-18438D01*
X27708Y-18176D01*
X27619Y-17992D01*
X27467Y-17856D01*
X27331Y-17799D01*
X27250Y-17847D01*
X27250Y-18257D01*
X27660Y-18257D01*
X27708Y-18176D01*
X27708Y-18438D01*
X27660Y-18357D01*
X27250Y-18357D01*
X27250Y-18767D01*
X27331Y-18815D01*
X27515Y-18726D01*
X27651Y-18574D01*
X27708Y-18438D01*
X27708Y-21717D01*
X27648Y-21733D01*
X27581Y-21926D01*
X27592Y-22130D01*
X27648Y-22267D01*
X27739Y-22290D01*
X28029Y-22000D01*
X28029Y-22142D01*
X27810Y-22361D01*
X27833Y-22452D01*
X28026Y-22519D01*
X28230Y-22508D01*
X28367Y-22452D01*
X28390Y-22361D01*
X28390Y-22893D01*
X28296Y-22835D01*
X28237Y-22818D01*
X28150Y-22865D01*
X28150Y-23400D01*
X28150Y-23450D01*
X28150Y-23550D01*
X28150Y-23600D01*
X28150Y-24135D01*
X28237Y-24182D01*
X28296Y-24165D01*
X28482Y-24050D01*
X28610Y-23873D01*
X28636Y-23758D01*
X28702Y-23917D01*
X28834Y-24049D01*
X29006Y-24121D01*
X29193Y-24121D01*
X29365Y-24050D01*
X29497Y-23918D01*
X29569Y-23746D01*
X29569Y-25185D01*
X29494Y-25110D01*
X29368Y-25058D01*
X29232Y-25058D01*
X29106Y-25110D01*
X29082Y-25134D01*
X28050Y-25134D01*
X28050Y-24135D01*
X28050Y-23600D01*
X28050Y-23550D01*
X28050Y-23450D01*
X28050Y-23400D01*
X28050Y-22865D01*
X27963Y-22818D01*
X27904Y-22835D01*
X27718Y-22950D01*
X27590Y-23127D01*
X27563Y-23241D01*
X27498Y-23083D01*
X27366Y-22951D01*
X27194Y-22879D01*
X27150Y-22879D01*
X27150Y-18767D01*
X27150Y-18357D01*
X27150Y-18257D01*
X27150Y-17847D01*
X27069Y-17799D01*
X26885Y-17888D01*
X26749Y-18040D01*
X26692Y-18176D01*
X26740Y-18257D01*
X27150Y-18257D01*
X27150Y-18357D01*
X26740Y-18357D01*
X26692Y-18438D01*
X26781Y-18622D01*
X26933Y-18758D01*
X27069Y-18815D01*
X27150Y-18767D01*
X27150Y-22879D01*
X27007Y-22879D01*
X26835Y-22950D01*
X26703Y-23082D01*
X26631Y-23254D01*
X26631Y-23441D01*
X26631Y-23745D01*
X26702Y-23917D01*
X26834Y-24049D01*
X27006Y-24121D01*
X27193Y-24121D01*
X27365Y-24050D01*
X27497Y-23918D01*
X27563Y-23759D01*
X27590Y-23873D01*
X27718Y-24050D01*
X27904Y-24165D01*
X27963Y-24182D01*
X28050Y-24135D01*
X28050Y-25134D01*
X27318Y-25134D01*
X27294Y-25110D01*
X27168Y-25058D01*
X27032Y-25058D01*
X26906Y-25110D01*
X26810Y-25206D01*
X26758Y-25332D01*
X26758Y-25468D01*
X26810Y-25594D01*
X26906Y-25690D01*
X27032Y-25742D01*
X27168Y-25742D01*
X27294Y-25690D01*
X27318Y-25666D01*
X29082Y-25666D01*
X29106Y-25690D01*
X29232Y-25742D01*
X29368Y-25742D01*
X29494Y-25690D01*
X29590Y-25594D01*
X29642Y-25468D01*
X29642Y-26225D01*
X29636Y-26240D01*
X29610Y-26127D01*
X29482Y-25950D01*
X29296Y-25835D01*
X29237Y-25818D01*
X29150Y-25865D01*
X29150Y-26400D01*
X29150Y-26450D01*
X29150Y-26550D01*
X29150Y-26600D01*
X29150Y-27135D01*
X29237Y-27182D01*
X29296Y-27165D01*
X29482Y-27050D01*
X29610Y-26873D01*
X29636Y-26758D01*
X29702Y-26917D01*
X29834Y-27049D01*
X30006Y-27121D01*
X30193Y-27121D01*
X30365Y-27050D01*
X30497Y-26918D01*
X30569Y-26746D01*
X30569Y-29174D01*
X30552Y-29133D01*
X30461Y-29110D01*
X30390Y-29181D01*
X30390Y-29039D01*
X30367Y-28948D01*
X30174Y-28881D01*
X29970Y-28892D01*
X29833Y-28948D01*
X29810Y-29039D01*
X30100Y-29329D01*
X30390Y-29039D01*
X30390Y-29181D01*
X30171Y-29400D01*
X30461Y-29690D01*
X30552Y-29667D01*
X30619Y-29474D01*
X30619Y-43064D01*
X30390Y-43064D01*
X30390Y-29761D01*
X30100Y-29471D01*
X30029Y-29542D01*
X30029Y-29400D01*
X29739Y-29110D01*
X29648Y-29133D01*
X29581Y-29326D01*
X29592Y-29530D01*
X29648Y-29667D01*
X29739Y-29690D01*
X30029Y-29400D01*
X30029Y-29542D01*
X29810Y-29761D01*
X29833Y-29852D01*
X30026Y-29919D01*
X30230Y-29908D01*
X30367Y-29852D01*
X30390Y-29761D01*
X30390Y-43064D01*
X30068Y-43064D01*
X30068Y-38013D01*
X30068Y-37774D01*
X30068Y-35454D01*
X30068Y-35215D01*
X29977Y-34994D01*
X29808Y-34826D01*
X29588Y-34734D01*
X29543Y-34734D01*
X29543Y-29709D01*
X29543Y-29642D01*
X29543Y-29092D01*
X29518Y-29030D01*
X29470Y-28983D01*
X29409Y-28957D01*
X29342Y-28957D01*
X29050Y-28957D01*
X29050Y-27135D01*
X29050Y-26600D01*
X29050Y-26550D01*
X29050Y-26450D01*
X29050Y-26400D01*
X29050Y-25865D01*
X28963Y-25818D01*
X28904Y-25835D01*
X28718Y-25950D01*
X28590Y-26127D01*
X28563Y-26241D01*
X28498Y-26083D01*
X28366Y-25951D01*
X28194Y-25879D01*
X28007Y-25879D01*
X27835Y-25950D01*
X27703Y-26082D01*
X27631Y-26254D01*
X27631Y-26441D01*
X27631Y-26745D01*
X27702Y-26917D01*
X27834Y-27049D01*
X28006Y-27121D01*
X28193Y-27121D01*
X28365Y-27050D01*
X28497Y-26918D01*
X28563Y-26759D01*
X28590Y-26873D01*
X28718Y-27050D01*
X28904Y-27165D01*
X28963Y-27182D01*
X29050Y-27135D01*
X29050Y-28957D01*
X28792Y-28957D01*
X28730Y-28982D01*
X28683Y-29030D01*
X28657Y-29091D01*
X28657Y-29158D01*
X28657Y-29708D01*
X28682Y-29770D01*
X28730Y-29817D01*
X28791Y-29843D01*
X28858Y-29843D01*
X29408Y-29843D01*
X29470Y-29818D01*
X29517Y-29770D01*
X29543Y-29709D01*
X29543Y-34734D01*
X29349Y-34734D01*
X29128Y-34825D01*
X28960Y-34994D01*
X28868Y-35214D01*
X28868Y-35453D01*
X28959Y-35674D01*
X29128Y-35842D01*
X29348Y-35934D01*
X29587Y-35934D01*
X29808Y-35843D01*
X29976Y-35674D01*
X30068Y-35454D01*
X30068Y-37774D01*
X30028Y-37676D01*
X30028Y-36726D01*
X30028Y-36503D01*
X29943Y-36297D01*
X29785Y-36140D01*
X29580Y-36054D01*
X29357Y-36054D01*
X29151Y-36139D01*
X28994Y-36297D01*
X28908Y-36502D01*
X28908Y-36725D01*
X28993Y-36931D01*
X29151Y-37088D01*
X29356Y-37174D01*
X29579Y-37174D01*
X29785Y-37089D01*
X29942Y-36931D01*
X30028Y-36726D01*
X30028Y-37676D01*
X29977Y-37553D01*
X29808Y-37385D01*
X29588Y-37293D01*
X29349Y-37293D01*
X29128Y-37384D01*
X28960Y-37553D01*
X28868Y-37773D01*
X28868Y-38012D01*
X28959Y-38233D01*
X29128Y-38401D01*
X29348Y-38493D01*
X29587Y-38493D01*
X29808Y-38402D01*
X29976Y-38233D01*
X30068Y-38013D01*
X30068Y-43064D01*
X27569Y-43064D01*
X27569Y-26746D01*
X27569Y-26559D01*
X27569Y-26255D01*
X27498Y-26083D01*
X27366Y-25951D01*
X27194Y-25879D01*
X27007Y-25879D01*
X26835Y-25950D01*
X26703Y-26082D01*
X26631Y-26254D01*
X26631Y-26441D01*
X26631Y-26745D01*
X26702Y-26917D01*
X26834Y-27049D01*
X27006Y-27121D01*
X27193Y-27121D01*
X27365Y-27050D01*
X27497Y-26918D01*
X27569Y-26746D01*
X27569Y-43064D01*
X26569Y-43064D01*
X26569Y-26746D01*
X26569Y-26559D01*
X26569Y-26255D01*
X26569Y-23746D01*
X26569Y-23559D01*
X26569Y-23255D01*
X26498Y-23083D01*
X26366Y-22951D01*
X26366Y-19100D01*
X26366Y-19000D01*
X26366Y-18000D01*
X26346Y-17898D01*
X26325Y-17866D01*
X26325Y-16812D01*
X26325Y-16588D01*
X26324Y-16376D01*
X26286Y-16284D01*
X26216Y-16214D01*
X26125Y-16176D01*
X26026Y-16176D01*
X25912Y-16175D01*
X25850Y-16237D01*
X25850Y-16650D01*
X26263Y-16650D01*
X26325Y-16588D01*
X26325Y-16812D01*
X26263Y-16750D01*
X25850Y-16750D01*
X25850Y-17163D01*
X25912Y-17225D01*
X26026Y-17224D01*
X26125Y-17224D01*
X26216Y-17186D01*
X26286Y-17116D01*
X26324Y-17024D01*
X26325Y-16812D01*
X26325Y-17866D01*
X26288Y-17812D01*
X26242Y-17766D01*
X26242Y-17612D01*
X26175Y-17450D01*
X26050Y-17325D01*
X25888Y-17258D01*
X25750Y-17258D01*
X25750Y-17163D01*
X25750Y-16750D01*
X25750Y-16650D01*
X25750Y-16237D01*
X25688Y-16175D01*
X25574Y-16176D01*
X25475Y-16176D01*
X25384Y-16214D01*
X25314Y-16284D01*
X25276Y-16376D01*
X25275Y-16588D01*
X25337Y-16650D01*
X25750Y-16650D01*
X25750Y-16750D01*
X25337Y-16750D01*
X25275Y-16812D01*
X25276Y-17024D01*
X25314Y-17116D01*
X25384Y-17186D01*
X25475Y-17224D01*
X25574Y-17224D01*
X25688Y-17225D01*
X25750Y-17163D01*
X25750Y-17258D01*
X25712Y-17258D01*
X25550Y-17325D01*
X25425Y-17450D01*
X25358Y-17612D01*
X25358Y-17788D01*
X25425Y-17950D01*
X25550Y-18075D01*
X25712Y-18142D01*
X25834Y-18142D01*
X25834Y-19000D01*
X25834Y-19100D01*
X25834Y-22951D01*
X25703Y-23082D01*
X25631Y-23254D01*
X25631Y-23441D01*
X25631Y-23745D01*
X25702Y-23917D01*
X25834Y-24049D01*
X26006Y-24121D01*
X26193Y-24121D01*
X26365Y-24050D01*
X26497Y-23918D01*
X26569Y-23746D01*
X26569Y-26255D01*
X26498Y-26083D01*
X26366Y-25951D01*
X26194Y-25879D01*
X26007Y-25879D01*
X25835Y-25950D01*
X25703Y-26082D01*
X25631Y-26254D01*
X25631Y-26441D01*
X25631Y-26745D01*
X25702Y-26917D01*
X25834Y-27049D01*
X26006Y-27121D01*
X26193Y-27121D01*
X26365Y-27050D01*
X26497Y-26918D01*
X26569Y-26746D01*
X26569Y-43064D01*
X25856Y-43064D01*
X25856Y-40466D01*
X25856Y-40243D01*
X25856Y-38498D01*
X25856Y-38275D01*
X25856Y-34954D01*
X25856Y-34731D01*
X25856Y-32986D01*
X25856Y-32763D01*
X25771Y-32557D01*
X25613Y-32400D01*
X25569Y-32381D01*
X25569Y-26746D01*
X25569Y-26559D01*
X25569Y-26255D01*
X25569Y-23746D01*
X25569Y-23559D01*
X25569Y-23255D01*
X25498Y-23083D01*
X25366Y-22951D01*
X25194Y-22879D01*
X25164Y-22879D01*
X25164Y-20134D01*
X25163Y-20067D01*
X25139Y-20005D01*
X25091Y-19958D01*
X24702Y-19569D01*
X24641Y-19543D01*
X24574Y-19544D01*
X24512Y-19568D01*
X24465Y-19616D01*
X24166Y-19915D01*
X24166Y-19810D01*
X24507Y-19468D01*
X24508Y-19468D01*
X24693Y-19468D01*
X24865Y-19397D01*
X24997Y-19265D01*
X25068Y-19093D01*
X25068Y-18907D01*
X24997Y-18735D01*
X24865Y-18603D01*
X24857Y-18600D01*
X24865Y-18597D01*
X24997Y-18465D01*
X25068Y-18293D01*
X25068Y-18107D01*
X24997Y-17935D01*
X24865Y-17803D01*
X24857Y-17800D01*
X24865Y-17797D01*
X24997Y-17665D01*
X25068Y-17493D01*
X25068Y-17307D01*
X24997Y-17135D01*
X24865Y-17003D01*
X24857Y-17000D01*
X24865Y-16997D01*
X24997Y-16865D01*
X25068Y-16693D01*
X25068Y-16507D01*
X24997Y-16335D01*
X24865Y-16203D01*
X24693Y-16132D01*
X24507Y-16132D01*
X24335Y-16203D01*
X24203Y-16335D01*
X24132Y-16507D01*
X24132Y-16693D01*
X24203Y-16865D01*
X24335Y-16997D01*
X24342Y-17000D01*
X24335Y-17003D01*
X24203Y-17135D01*
X24132Y-17307D01*
X24132Y-17493D01*
X24203Y-17665D01*
X24335Y-17797D01*
X24342Y-17800D01*
X24335Y-17803D01*
X24203Y-17935D01*
X24132Y-18107D01*
X24132Y-18293D01*
X24203Y-18465D01*
X24335Y-18597D01*
X24342Y-18600D01*
X24335Y-18603D01*
X24203Y-18735D01*
X24132Y-18907D01*
X24132Y-19092D01*
X23712Y-19512D01*
X23654Y-19598D01*
X23634Y-19700D01*
X23634Y-20009D01*
X23568Y-19850D01*
X23443Y-19725D01*
X23281Y-19658D01*
X23105Y-19658D01*
X22943Y-19725D01*
X22818Y-19850D01*
X22751Y-20012D01*
X22751Y-20188D01*
X22818Y-20350D01*
X22943Y-20475D01*
X23102Y-20541D01*
X21792Y-20541D01*
X22138Y-20195D01*
X22164Y-20134D01*
X22163Y-20067D01*
X22139Y-20005D01*
X22091Y-19958D01*
X21702Y-19569D01*
X21641Y-19543D01*
X21574Y-19544D01*
X21512Y-19568D01*
X21465Y-19616D01*
X21143Y-19938D01*
X21143Y-19079D01*
X21132Y-18866D01*
X21072Y-18719D01*
X21068Y-18717D01*
X21068Y-18293D01*
X21068Y-18107D01*
X20997Y-17935D01*
X20865Y-17803D01*
X20857Y-17800D01*
X20865Y-17797D01*
X20997Y-17665D01*
X21068Y-17493D01*
X21068Y-17307D01*
X20997Y-17135D01*
X20865Y-17003D01*
X20857Y-17000D01*
X20865Y-16997D01*
X20997Y-16865D01*
X21068Y-16693D01*
X21068Y-16507D01*
X20997Y-16335D01*
X20865Y-16203D01*
X20693Y-16132D01*
X20507Y-16132D01*
X20335Y-16203D01*
X20203Y-16335D01*
X20132Y-16507D01*
X20132Y-16693D01*
X20203Y-16865D01*
X20335Y-16997D01*
X20342Y-17000D01*
X20335Y-17003D01*
X20203Y-17135D01*
X20132Y-17307D01*
X20132Y-17493D01*
X20203Y-17665D01*
X20335Y-17797D01*
X20342Y-17800D01*
X20335Y-17803D01*
X20203Y-17935D01*
X20132Y-18107D01*
X20132Y-18293D01*
X20203Y-18465D01*
X20307Y-18569D01*
X20292Y-18622D01*
X20600Y-18929D01*
X20908Y-18622D01*
X20892Y-18569D01*
X20997Y-18465D01*
X21068Y-18293D01*
X21068Y-18717D01*
X20978Y-18692D01*
X20671Y-19000D01*
X20978Y-19308D01*
X21072Y-19281D01*
X21143Y-19079D01*
X21143Y-19938D01*
X21076Y-20005D01*
X21050Y-20066D01*
X21051Y-20133D01*
X21075Y-20195D01*
X21123Y-20242D01*
X21422Y-20541D01*
X21259Y-20541D01*
X21150Y-20432D01*
X20988Y-20365D01*
X20908Y-20365D01*
X20908Y-19378D01*
X20600Y-19071D01*
X20529Y-19141D01*
X20529Y-19000D01*
X20222Y-18692D01*
X20128Y-18719D01*
X20057Y-18921D01*
X20068Y-19134D01*
X20128Y-19281D01*
X20222Y-19308D01*
X20529Y-19000D01*
X20529Y-19141D01*
X20292Y-19378D01*
X20319Y-19472D01*
X20521Y-19543D01*
X20734Y-19532D01*
X20881Y-19472D01*
X20908Y-19378D01*
X20908Y-20365D01*
X20812Y-20365D01*
X20650Y-20432D01*
X20635Y-20447D01*
X20635Y-20188D01*
X20635Y-20012D01*
X20568Y-19850D01*
X20443Y-19725D01*
X20281Y-19658D01*
X20105Y-19658D01*
X19943Y-19725D01*
X19818Y-19850D01*
X19751Y-20012D01*
X19751Y-20188D01*
X19818Y-20350D01*
X19943Y-20475D01*
X20105Y-20542D01*
X20281Y-20542D01*
X20443Y-20475D01*
X20568Y-20350D01*
X20635Y-20188D01*
X20635Y-20447D01*
X20525Y-20557D01*
X20458Y-20719D01*
X20458Y-20895D01*
X20525Y-21057D01*
X20650Y-21182D01*
X20812Y-21249D01*
X20988Y-21249D01*
X21150Y-21182D01*
X21259Y-21073D01*
X23541Y-21073D01*
X23650Y-21182D01*
X23812Y-21249D01*
X23988Y-21249D01*
X24150Y-21182D01*
X24275Y-21057D01*
X24342Y-20895D01*
X24342Y-20719D01*
X24275Y-20557D01*
X24166Y-20448D01*
X24166Y-20285D01*
X24512Y-20631D01*
X24573Y-20657D01*
X24640Y-20656D01*
X24702Y-20632D01*
X24749Y-20584D01*
X25138Y-20195D01*
X25164Y-20134D01*
X25164Y-22879D01*
X25007Y-22879D01*
X24835Y-22950D01*
X24703Y-23082D01*
X24631Y-23254D01*
X24631Y-23441D01*
X24631Y-23745D01*
X24702Y-23917D01*
X24834Y-24049D01*
X25006Y-24121D01*
X25193Y-24121D01*
X25365Y-24050D01*
X25497Y-23918D01*
X25569Y-23746D01*
X25569Y-26255D01*
X25498Y-26083D01*
X25366Y-25951D01*
X25194Y-25879D01*
X25007Y-25879D01*
X24835Y-25950D01*
X24703Y-26082D01*
X24631Y-26254D01*
X24631Y-26441D01*
X24631Y-26745D01*
X24702Y-26917D01*
X24834Y-27049D01*
X25006Y-27121D01*
X25193Y-27121D01*
X25365Y-27050D01*
X25497Y-26918D01*
X25569Y-26746D01*
X25569Y-32381D01*
X25408Y-32314D01*
X25185Y-32314D01*
X24979Y-32399D01*
X24822Y-32557D01*
X24736Y-32762D01*
X24736Y-32985D01*
X24821Y-33191D01*
X24979Y-33348D01*
X25184Y-33434D01*
X25407Y-33434D01*
X25613Y-33349D01*
X25770Y-33191D01*
X25856Y-32986D01*
X25856Y-34731D01*
X25771Y-34525D01*
X25613Y-34368D01*
X25408Y-34282D01*
X25185Y-34282D01*
X24979Y-34367D01*
X24822Y-34525D01*
X24736Y-34730D01*
X24736Y-34953D01*
X24821Y-35159D01*
X24979Y-35316D01*
X25184Y-35402D01*
X25407Y-35402D01*
X25613Y-35317D01*
X25770Y-35159D01*
X25856Y-34954D01*
X25856Y-38275D01*
X25771Y-38069D01*
X25613Y-37912D01*
X25408Y-37826D01*
X25185Y-37826D01*
X24979Y-37911D01*
X24822Y-38069D01*
X24736Y-38274D01*
X24736Y-38497D01*
X24821Y-38703D01*
X24979Y-38860D01*
X25184Y-38946D01*
X25407Y-38946D01*
X25613Y-38861D01*
X25770Y-38703D01*
X25856Y-38498D01*
X25856Y-40243D01*
X25771Y-40037D01*
X25613Y-39880D01*
X25408Y-39794D01*
X25185Y-39794D01*
X24979Y-39879D01*
X24822Y-40037D01*
X24736Y-40242D01*
X24736Y-40465D01*
X24821Y-40671D01*
X24979Y-40828D01*
X25184Y-40914D01*
X25407Y-40914D01*
X25613Y-40829D01*
X25770Y-40671D01*
X25856Y-40466D01*
X25856Y-43064D01*
X24569Y-43064D01*
X24569Y-26746D01*
X24569Y-26559D01*
X24569Y-26255D01*
X24569Y-23746D01*
X24569Y-23559D01*
X24569Y-23255D01*
X24498Y-23083D01*
X24366Y-22951D01*
X24194Y-22879D01*
X24007Y-22879D01*
X23835Y-22950D01*
X23703Y-23082D01*
X23631Y-23254D01*
X23631Y-23441D01*
X23631Y-23745D01*
X23702Y-23917D01*
X23834Y-24049D01*
X24006Y-24121D01*
X24193Y-24121D01*
X24365Y-24050D01*
X24497Y-23918D01*
X24569Y-23746D01*
X24569Y-26255D01*
X24498Y-26083D01*
X24366Y-25951D01*
X24194Y-25879D01*
X24007Y-25879D01*
X23835Y-25950D01*
X23703Y-26082D01*
X23631Y-26254D01*
X23631Y-26441D01*
X23631Y-26745D01*
X23702Y-26917D01*
X23834Y-27049D01*
X24006Y-27121D01*
X24193Y-27121D01*
X24365Y-27050D01*
X24497Y-26918D01*
X24569Y-26746D01*
X24569Y-43064D01*
X23569Y-43064D01*
X23569Y-26746D01*
X23569Y-26559D01*
X23569Y-26255D01*
X23569Y-23746D01*
X23569Y-23559D01*
X23569Y-23255D01*
X23498Y-23083D01*
X23366Y-22951D01*
X23194Y-22879D01*
X23007Y-22879D01*
X22942Y-22905D01*
X22942Y-22268D01*
X22942Y-22132D01*
X22890Y-22006D01*
X22794Y-21910D01*
X22668Y-21858D01*
X22532Y-21858D01*
X22406Y-21910D01*
X22310Y-22006D01*
X22258Y-22132D01*
X22258Y-22166D01*
X21990Y-22434D01*
X19718Y-22434D01*
X19694Y-22410D01*
X19568Y-22358D01*
X19432Y-22358D01*
X19306Y-22410D01*
X19210Y-22506D01*
X19158Y-22632D01*
X19158Y-22768D01*
X19210Y-22894D01*
X19306Y-22990D01*
X19432Y-23042D01*
X19568Y-23042D01*
X19694Y-22990D01*
X19718Y-22966D01*
X21819Y-22966D01*
X21703Y-23082D01*
X21631Y-23254D01*
X21631Y-23441D01*
X21631Y-23745D01*
X21702Y-23917D01*
X21834Y-24049D01*
X22006Y-24121D01*
X22193Y-24121D01*
X22365Y-24050D01*
X22497Y-23918D01*
X22569Y-23746D01*
X22569Y-23559D01*
X22569Y-23255D01*
X22498Y-23083D01*
X22366Y-22951D01*
X22260Y-22906D01*
X22288Y-22888D01*
X22634Y-22542D01*
X22668Y-22542D01*
X22794Y-22490D01*
X22890Y-22394D01*
X22942Y-22268D01*
X22942Y-22905D01*
X22835Y-22950D01*
X22703Y-23082D01*
X22631Y-23254D01*
X22631Y-23441D01*
X22631Y-23745D01*
X22702Y-23917D01*
X22834Y-24049D01*
X23006Y-24121D01*
X23193Y-24121D01*
X23365Y-24050D01*
X23497Y-23918D01*
X23569Y-23746D01*
X23569Y-26255D01*
X23498Y-26083D01*
X23366Y-25951D01*
X23194Y-25879D01*
X23007Y-25879D01*
X22835Y-25950D01*
X22703Y-26082D01*
X22631Y-26254D01*
X22631Y-26441D01*
X22631Y-26745D01*
X22702Y-26917D01*
X22834Y-27049D01*
X23006Y-27121D01*
X23193Y-27121D01*
X23365Y-27050D01*
X23497Y-26918D01*
X23569Y-26746D01*
X23569Y-43064D01*
X22578Y-43064D01*
X22578Y-26984D01*
X22578Y-26917D01*
X22578Y-26017D01*
X22553Y-25955D01*
X22505Y-25908D01*
X22444Y-25882D01*
X22377Y-25882D01*
X21757Y-25882D01*
X21695Y-25907D01*
X21648Y-25955D01*
X21622Y-26016D01*
X21622Y-26083D01*
X21622Y-26983D01*
X21647Y-27045D01*
X21695Y-27092D01*
X21756Y-27118D01*
X21823Y-27118D01*
X22443Y-27118D01*
X22505Y-27093D01*
X22552Y-27045D01*
X22578Y-26984D01*
X22578Y-43064D01*
X22442Y-43064D01*
X22442Y-30688D01*
X22442Y-30512D01*
X22442Y-28688D01*
X22442Y-28512D01*
X22375Y-28350D01*
X22250Y-28225D01*
X22088Y-28158D01*
X21912Y-28158D01*
X21750Y-28225D01*
X21625Y-28350D01*
X21558Y-28512D01*
X21558Y-28688D01*
X21625Y-28850D01*
X21750Y-28975D01*
X21912Y-29042D01*
X22088Y-29042D01*
X22250Y-28975D01*
X22375Y-28850D01*
X22442Y-28688D01*
X22442Y-30512D01*
X22375Y-30350D01*
X22250Y-30225D01*
X22088Y-30158D01*
X21912Y-30158D01*
X21750Y-30225D01*
X21625Y-30350D01*
X21558Y-30512D01*
X21558Y-30688D01*
X21625Y-30850D01*
X21750Y-30975D01*
X21912Y-31042D01*
X22088Y-31042D01*
X22250Y-30975D01*
X22375Y-30850D01*
X22442Y-30688D01*
X22442Y-43064D01*
X20934Y-43064D01*
X20934Y-40466D01*
X20934Y-40243D01*
X20934Y-38498D01*
X20934Y-38275D01*
X20934Y-34954D01*
X20934Y-34731D01*
X20934Y-32986D01*
X20934Y-32763D01*
X20868Y-32603D01*
X20868Y-28893D01*
X20868Y-28707D01*
X20868Y-24893D01*
X20868Y-24707D01*
X20797Y-24535D01*
X20665Y-24403D01*
X20493Y-24332D01*
X20307Y-24332D01*
X20135Y-24403D01*
X20003Y-24535D01*
X19932Y-24707D01*
X19932Y-24893D01*
X20003Y-25065D01*
X20135Y-25197D01*
X20307Y-25268D01*
X20493Y-25268D01*
X20665Y-25197D01*
X20797Y-25065D01*
X20868Y-24893D01*
X20868Y-28707D01*
X20797Y-28535D01*
X20665Y-28403D01*
X20493Y-28332D01*
X20307Y-28332D01*
X20135Y-28403D01*
X20003Y-28535D01*
X19932Y-28707D01*
X19932Y-28893D01*
X20003Y-29065D01*
X20135Y-29197D01*
X20307Y-29268D01*
X20493Y-29268D01*
X20665Y-29197D01*
X20797Y-29065D01*
X20868Y-28893D01*
X20868Y-32603D01*
X20849Y-32557D01*
X20691Y-32400D01*
X20486Y-32314D01*
X20263Y-32314D01*
X20057Y-32399D01*
X19900Y-32557D01*
X19814Y-32762D01*
X19814Y-32985D01*
X19899Y-33191D01*
X20057Y-33348D01*
X20262Y-33434D01*
X20485Y-33434D01*
X20691Y-33349D01*
X20848Y-33191D01*
X20934Y-32986D01*
X20934Y-34731D01*
X20849Y-34525D01*
X20691Y-34368D01*
X20486Y-34282D01*
X20263Y-34282D01*
X20057Y-34367D01*
X19900Y-34525D01*
X19814Y-34730D01*
X19814Y-34953D01*
X19899Y-35159D01*
X20057Y-35316D01*
X20262Y-35402D01*
X20485Y-35402D01*
X20691Y-35317D01*
X20848Y-35159D01*
X20934Y-34954D01*
X20934Y-38275D01*
X20849Y-38069D01*
X20691Y-37912D01*
X20486Y-37826D01*
X20263Y-37826D01*
X20057Y-37911D01*
X19900Y-38069D01*
X19814Y-38274D01*
X19814Y-38497D01*
X19899Y-38703D01*
X20057Y-38860D01*
X20262Y-38946D01*
X20485Y-38946D01*
X20691Y-38861D01*
X20848Y-38703D01*
X20934Y-38498D01*
X20934Y-40243D01*
X20849Y-40037D01*
X20691Y-39880D01*
X20486Y-39794D01*
X20263Y-39794D01*
X20057Y-39879D01*
X19900Y-40037D01*
X19814Y-40242D01*
X19814Y-40465D01*
X19899Y-40671D01*
X20057Y-40828D01*
X20262Y-40914D01*
X20485Y-40914D01*
X20691Y-40829D01*
X20848Y-40671D01*
X20934Y-40466D01*
X20934Y-43064D01*
X17937Y-43064D01*
X18130Y-42602D01*
X18130Y-42046D01*
X17918Y-41532D01*
X17525Y-41139D01*
X17475Y-41118D01*
X17475Y-34062D01*
X17475Y-33838D01*
X17474Y-33626D01*
X17436Y-33534D01*
X17366Y-33464D01*
X17275Y-33426D01*
X17176Y-33426D01*
X17062Y-33425D01*
X17000Y-33487D01*
X17000Y-33900D01*
X17413Y-33900D01*
X17475Y-33838D01*
X17475Y-34062D01*
X17413Y-34000D01*
X17050Y-34000D01*
X17000Y-34000D01*
X16900Y-34000D01*
X16900Y-33900D01*
X16900Y-33487D01*
X16838Y-33425D01*
X16724Y-33426D01*
X16625Y-33426D01*
X16534Y-33464D01*
X16464Y-33534D01*
X16426Y-33626D01*
X16425Y-33838D01*
X16487Y-33900D01*
X16900Y-33900D01*
X16900Y-34000D01*
X16850Y-34000D01*
X16487Y-34000D01*
X16425Y-34062D01*
X16426Y-34274D01*
X16464Y-34366D01*
X16534Y-34436D01*
X16625Y-34474D01*
X16724Y-34474D01*
X16741Y-34474D01*
X16683Y-34498D01*
X16660Y-34589D01*
X16950Y-34879D01*
X17240Y-34589D01*
X17217Y-34498D01*
X17148Y-34474D01*
X17176Y-34474D01*
X17275Y-34474D01*
X17366Y-34436D01*
X17436Y-34366D01*
X17474Y-34274D01*
X17475Y-34062D01*
X17475Y-41118D01*
X17469Y-41115D01*
X17469Y-35024D01*
X17458Y-34820D01*
X17402Y-34683D01*
X17311Y-34660D01*
X17021Y-34950D01*
X17311Y-35240D01*
X17402Y-35217D01*
X17469Y-35024D01*
X17469Y-41115D01*
X17392Y-41083D01*
X17392Y-39038D01*
X17392Y-38862D01*
X17392Y-38038D01*
X17392Y-37862D01*
X17392Y-37038D01*
X17392Y-36862D01*
X17392Y-36038D01*
X17392Y-35862D01*
X17325Y-35700D01*
X17240Y-35615D01*
X17240Y-35311D01*
X16950Y-35021D01*
X16879Y-35092D01*
X16879Y-34950D01*
X16589Y-34660D01*
X16498Y-34683D01*
X16431Y-34876D01*
X16442Y-35080D01*
X16498Y-35217D01*
X16589Y-35240D01*
X16879Y-34950D01*
X16879Y-35092D01*
X16660Y-35311D01*
X16683Y-35402D01*
X16876Y-35469D01*
X17080Y-35458D01*
X17217Y-35402D01*
X17240Y-35311D01*
X17240Y-35615D01*
X17200Y-35575D01*
X17038Y-35508D01*
X16862Y-35508D01*
X16700Y-35575D01*
X16575Y-35700D01*
X16508Y-35862D01*
X16508Y-36038D01*
X16575Y-36200D01*
X16700Y-36325D01*
X16862Y-36392D01*
X17038Y-36392D01*
X17200Y-36325D01*
X17325Y-36200D01*
X17392Y-36038D01*
X17392Y-36862D01*
X17325Y-36700D01*
X17200Y-36575D01*
X17038Y-36508D01*
X16862Y-36508D01*
X16700Y-36575D01*
X16575Y-36700D01*
X16508Y-36862D01*
X16508Y-37038D01*
X16575Y-37200D01*
X16700Y-37325D01*
X16862Y-37392D01*
X17038Y-37392D01*
X17200Y-37325D01*
X17325Y-37200D01*
X17392Y-37038D01*
X17392Y-37862D01*
X17325Y-37700D01*
X17200Y-37575D01*
X17038Y-37508D01*
X16862Y-37508D01*
X16700Y-37575D01*
X16575Y-37700D01*
X16508Y-37862D01*
X16508Y-38038D01*
X16575Y-38200D01*
X16700Y-38325D01*
X16862Y-38392D01*
X17038Y-38392D01*
X17200Y-38325D01*
X17325Y-38200D01*
X17392Y-38038D01*
X17392Y-38862D01*
X17325Y-38700D01*
X17200Y-38575D01*
X17038Y-38508D01*
X16862Y-38508D01*
X16700Y-38575D01*
X16575Y-38700D01*
X16508Y-38862D01*
X16508Y-39038D01*
X16575Y-39200D01*
X16700Y-39325D01*
X16862Y-39392D01*
X17038Y-39392D01*
X17200Y-39325D01*
X17325Y-39200D01*
X17392Y-39038D01*
X17392Y-41083D01*
X17011Y-40925D01*
X16455Y-40925D01*
X15991Y-41116D01*
X15991Y-30142D01*
X16453Y-30335D01*
X17009Y-30335D01*
X17523Y-30123D01*
X17916Y-29730D01*
X18130Y-29216D01*
X18130Y-28660D01*
X17918Y-28146D01*
X17525Y-27753D01*
X17519Y-27750D01*
X17519Y-21774D01*
X17508Y-21570D01*
X17452Y-21433D01*
X17361Y-21410D01*
X17290Y-21481D01*
X17290Y-21339D01*
X17267Y-21248D01*
X17074Y-21181D01*
X16870Y-21192D01*
X16733Y-21248D01*
X16710Y-21339D01*
X17000Y-21629D01*
X17290Y-21339D01*
X17290Y-21481D01*
X17071Y-21700D01*
X17361Y-21990D01*
X17452Y-21967D01*
X17519Y-21774D01*
X17519Y-27750D01*
X17443Y-27718D01*
X17443Y-25009D01*
X17443Y-24942D01*
X17443Y-24392D01*
X17442Y-24389D01*
X17442Y-23788D01*
X17442Y-23612D01*
X17442Y-22788D01*
X17442Y-22612D01*
X17375Y-22450D01*
X17290Y-22365D01*
X17290Y-22061D01*
X17000Y-21771D01*
X16929Y-21842D01*
X16929Y-21700D01*
X16639Y-21410D01*
X16548Y-21433D01*
X16481Y-21626D01*
X16492Y-21830D01*
X16548Y-21967D01*
X16639Y-21990D01*
X16929Y-21700D01*
X16929Y-21842D01*
X16710Y-22061D01*
X16733Y-22152D01*
X16926Y-22219D01*
X17130Y-22208D01*
X17267Y-22152D01*
X17290Y-22061D01*
X17290Y-22365D01*
X17250Y-22325D01*
X17088Y-22258D01*
X16912Y-22258D01*
X16750Y-22325D01*
X16625Y-22450D01*
X16558Y-22612D01*
X16558Y-22788D01*
X16625Y-22950D01*
X16750Y-23075D01*
X16912Y-23142D01*
X17088Y-23142D01*
X17250Y-23075D01*
X17375Y-22950D01*
X17442Y-22788D01*
X17442Y-23612D01*
X17375Y-23450D01*
X17250Y-23325D01*
X17088Y-23258D01*
X16912Y-23258D01*
X16750Y-23325D01*
X16625Y-23450D01*
X16558Y-23612D01*
X16558Y-23788D01*
X16625Y-23950D01*
X16750Y-24075D01*
X16912Y-24142D01*
X17088Y-24142D01*
X17250Y-24075D01*
X17375Y-23950D01*
X17442Y-23788D01*
X17442Y-24389D01*
X17418Y-24330D01*
X17370Y-24283D01*
X17309Y-24257D01*
X17242Y-24257D01*
X16692Y-24257D01*
X16630Y-24282D01*
X16583Y-24330D01*
X16557Y-24391D01*
X16557Y-24458D01*
X16557Y-25008D01*
X16582Y-25070D01*
X16630Y-25117D01*
X16691Y-25143D01*
X16758Y-25143D01*
X17308Y-25143D01*
X17370Y-25118D01*
X17417Y-25070D01*
X17443Y-25009D01*
X17443Y-27718D01*
X17011Y-27539D01*
X16455Y-27539D01*
X15991Y-27730D01*
X15991Y-17937D01*
X16453Y-18130D01*
X17009Y-18130D01*
X17523Y-17918D01*
X17916Y-17525D01*
X18130Y-17011D01*
X18130Y-16455D01*
X17938Y-15991D01*
X45172Y-15991D01*
X44980Y-16453D01*
X44980Y-17009D01*
X45192Y-17523D01*
X45585Y-17916D01*
X46099Y-18130D01*
X46655Y-18130D01*
X47119Y-17938D01*
X47119Y-27731D01*
X46843Y-27616D01*
X46843Y-26079D01*
X46832Y-25866D01*
X46772Y-25719D01*
X46768Y-25717D01*
X46768Y-25093D01*
X46768Y-24907D01*
X46768Y-24093D01*
X46768Y-23907D01*
X46743Y-23846D01*
X46743Y-21409D01*
X46743Y-21342D01*
X46743Y-20792D01*
X46742Y-20789D01*
X46742Y-20188D01*
X46742Y-20012D01*
X46675Y-19850D01*
X46550Y-19725D01*
X46388Y-19658D01*
X46212Y-19658D01*
X46050Y-19725D01*
X45925Y-19850D01*
X45858Y-20012D01*
X45858Y-20188D01*
X45925Y-20350D01*
X46050Y-20475D01*
X46212Y-20542D01*
X46388Y-20542D01*
X46550Y-20475D01*
X46675Y-20350D01*
X46742Y-20188D01*
X46742Y-20789D01*
X46718Y-20730D01*
X46670Y-20683D01*
X46609Y-20657D01*
X46542Y-20657D01*
X45992Y-20657D01*
X45930Y-20682D01*
X45883Y-20730D01*
X45857Y-20791D01*
X45857Y-20858D01*
X45857Y-21408D01*
X45882Y-21470D01*
X45930Y-21517D01*
X45991Y-21543D01*
X46058Y-21543D01*
X46608Y-21543D01*
X46670Y-21518D01*
X46717Y-21470D01*
X46743Y-21409D01*
X46743Y-23846D01*
X46697Y-23735D01*
X46565Y-23603D01*
X46393Y-23532D01*
X46207Y-23532D01*
X46035Y-23603D01*
X45903Y-23735D01*
X45832Y-23907D01*
X45832Y-24093D01*
X45903Y-24265D01*
X46035Y-24397D01*
X46207Y-24468D01*
X46393Y-24468D01*
X46565Y-24397D01*
X46697Y-24265D01*
X46768Y-24093D01*
X46768Y-24907D01*
X46697Y-24735D01*
X46565Y-24603D01*
X46393Y-24532D01*
X46207Y-24532D01*
X46035Y-24603D01*
X45903Y-24735D01*
X45832Y-24907D01*
X45832Y-25093D01*
X45903Y-25265D01*
X46035Y-25397D01*
X46202Y-25466D01*
X46166Y-25468D01*
X46019Y-25528D01*
X45992Y-25622D01*
X46300Y-25929D01*
X46608Y-25622D01*
X46581Y-25528D01*
X46400Y-25464D01*
X46565Y-25397D01*
X46697Y-25265D01*
X46768Y-25093D01*
X46768Y-25717D01*
X46678Y-25692D01*
X46371Y-26000D01*
X46678Y-26308D01*
X46772Y-26281D01*
X46843Y-26079D01*
X46843Y-27616D01*
X46657Y-27539D01*
X46608Y-27539D01*
X46608Y-26378D01*
X46300Y-26071D01*
X46229Y-26141D01*
X46229Y-26000D01*
X45922Y-25692D01*
X45828Y-25719D01*
X45768Y-25887D01*
X45768Y-25093D01*
X45768Y-24907D01*
X45768Y-24334D01*
X45768Y-24267D01*
X45768Y-23667D01*
X45743Y-23605D01*
X45695Y-23558D01*
X45634Y-23532D01*
X45567Y-23532D01*
X44967Y-23532D01*
X44905Y-23557D01*
X44858Y-23605D01*
X44832Y-23666D01*
X44832Y-23733D01*
X44832Y-24333D01*
X44857Y-24395D01*
X44905Y-24442D01*
X44966Y-24468D01*
X45033Y-24468D01*
X45633Y-24468D01*
X45695Y-24443D01*
X45742Y-24395D01*
X45768Y-24334D01*
X45768Y-24907D01*
X45697Y-24735D01*
X45565Y-24603D01*
X45393Y-24532D01*
X45207Y-24532D01*
X45035Y-24603D01*
X44903Y-24735D01*
X44832Y-24907D01*
X44832Y-25093D01*
X44903Y-25265D01*
X45035Y-25397D01*
X45207Y-25468D01*
X45393Y-25468D01*
X45565Y-25397D01*
X45697Y-25265D01*
X45768Y-25093D01*
X45768Y-25887D01*
X45764Y-25899D01*
X45697Y-25735D01*
X45565Y-25603D01*
X45393Y-25532D01*
X45207Y-25532D01*
X45035Y-25603D01*
X44903Y-25735D01*
X44832Y-25907D01*
X44832Y-26093D01*
X44903Y-26265D01*
X45035Y-26397D01*
X45207Y-26468D01*
X45393Y-26468D01*
X45565Y-26397D01*
X45697Y-26265D01*
X45766Y-26097D01*
X45768Y-26134D01*
X45828Y-26281D01*
X45922Y-26308D01*
X46229Y-26000D01*
X46229Y-26141D01*
X45992Y-26378D01*
X46019Y-26472D01*
X46221Y-26543D01*
X46434Y-26532D01*
X46581Y-26472D01*
X46608Y-26378D01*
X46608Y-27539D01*
X46101Y-27539D01*
X45587Y-27751D01*
X45194Y-28144D01*
X44980Y-28658D01*
X44980Y-29214D01*
X45192Y-29728D01*
X45585Y-30121D01*
X46099Y-30335D01*
X46655Y-30335D01*
X47119Y-30143D01*
X47119Y-41117D01*
M02*
