G04 (created by PCBNEW-RS274X (2012-apr-16-27)-stable) date Thu 14 Mar 2013 22:03:03 CET*
G01*
G70*
G90*
%MOIN*%
G04 Gerber Fmt 3.4, Leading zero omitted, Abs format*
%FSLAX34Y34*%
G04 APERTURE LIST*
%ADD10C,0.006000*%
%ADD11C,0.012000*%
%ADD12C,0.015000*%
%ADD13C,0.010000*%
%ADD14C,0.007500*%
G04 APERTURE END LIST*
G54D10*
G54D11*
X18143Y-33562D02*
X18086Y-33524D01*
X18000Y-33524D01*
X17915Y-33562D01*
X17857Y-33638D01*
X17829Y-33714D01*
X17800Y-33867D01*
X17800Y-33981D01*
X17829Y-34133D01*
X17857Y-34210D01*
X17915Y-34286D01*
X18000Y-34324D01*
X18057Y-34324D01*
X18143Y-34286D01*
X18172Y-34248D01*
X18172Y-33981D01*
X18057Y-33981D01*
X18429Y-34324D02*
X18429Y-33524D01*
X18772Y-34324D01*
X18772Y-33524D01*
X19058Y-34324D02*
X19058Y-33524D01*
X19201Y-33524D01*
X19286Y-33562D01*
X19344Y-33638D01*
X19372Y-33714D01*
X19401Y-33867D01*
X19401Y-33981D01*
X19372Y-34133D01*
X19344Y-34210D01*
X19286Y-34286D01*
X19201Y-34324D01*
X19058Y-34324D01*
X17829Y-35819D02*
X18286Y-35819D01*
X18057Y-36124D02*
X18057Y-35514D01*
X18858Y-35324D02*
X18572Y-35324D01*
X18543Y-35705D01*
X18572Y-35667D01*
X18629Y-35629D01*
X18772Y-35629D01*
X18829Y-35667D01*
X18858Y-35705D01*
X18886Y-35781D01*
X18886Y-35971D01*
X18858Y-36048D01*
X18829Y-36086D01*
X18772Y-36124D01*
X18629Y-36124D01*
X18572Y-36086D01*
X18543Y-36048D01*
X19057Y-35324D02*
X19257Y-36124D01*
X19457Y-35324D01*
X18272Y-39324D02*
X18072Y-38943D01*
X17929Y-39324D02*
X17929Y-38524D01*
X18157Y-38524D01*
X18215Y-38562D01*
X18243Y-38600D01*
X18272Y-38676D01*
X18272Y-38790D01*
X18243Y-38867D01*
X18215Y-38905D01*
X18157Y-38943D01*
X17929Y-38943D01*
X18443Y-38524D02*
X18786Y-38524D01*
X18615Y-39324D02*
X18615Y-38524D01*
X18957Y-39286D02*
X19043Y-39324D01*
X19186Y-39324D01*
X19243Y-39286D01*
X19272Y-39248D01*
X19300Y-39171D01*
X19300Y-39095D01*
X19272Y-39019D01*
X19243Y-38981D01*
X19186Y-38943D01*
X19072Y-38905D01*
X19014Y-38867D01*
X18986Y-38829D01*
X18957Y-38752D01*
X18957Y-38676D01*
X18986Y-38600D01*
X19014Y-38562D01*
X19072Y-38524D01*
X19214Y-38524D01*
X19300Y-38562D01*
X18257Y-37590D02*
X17800Y-37819D01*
X18257Y-38048D01*
X18543Y-37819D02*
X19000Y-37819D01*
X17800Y-37019D02*
X18257Y-37019D01*
X18543Y-36790D02*
X19000Y-37019D01*
X18543Y-37248D01*
X18229Y-24819D02*
X18686Y-24819D01*
X18457Y-25124D02*
X18457Y-24514D01*
X19258Y-24324D02*
X18972Y-24324D01*
X18943Y-24705D01*
X18972Y-24667D01*
X19029Y-24629D01*
X19172Y-24629D01*
X19229Y-24667D01*
X19258Y-24705D01*
X19286Y-24781D01*
X19286Y-24971D01*
X19258Y-25048D01*
X19229Y-25086D01*
X19172Y-25124D01*
X19029Y-25124D01*
X18972Y-25086D01*
X18943Y-25048D01*
X19457Y-24324D02*
X19657Y-25124D01*
X19857Y-24324D01*
X18286Y-24086D02*
X18372Y-24124D01*
X18515Y-24124D01*
X18572Y-24086D01*
X18601Y-24048D01*
X18629Y-23971D01*
X18629Y-23895D01*
X18601Y-23819D01*
X18572Y-23781D01*
X18515Y-23743D01*
X18401Y-23705D01*
X18343Y-23667D01*
X18315Y-23629D01*
X18286Y-23552D01*
X18286Y-23476D01*
X18315Y-23400D01*
X18343Y-23362D01*
X18401Y-23324D01*
X18543Y-23324D01*
X18629Y-23362D01*
X19229Y-24048D02*
X19200Y-24086D01*
X19114Y-24124D01*
X19057Y-24124D01*
X18972Y-24086D01*
X18914Y-24010D01*
X18886Y-23933D01*
X18857Y-23781D01*
X18857Y-23667D01*
X18886Y-23514D01*
X18914Y-23438D01*
X18972Y-23362D01*
X19057Y-23324D01*
X19114Y-23324D01*
X19200Y-23362D01*
X19229Y-23400D01*
X19772Y-24124D02*
X19486Y-24124D01*
X19486Y-23324D01*
X18272Y-23086D02*
X18358Y-23124D01*
X18501Y-23124D01*
X18558Y-23086D01*
X18587Y-23048D01*
X18615Y-22971D01*
X18615Y-22895D01*
X18587Y-22819D01*
X18558Y-22781D01*
X18501Y-22743D01*
X18387Y-22705D01*
X18329Y-22667D01*
X18301Y-22629D01*
X18272Y-22552D01*
X18272Y-22476D01*
X18301Y-22400D01*
X18329Y-22362D01*
X18387Y-22324D01*
X18529Y-22324D01*
X18615Y-22362D01*
X18872Y-23124D02*
X18872Y-22324D01*
X19015Y-22324D01*
X19100Y-22362D01*
X19158Y-22438D01*
X19186Y-22514D01*
X19215Y-22667D01*
X19215Y-22781D01*
X19186Y-22933D01*
X19158Y-23010D01*
X19100Y-23086D01*
X19015Y-23124D01*
X18872Y-23124D01*
X19443Y-22895D02*
X19729Y-22895D01*
X19386Y-23124D02*
X19586Y-22324D01*
X19786Y-23124D01*
X18543Y-21362D02*
X18486Y-21324D01*
X18400Y-21324D01*
X18315Y-21362D01*
X18257Y-21438D01*
X18229Y-21514D01*
X18200Y-21667D01*
X18200Y-21781D01*
X18229Y-21933D01*
X18257Y-22010D01*
X18315Y-22086D01*
X18400Y-22124D01*
X18457Y-22124D01*
X18543Y-22086D01*
X18572Y-22048D01*
X18572Y-21781D01*
X18457Y-21781D01*
X18829Y-22124D02*
X18829Y-21324D01*
X19172Y-22124D01*
X19172Y-21324D01*
X19458Y-22124D02*
X19458Y-21324D01*
X19601Y-21324D01*
X19686Y-21362D01*
X19744Y-21438D01*
X19772Y-21514D01*
X19801Y-21667D01*
X19801Y-21781D01*
X19772Y-21933D01*
X19744Y-22010D01*
X19686Y-22086D01*
X19601Y-22124D01*
X19458Y-22124D01*
X30929Y-40124D02*
X30643Y-40124D01*
X30643Y-39324D01*
X31100Y-39895D02*
X31386Y-39895D01*
X31043Y-40124D02*
X31243Y-39324D01*
X31443Y-40124D01*
X31757Y-39324D02*
X31871Y-39324D01*
X31929Y-39362D01*
X31986Y-39438D01*
X32014Y-39590D01*
X32014Y-39857D01*
X31986Y-40010D01*
X31929Y-40086D01*
X31871Y-40124D01*
X31757Y-40124D01*
X31700Y-40086D01*
X31643Y-40010D01*
X31614Y-39857D01*
X31614Y-39590D01*
X31643Y-39438D01*
X31700Y-39362D01*
X31757Y-39324D01*
X32243Y-40086D02*
X32329Y-40124D01*
X32472Y-40124D01*
X32529Y-40086D01*
X32558Y-40048D01*
X32586Y-39971D01*
X32586Y-39895D01*
X32558Y-39819D01*
X32529Y-39781D01*
X32472Y-39743D01*
X32358Y-39705D01*
X32300Y-39667D01*
X32272Y-39629D01*
X32243Y-39552D01*
X32243Y-39476D01*
X32272Y-39400D01*
X32300Y-39362D01*
X32358Y-39324D01*
X32500Y-39324D01*
X32586Y-39362D01*
X31015Y-41364D02*
X31015Y-40564D01*
X31272Y-40640D02*
X31301Y-40602D01*
X31358Y-40564D01*
X31501Y-40564D01*
X31558Y-40602D01*
X31587Y-40640D01*
X31615Y-40716D01*
X31615Y-40792D01*
X31587Y-40907D01*
X31244Y-41364D01*
X31615Y-41364D01*
X32215Y-41288D02*
X32186Y-41326D01*
X32100Y-41364D01*
X32043Y-41364D01*
X31958Y-41326D01*
X31900Y-41250D01*
X31872Y-41173D01*
X31843Y-41021D01*
X31843Y-40907D01*
X31872Y-40754D01*
X31900Y-40678D01*
X31958Y-40602D01*
X32043Y-40564D01*
X32100Y-40564D01*
X32186Y-40602D01*
X32215Y-40640D01*
X30130Y-42604D02*
X30130Y-42070D01*
X30130Y-42223D02*
X30158Y-42147D01*
X30187Y-42109D01*
X30244Y-42070D01*
X30301Y-42070D01*
X30729Y-42566D02*
X30672Y-42604D01*
X30558Y-42604D01*
X30501Y-42566D01*
X30472Y-42490D01*
X30472Y-42185D01*
X30501Y-42109D01*
X30558Y-42070D01*
X30672Y-42070D01*
X30729Y-42109D01*
X30758Y-42185D01*
X30758Y-42261D01*
X30472Y-42337D01*
X30958Y-42070D02*
X31101Y-42604D01*
X31243Y-42070D01*
X32043Y-41804D02*
X32100Y-41804D01*
X32157Y-41842D01*
X32186Y-41880D01*
X32215Y-41956D01*
X32243Y-42109D01*
X32243Y-42299D01*
X32215Y-42451D01*
X32186Y-42528D01*
X32157Y-42566D01*
X32100Y-42604D01*
X32043Y-42604D01*
X31986Y-42566D01*
X31957Y-42528D01*
X31929Y-42451D01*
X31900Y-42299D01*
X31900Y-42109D01*
X31929Y-41956D01*
X31957Y-41880D01*
X31986Y-41842D01*
X32043Y-41804D01*
X32500Y-42528D02*
X32528Y-42566D01*
X32500Y-42604D01*
X32471Y-42566D01*
X32500Y-42528D01*
X32500Y-42604D01*
X33043Y-42070D02*
X33043Y-42604D01*
X32900Y-41766D02*
X32757Y-42337D01*
X33129Y-42337D01*
X27871Y-31990D02*
X27985Y-32524D01*
X28099Y-32143D01*
X28214Y-32524D01*
X28328Y-31990D01*
X28500Y-31990D02*
X28614Y-32524D01*
X28728Y-32143D01*
X28843Y-32524D01*
X28957Y-31990D01*
X29129Y-31990D02*
X29243Y-32524D01*
X29357Y-32143D01*
X29472Y-32524D01*
X29586Y-31990D01*
X29815Y-32448D02*
X29843Y-32486D01*
X29815Y-32524D01*
X29786Y-32486D01*
X29815Y-32448D01*
X29815Y-32524D01*
X30187Y-32524D02*
X30129Y-32486D01*
X30101Y-32410D01*
X30101Y-31724D01*
X30672Y-32524D02*
X30672Y-32105D01*
X30643Y-32029D01*
X30586Y-31990D01*
X30472Y-31990D01*
X30415Y-32029D01*
X30672Y-32486D02*
X30615Y-32524D01*
X30472Y-32524D01*
X30415Y-32486D01*
X30386Y-32410D01*
X30386Y-32333D01*
X30415Y-32257D01*
X30472Y-32219D01*
X30615Y-32219D01*
X30672Y-32181D01*
X31044Y-32524D02*
X30986Y-32486D01*
X30958Y-32448D01*
X30929Y-32371D01*
X30929Y-32143D01*
X30958Y-32067D01*
X30986Y-32029D01*
X31044Y-31990D01*
X31129Y-31990D01*
X31186Y-32029D01*
X31215Y-32067D01*
X31244Y-32143D01*
X31244Y-32371D01*
X31215Y-32448D01*
X31186Y-32486D01*
X31129Y-32524D01*
X31044Y-32524D01*
X31472Y-32486D02*
X31529Y-32524D01*
X31644Y-32524D01*
X31701Y-32486D01*
X31729Y-32410D01*
X31729Y-32371D01*
X31701Y-32295D01*
X31644Y-32257D01*
X31558Y-32257D01*
X31501Y-32219D01*
X31472Y-32143D01*
X31472Y-32105D01*
X31501Y-32029D01*
X31558Y-31990D01*
X31644Y-31990D01*
X31701Y-32029D01*
X32073Y-32524D02*
X32015Y-32486D01*
X31987Y-32410D01*
X31987Y-31724D01*
X32558Y-32524D02*
X32558Y-32105D01*
X32529Y-32029D01*
X32472Y-31990D01*
X32358Y-31990D01*
X32301Y-32029D01*
X32558Y-32486D02*
X32501Y-32524D01*
X32358Y-32524D01*
X32301Y-32486D01*
X32272Y-32410D01*
X32272Y-32333D01*
X32301Y-32257D01*
X32358Y-32219D01*
X32501Y-32219D01*
X32558Y-32181D01*
X32815Y-32486D02*
X32872Y-32524D01*
X32987Y-32524D01*
X33044Y-32486D01*
X33072Y-32410D01*
X33072Y-32371D01*
X33044Y-32295D01*
X32987Y-32257D01*
X32901Y-32257D01*
X32844Y-32219D01*
X32815Y-32143D01*
X32815Y-32105D01*
X32844Y-32029D01*
X32901Y-31990D01*
X32987Y-31990D01*
X33044Y-32029D01*
X33558Y-32486D02*
X33501Y-32524D01*
X33387Y-32524D01*
X33330Y-32486D01*
X33301Y-32410D01*
X33301Y-32105D01*
X33330Y-32029D01*
X33387Y-31990D01*
X33501Y-31990D01*
X33558Y-32029D01*
X33587Y-32105D01*
X33587Y-32181D01*
X33301Y-32257D01*
X33844Y-32524D02*
X33844Y-31990D01*
X33844Y-32143D02*
X33872Y-32067D01*
X33901Y-32029D01*
X33958Y-31990D01*
X34015Y-31990D01*
X34215Y-32448D02*
X34243Y-32486D01*
X34215Y-32524D01*
X34186Y-32486D01*
X34215Y-32448D01*
X34215Y-32524D01*
X34587Y-32524D02*
X34529Y-32486D01*
X34501Y-32448D01*
X34472Y-32371D01*
X34472Y-32143D01*
X34501Y-32067D01*
X34529Y-32029D01*
X34587Y-31990D01*
X34672Y-31990D01*
X34729Y-32029D01*
X34758Y-32067D01*
X34787Y-32143D01*
X34787Y-32371D01*
X34758Y-32448D01*
X34729Y-32486D01*
X34672Y-32524D01*
X34587Y-32524D01*
X35044Y-32524D02*
X35044Y-31990D01*
X35044Y-32143D02*
X35072Y-32067D01*
X35101Y-32029D01*
X35158Y-31990D01*
X35215Y-31990D01*
X35672Y-31990D02*
X35672Y-32638D01*
X35643Y-32714D01*
X35615Y-32752D01*
X35558Y-32790D01*
X35472Y-32790D01*
X35415Y-32752D01*
X35672Y-32486D02*
X35615Y-32524D01*
X35501Y-32524D01*
X35443Y-32486D01*
X35415Y-32448D01*
X35386Y-32371D01*
X35386Y-32143D01*
X35415Y-32067D01*
X35443Y-32029D01*
X35501Y-31990D01*
X35615Y-31990D01*
X35672Y-32029D01*
X16450Y-33450D02*
X17450Y-33450D01*
X17450Y-33450D02*
X17450Y-39450D01*
X17450Y-39450D02*
X16450Y-39450D01*
X16450Y-39450D02*
X16450Y-33450D01*
X16450Y-34450D02*
X17450Y-34450D01*
X16500Y-25250D02*
X16500Y-25250D01*
X17500Y-25250D02*
X16500Y-25250D01*
X16500Y-25250D02*
X16500Y-25250D01*
X16500Y-25250D02*
X16500Y-21250D01*
X16500Y-21250D02*
X17500Y-21250D01*
X17500Y-21250D02*
X17500Y-25250D01*
X17500Y-24250D02*
X16500Y-24250D01*
X28600Y-29900D02*
X28600Y-28900D01*
X28600Y-28900D02*
X31600Y-28900D01*
X31600Y-28900D02*
X31600Y-29900D01*
X31600Y-29900D02*
X28600Y-29900D01*
X29600Y-28900D02*
X29600Y-29900D01*
G54D12*
X21100Y-24000D02*
X36100Y-24000D01*
X36100Y-24000D02*
X36100Y-26000D01*
X36100Y-26000D02*
X21100Y-26000D01*
X21100Y-26000D02*
X21100Y-24000D01*
X21100Y-24500D02*
X21600Y-24500D01*
X21600Y-24500D02*
X21600Y-25500D01*
X21600Y-25500D02*
X21100Y-25500D01*
G54D11*
X30500Y-22400D02*
X27700Y-22400D01*
X27700Y-22400D02*
X27700Y-21600D01*
X27700Y-21600D02*
X30500Y-21600D01*
X30500Y-21600D02*
X30500Y-22400D01*
X30500Y-22200D02*
X30300Y-22400D01*
G54D12*
X23169Y-18410D02*
X23131Y-18792D01*
X23020Y-19160D01*
X22840Y-19499D01*
X22597Y-19797D01*
X22301Y-20042D01*
X21963Y-20225D01*
X21595Y-20338D01*
X21213Y-20378D01*
X20832Y-20344D01*
X20463Y-20235D01*
X20122Y-20057D01*
X19823Y-19816D01*
X19576Y-19522D01*
X19391Y-19185D01*
X19275Y-18819D01*
X19232Y-18437D01*
X19264Y-18055D01*
X19370Y-17686D01*
X19545Y-17344D01*
X19784Y-17043D01*
X20077Y-16794D01*
X20412Y-16606D01*
X20778Y-16487D01*
X21159Y-16442D01*
X21541Y-16471D01*
X21912Y-16575D01*
X22255Y-16748D01*
X22557Y-16985D01*
X22808Y-17276D01*
X22998Y-17610D01*
X23120Y-17974D01*
X23168Y-18356D01*
X23169Y-18410D01*
G54D11*
X22400Y-28200D02*
X22400Y-31000D01*
X22400Y-31000D02*
X21600Y-31000D01*
X21600Y-31000D02*
X21600Y-28200D01*
X21600Y-28200D02*
X22400Y-28200D01*
X22200Y-28200D02*
X22400Y-28400D01*
G54D12*
X17525Y-16732D02*
X17509Y-16886D01*
X17465Y-17034D01*
X17392Y-17170D01*
X17294Y-17290D01*
X17175Y-17389D01*
X17039Y-17463D01*
X16891Y-17508D01*
X16737Y-17524D01*
X16584Y-17510D01*
X16435Y-17467D01*
X16298Y-17395D01*
X16178Y-17298D01*
X16078Y-17180D01*
X16004Y-17044D01*
X15957Y-16896D01*
X15940Y-16743D01*
X15953Y-16589D01*
X15995Y-16441D01*
X16066Y-16303D01*
X16162Y-16182D01*
X16280Y-16081D01*
X16415Y-16006D01*
X16562Y-15958D01*
X16716Y-15940D01*
X16869Y-15952D01*
X17018Y-15993D01*
X17156Y-16063D01*
X17278Y-16158D01*
X17379Y-16275D01*
X17456Y-16410D01*
X17505Y-16557D01*
X17524Y-16710D01*
X17525Y-16732D01*
X47171Y-16732D02*
X47155Y-16886D01*
X47111Y-17034D01*
X47038Y-17170D01*
X46940Y-17290D01*
X46821Y-17389D01*
X46685Y-17463D01*
X46537Y-17508D01*
X46383Y-17524D01*
X46230Y-17510D01*
X46081Y-17467D01*
X45944Y-17395D01*
X45824Y-17298D01*
X45724Y-17180D01*
X45650Y-17044D01*
X45603Y-16896D01*
X45586Y-16743D01*
X45599Y-16589D01*
X45641Y-16441D01*
X45712Y-16303D01*
X45808Y-16182D01*
X45926Y-16081D01*
X46061Y-16006D01*
X46208Y-15958D01*
X46362Y-15940D01*
X46515Y-15952D01*
X46664Y-15993D01*
X46802Y-16063D01*
X46924Y-16158D01*
X47025Y-16275D01*
X47102Y-16410D01*
X47151Y-16557D01*
X47170Y-16710D01*
X47171Y-16732D01*
X47171Y-28937D02*
X47155Y-29091D01*
X47111Y-29239D01*
X47038Y-29375D01*
X46940Y-29495D01*
X46821Y-29594D01*
X46685Y-29668D01*
X46537Y-29713D01*
X46383Y-29729D01*
X46230Y-29715D01*
X46081Y-29672D01*
X45944Y-29600D01*
X45824Y-29503D01*
X45724Y-29385D01*
X45650Y-29249D01*
X45603Y-29101D01*
X45586Y-28948D01*
X45599Y-28794D01*
X45641Y-28646D01*
X45712Y-28508D01*
X45808Y-28387D01*
X45926Y-28286D01*
X46061Y-28211D01*
X46208Y-28163D01*
X46362Y-28145D01*
X46515Y-28157D01*
X46664Y-28198D01*
X46802Y-28268D01*
X46924Y-28363D01*
X47025Y-28480D01*
X47102Y-28615D01*
X47151Y-28762D01*
X47170Y-28915D01*
X47171Y-28937D01*
X17525Y-28937D02*
X17509Y-29091D01*
X17465Y-29239D01*
X17392Y-29375D01*
X17294Y-29495D01*
X17175Y-29594D01*
X17039Y-29668D01*
X16891Y-29713D01*
X16737Y-29729D01*
X16584Y-29715D01*
X16435Y-29672D01*
X16298Y-29600D01*
X16178Y-29503D01*
X16078Y-29385D01*
X16004Y-29249D01*
X15957Y-29101D01*
X15940Y-28948D01*
X15953Y-28794D01*
X15995Y-28646D01*
X16066Y-28508D01*
X16162Y-28387D01*
X16280Y-28286D01*
X16415Y-28211D01*
X16562Y-28163D01*
X16716Y-28145D01*
X16869Y-28157D01*
X17018Y-28198D01*
X17156Y-28268D01*
X17278Y-28363D01*
X17379Y-28480D01*
X17456Y-28615D01*
X17505Y-28762D01*
X17524Y-28915D01*
X17525Y-28937D01*
X17525Y-42323D02*
X17509Y-42477D01*
X17465Y-42625D01*
X17392Y-42761D01*
X17294Y-42881D01*
X17175Y-42980D01*
X17039Y-43054D01*
X16891Y-43099D01*
X16737Y-43115D01*
X16584Y-43101D01*
X16435Y-43058D01*
X16298Y-42986D01*
X16178Y-42889D01*
X16078Y-42771D01*
X16004Y-42635D01*
X15957Y-42487D01*
X15940Y-42334D01*
X15953Y-42180D01*
X15995Y-42032D01*
X16066Y-41894D01*
X16162Y-41773D01*
X16280Y-41672D01*
X16415Y-41597D01*
X16562Y-41549D01*
X16716Y-41531D01*
X16869Y-41543D01*
X17018Y-41584D01*
X17156Y-41654D01*
X17278Y-41749D01*
X17379Y-41866D01*
X17456Y-42001D01*
X17505Y-42148D01*
X17524Y-42301D01*
X17525Y-42323D01*
X47171Y-42323D02*
X47155Y-42477D01*
X47111Y-42625D01*
X47038Y-42761D01*
X46940Y-42881D01*
X46821Y-42980D01*
X46685Y-43054D01*
X46537Y-43099D01*
X46383Y-43115D01*
X46230Y-43101D01*
X46081Y-43058D01*
X45944Y-42986D01*
X45824Y-42889D01*
X45724Y-42771D01*
X45650Y-42635D01*
X45603Y-42487D01*
X45586Y-42334D01*
X45599Y-42180D01*
X45641Y-42032D01*
X45712Y-41894D01*
X45808Y-41773D01*
X45926Y-41672D01*
X46061Y-41597D01*
X46208Y-41549D01*
X46362Y-41531D01*
X46515Y-41543D01*
X46664Y-41584D01*
X46802Y-41654D01*
X46924Y-41749D01*
X47025Y-41866D01*
X47102Y-42001D01*
X47151Y-42148D01*
X47170Y-42301D01*
X47171Y-42323D01*
G54D11*
X24600Y-19500D02*
X24600Y-18500D01*
X24600Y-18500D02*
X26600Y-18500D01*
X26600Y-18500D02*
X26600Y-19500D01*
X26600Y-19500D02*
X24600Y-19500D01*
X26200Y-18200D02*
X24200Y-18200D01*
X24200Y-18200D02*
X24200Y-16200D01*
X24200Y-16200D02*
X26200Y-16200D01*
X26200Y-16200D02*
X26200Y-18200D01*
X26700Y-17700D02*
X26200Y-17700D01*
X27700Y-17200D02*
X26200Y-17200D01*
X26700Y-16700D02*
X26200Y-16700D01*
X33400Y-18800D02*
X33000Y-18800D01*
X33000Y-18800D02*
X33000Y-19200D01*
X33000Y-19200D02*
X29800Y-19200D01*
X29800Y-19200D02*
X29800Y-18400D01*
X29800Y-18400D02*
X33000Y-18400D01*
X33000Y-18400D02*
X33000Y-18800D01*
X33000Y-19000D02*
X32800Y-19200D01*
X29400Y-18800D02*
X29800Y-18800D01*
X18000Y-27600D02*
X18400Y-27600D01*
X18400Y-27600D02*
X18400Y-27200D01*
X18400Y-27200D02*
X21600Y-27200D01*
X21600Y-27200D02*
X21600Y-28000D01*
X21600Y-28000D02*
X18400Y-28000D01*
X18400Y-28000D02*
X18400Y-27600D01*
X18400Y-27400D02*
X18600Y-27200D01*
X22000Y-27600D02*
X21600Y-27600D01*
X17243Y-33042D02*
X16643Y-33042D01*
X16643Y-32814D01*
X16671Y-32756D01*
X16700Y-32728D01*
X16757Y-32699D01*
X16843Y-32699D01*
X16900Y-32728D01*
X16929Y-32756D01*
X16957Y-32814D01*
X16957Y-33042D01*
X17243Y-32128D02*
X17243Y-32471D01*
X17243Y-32299D02*
X16643Y-32299D01*
X16729Y-32356D01*
X16786Y-32414D01*
X16814Y-32471D01*
X17293Y-21192D02*
X16693Y-21192D01*
X16693Y-20964D01*
X16721Y-20906D01*
X16750Y-20878D01*
X16807Y-20849D01*
X16893Y-20849D01*
X16950Y-20878D01*
X16979Y-20906D01*
X17007Y-20964D01*
X17007Y-21192D01*
X16750Y-20621D02*
X16721Y-20592D01*
X16693Y-20535D01*
X16693Y-20392D01*
X16721Y-20335D01*
X16750Y-20306D01*
X16807Y-20278D01*
X16864Y-20278D01*
X16950Y-20306D01*
X17293Y-20649D01*
X17293Y-20278D01*
G54D13*
X17243Y-26390D02*
X16643Y-26390D01*
X16700Y-26219D02*
X16671Y-26200D01*
X16643Y-26162D01*
X16643Y-26066D01*
X16671Y-26028D01*
X16700Y-26009D01*
X16757Y-25990D01*
X16814Y-25990D01*
X16900Y-26009D01*
X17243Y-26238D01*
X17243Y-25990D01*
X17186Y-25590D02*
X17214Y-25609D01*
X17243Y-25666D01*
X17243Y-25704D01*
X17214Y-25762D01*
X17157Y-25800D01*
X17100Y-25819D01*
X16986Y-25838D01*
X16900Y-25838D01*
X16786Y-25819D01*
X16729Y-25800D01*
X16671Y-25762D01*
X16643Y-25704D01*
X16643Y-25666D01*
X16671Y-25609D01*
X16700Y-25590D01*
G54D11*
X30001Y-30529D02*
X29801Y-30529D01*
X29801Y-30843D02*
X29801Y-30243D01*
X30087Y-30243D01*
X30629Y-30843D02*
X30286Y-30843D01*
X30458Y-30843D02*
X30458Y-30243D01*
X30401Y-30329D01*
X30343Y-30386D01*
X30286Y-30414D01*
X36215Y-25843D02*
X36215Y-25243D01*
X36844Y-25786D02*
X36815Y-25814D01*
X36729Y-25843D01*
X36672Y-25843D01*
X36587Y-25814D01*
X36529Y-25757D01*
X36501Y-25700D01*
X36472Y-25586D01*
X36472Y-25500D01*
X36501Y-25386D01*
X36529Y-25329D01*
X36587Y-25271D01*
X36672Y-25243D01*
X36729Y-25243D01*
X36815Y-25271D01*
X36844Y-25300D01*
X37415Y-25843D02*
X37072Y-25843D01*
X37244Y-25843D02*
X37244Y-25243D01*
X37187Y-25329D01*
X37129Y-25386D01*
X37072Y-25414D01*
X28743Y-20643D02*
X28743Y-21129D01*
X28771Y-21186D01*
X28800Y-21214D01*
X28857Y-21243D01*
X28971Y-21243D01*
X29029Y-21214D01*
X29057Y-21186D01*
X29086Y-21129D01*
X29086Y-20643D01*
X29686Y-21243D02*
X29343Y-21243D01*
X29515Y-21243D02*
X29515Y-20643D01*
X29458Y-20729D01*
X29400Y-20786D01*
X29343Y-20814D01*
X17943Y-18243D02*
X17943Y-18729D01*
X17971Y-18786D01*
X18000Y-18814D01*
X18057Y-18843D01*
X18171Y-18843D01*
X18229Y-18814D01*
X18257Y-18786D01*
X18286Y-18729D01*
X18286Y-18243D01*
X18543Y-18300D02*
X18572Y-18271D01*
X18629Y-18243D01*
X18772Y-18243D01*
X18829Y-18271D01*
X18858Y-18300D01*
X18886Y-18357D01*
X18886Y-18414D01*
X18858Y-18500D01*
X18515Y-18843D01*
X18886Y-18843D01*
G54D14*
X21207Y-20886D02*
X21207Y-20657D01*
X21321Y-20771D02*
X21093Y-20771D01*
G54D11*
X20643Y-30057D02*
X21129Y-30057D01*
X21186Y-30029D01*
X21214Y-30000D01*
X21243Y-29943D01*
X21243Y-29829D01*
X21214Y-29771D01*
X21186Y-29743D01*
X21129Y-29714D01*
X20643Y-29714D01*
X20843Y-29171D02*
X21243Y-29171D01*
X20614Y-29314D02*
X21043Y-29457D01*
X21043Y-29085D01*
X26958Y-19243D02*
X26958Y-18643D01*
X27186Y-18643D01*
X27244Y-18671D01*
X27272Y-18700D01*
X27301Y-18757D01*
X27301Y-18843D01*
X27272Y-18900D01*
X27244Y-18929D01*
X27186Y-18957D01*
X26958Y-18957D01*
X27501Y-18643D02*
X27901Y-18643D01*
X27644Y-19243D01*
X23143Y-16243D02*
X23486Y-16243D01*
X23315Y-16843D02*
X23315Y-16243D01*
X24000Y-16843D02*
X23657Y-16843D01*
X23829Y-16843D02*
X23829Y-16243D01*
X23772Y-16329D01*
X23714Y-16386D01*
X23657Y-16414D01*
X31301Y-18243D02*
X31101Y-17957D01*
X30958Y-18243D02*
X30958Y-17643D01*
X31186Y-17643D01*
X31244Y-17671D01*
X31272Y-17700D01*
X31301Y-17757D01*
X31301Y-17843D01*
X31272Y-17900D01*
X31244Y-17929D01*
X31186Y-17957D01*
X30958Y-17957D01*
X31872Y-18243D02*
X31529Y-18243D01*
X31701Y-18243D02*
X31701Y-17643D01*
X31644Y-17729D01*
X31586Y-17786D01*
X31529Y-17814D01*
X19901Y-27043D02*
X19701Y-26757D01*
X19558Y-27043D02*
X19558Y-26443D01*
X19786Y-26443D01*
X19844Y-26471D01*
X19872Y-26500D01*
X19901Y-26557D01*
X19901Y-26643D01*
X19872Y-26700D01*
X19844Y-26729D01*
X19786Y-26757D01*
X19558Y-26757D01*
X20129Y-26500D02*
X20158Y-26471D01*
X20215Y-26443D01*
X20358Y-26443D01*
X20415Y-26471D01*
X20444Y-26500D01*
X20472Y-26557D01*
X20472Y-26614D01*
X20444Y-26700D01*
X20101Y-27043D01*
X20472Y-27043D01*
M02*
